SplineFontDB: 3.2
FontName: Justin'sScript-Regular
FullName: Justin's Script
FamilyName: Justin's Script
Weight: Regular
Copyright: Copyright (c) 2021, Justin Joseph & Joseph V M.\nwww.linktr.ee/josephvm
UComments: "2021-12-3: Created with FontForge (http://fontforge.org)"
Version: 1.000
ItalicAngle: 0
UnderlinePosition: -100
UnderlineWidth: 50
Ascent: 800
Descent: 200
InvalidEm: 0
LayerCount: 2
Layer: 0 0 "Back" 1
Layer: 1 0 "Fore" 0
XUID: [1021 713 -794294067 7652]
StyleMap: 0x0000
FSType: 0
OS2Version: 0
OS2_WeightWidthSlopeOnly: 0
OS2_UseTypoMetrics: 1
CreationTime: 1638513137
ModificationTime: 1639299229
PfmFamily: 65
TTFWeight: 400
TTFWidth: 5
LineGap: 90
VLineGap: 90
OS2TypoAscent: 0
OS2TypoAOffset: 1
OS2TypoDescent: 0
OS2TypoDOffset: 1
OS2TypoLinegap: 90
OS2WinAscent: 0
OS2WinAOffset: 1
OS2WinDescent: 0
OS2WinDOffset: 1
HheadAscent: 0
HheadAOffset: 1
HheadDescent: 0
HheadDOffset: 1
OS2Vendor: 'PfEd'
MarkAttachClasses: 1
DEI: 91125
LangName: 1033 "" "" "" "" "" "" "" "" "" "Justin Joseph, Joseph V M" "" "" "https://linktr.ee/josephvm" "This Font Software is licensed under the SIL Open Font License, Version 1.1. This license is available with a FAQ at: http://scripts.sil.org/OFL" "http://scripts.sil.org/OFL"
Encoding: UnicodeBmp
UnicodeInterp: none
NameList: ΤεΧ Names
DisplaySize: -48
AntiAlias: 1
FitToEm: 0
WinInfo: 0 27 9
BeginPrivate: 0
EndPrivate
TeXData: 1 0 0 346030 173015 115343 0 1048576 115343 783286 444596 497025 792723 393216 433062 380633 303038 157286 324010 404750 52429 2506097 1059062 262144
BeginChars: 65536 106

StartChar: A
Encoding: 65 65 0
Width: 646
Flags: W
HStem: 278 37<286.217 431.419> 740 20G<466 499>
VStem: 533 63<374.721 649.862>
LayerCount: 2
Fore
SplineSet
369 311 m 0
 407 311 448 315 476 334 c 0
 521 363 533 424 533 487 c 0
 533 571 512 655 496 706 c 1
 486 704 l 2
 309 657 260 484 260 325 c 2
 260 315 l 1
 270 315 l 2
 301 315 336 311 369 311 c 0
596 552 m 0
 596 426 558 297 535 190 c 0
 531 174 529 158 527 142 c 0
 517 75 507 19 444 8 c 1
 446 54 453 99 462 145 c 0
 464 157 466 170 466 182 c 0
 466 217 454 244 432 260 c 0
 415 273 393 278 369 278 c 0
 338 278 302 269 266 250 c 0
 211 222 192 173 173 129 c 0
 151 76 131 28 60 9 c 1
 53 44 50 77 50 107 c 0
 50 224 97 309 158 421 c 0
 169 441 180 462 192 484 c 0
 205 509 212 533 219 556 c 0
 232 601 243 638 290 663 c 0
 304 670 319 681 336 692 c 0
 384 723 443 760 489 760 c 0
 509 760 527 754 542 737 c 0
 581 693 596 627 596 552 c 0
EndSplineSet
Validated: 1
EndChar

StartChar: B
Encoding: 66 66 1
Width: 686
Flags: W
HStem: 40 16<60 109.233> 707 67<286.138 454.785>
VStem: 60 66<221.924 531.452> 490 71<520.612 672.063> 559 77<186.279 306.626>
LayerCount: 2
Fore
SplineSet
260 328 m 0xe8
 240 328 221 331 202 338 c 1
 202 341 l 1
 225 355 252 368 280 381 c 0
 373 425 485 477 490 598 c 0
 490 600 490 603 490 605 c 0
 490 671 449 707 385 707 c 0
 340 707 289 690 247 666 c 0
 213 647 184 623 169 599 c 0
 128 533 127 445 126 356 c 0
 125 274 123 193 94 126 c 1
 59 151 50 183 50 220 c 0
 50 261 59 305 60 347 c 2
 60 352 l 2
 60 377 57 405 55 434 c 0
 52 466 50 500 50 533 c 0
 50 590 59 641 90 677 c 0
 136 730 255 774 362 774 c 0
 447 774 518 747 545 688 c 0
 556 663 561 639 561 616 c 0xf0
 561 566 540 517 519 467 c 0
 510 446 502 424 494 402 c 1
 505 400 l 2
 590 383 636 319 636 251 c 0
 636 207 617 161 576 123 c 0
 514 66 416 43 326 23 c 0
 307 19 289 14 271 10 c 1
 60 40 l 1
 60 56 l 1
 93 62 129 63 165 63 c 2
 248 63 l 2
 322 63 398 68 466 114 c 0
 512 145 559 198 559 252 c 0
 559 285 539 316 495 336 c 0
 474 346 450 350 428 350 c 0
 372 350 315 328 260 328 c 0xe8
EndSplineSet
Validated: 1
EndChar

StartChar: C
Encoding: 67 67 2
Width: 870
Flags: W
HStem: 0 71<314.113 635.535> 47 60<653.968 819.717> 620 85<664.433 703.746> 646 79<473.967 696.132>
VStem: 42 96<170.149 346.58>
LayerCount: 2
Fore
SplineSet
812 47 m 0x48
 697 47 593 0 479 0 c 0
 469 0 457 1 446 2 c 0
 371 8 295 22 225 48 c 0
 90 99 42 174 42 256 c 0
 42 334 88 421 157 498 c 0
 243 594 363 674 467 703 c 0
 512 716 561 725 605 725 c 0x98
 639 725 670 719 694 705 c 0
 721 689 740 663 749 620 c 1x28
 702 638 654 646 606 646 c 0
 463 646 326 571 224 453 c 0
 180 403 138 324 138 247 c 0
 138 219 141.216979089 186.783020911 163 165 c 0
 234 94 320 71 428 71 c 0x98
 517 71 608 85 671 97 c 0
 704 103 750 107 781 107 c 0
 795 107 806 104 813 99 c 0
 822 93 828 82 828 60 c 0
 828 56 828 51 827 46 c 1
 822 46 817 47 812 47 c 0x48
EndSplineSet
Validated: 1
EndChar

StartChar: D
Encoding: 68 68 3
Width: 950
Flags: W
HStem: 1 68<112.5 273.437> 659 83<226.842 566.301>
VStem: 805 104<361.402 533.958>
LayerCount: 2
Fore
SplineSet
41 67 m 0
 41 103 57 147 62 181 c 0
 69 227 70 285 70 346 c 0
 71 468 72 601 120 672 c 0
 129 685 149 697 175 706 c 0
 217 721 261 726 302 735 c 0
 325 740 353 742 385 742 c 0
 519 742 710 698 820 611 c 0
 875 568 909 514 909 451 c 0
 909 419 900 384 880 346 c 0
 839 266 742 197 628 143 c 0
 486 75 321 31 214 10 c 0
 193 6 161 1 130 1 c 0
 95 1 65 9 52 26 c 0
 44 37 41 51 41 67 c 0
266 655 m 0
 252.666666667 655 238.879818594 656.133786848 225.611273081 656.133786848 c 0
 211.015873016 656.133786848 197.047619048 654.761904762 185 649 c 1
 134 72 l 1
 146 71 157 69 171 69 c 0
 246 69 346 80 444 122 c 0
 567 175 687 247 746 307 c 0
 784 345 805 401 805 456 c 0
 805 502 787 538 756 573 c 0
 682 656 570 659 456 659 c 0
 393 659 327 655 266 655 c 0
EndSplineSet
Validated: 1
EndChar

StartChar: E
Encoding: 69 69 4
Width: 740
Flags: W
HStem: 0 66<149 253.471> 306 70<281.746 534.153> 699 21G<681.5 687> 719 65<321.328 635.461>
VStem: 109 104<356.125 616.922>
LayerCount: 2
Fore
SplineSet
218 368 m 2xd8
 218 356 l 1
 230 358 l 1
 230 358 313 376 401 376 c 0
 498 376 588 354 593 279 c 1
 530 294 465 306 404 306 c 0
 347 306 295 296 251 269 c 0
 196 235 159 174 150 77 c 2
 149 66 l 1
 160 66 l 2
 221 66 448 37 547 17 c 1
 48 0 l 1
 45 16 44 31 44 45 c 0
 44 93 58 137 73 184 c 0
 83 215 93 247 100 282 c 0
 109 333 111 380 111 428 c 0
 111 475 109 522 109 569 c 0
 109 584 109 600 110 615 c 0
 111 640 119 676 133 706 c 0
 144 730 159 752 174 763 c 0
 187 773 205 776 224 776 c 0
 250 776 278 770 304 770 c 0
 305 770 307 770 308 770 c 0
 329 771 354 773 381 776 c 0
 422 780 467 784 510 784 c 0xd8
 597 784 671 767 692 699 c 1xe8
 682 701 669 704 653 706 c 0
 611 713 550 719 488 719 c 0
 434 719 378 714 333 701 c 0
 297 690 266 675 250 648 c 0
 220 597 213 546 213 495 c 0
 213 453 218 410 218 368 c 2xd8
EndSplineSet
Validated: 1
EndChar

StartChar: F
Encoding: 70 70 5
Width: 609
Flags: W
HStem: 316 64<341.438 425.743> 633 21G<573 595> 661 64<280.721 512.798>
LayerCount: 2
Fore
SplineSet
353.5 725 m 0
 432.5 725 516.5 711 561.5 682 c 0
 583.5 668 594.5 652 595.5 633 c 1
 550.5 647 476.5 661 405.5 661 c 0
 334.5 661 265.5 648 233.5 603 c 0
 206.5 563 205.5 494 203.5 436 c 0
 202.5 411 201.5 388 199.5 370 c 2
 197.5 357 l 1
 210.5 359 l 2
 254.5 365 308.5 380 353.5 380 c 0
 375.5 380 395.5 377 411.5 368 c 0
 428.5 359 442.5 343 449.5 316 c 1
 202.5 332 l 1
 76.5 0 l 1
 14.5 0 l 1
 13.5 8 13.5 15 13.5 23 c 0
 13.5 116 45.5 222 77.5 325 c 0
 98.5 394 118.5 461 129.5 524 c 0
 131.5 535 132.5 546 133.5 559 c 0
 138.5 608 146.5 668 177.5 691 c 0
 204.5 711 276.5 725 353.5 725 c 0
EndSplineSet
Validated: 1
EndChar

StartChar: G
Encoding: 71 71 6
Width: 1116
Flags: W
HStem: 13 21G<844.667 902> 80 75<212.103 530.125> 636 20G<1020 1055.5> 755 20G<421 463>
VStem: 44 91<242.9 391.26>
LayerCount: 2
Fore
SplineSet
536 176 m 2
 571 176 608 180 638 215 c 0
 684 269 683 372 711 442 c 2
 736 504 l 1
 694 452 l 1
 693 451 685 449 674 449 c 0
 642 449 584 464 563 484 c 0
 559 488 557 492 557 494 c 0
 557 495 558 498 560 501 c 0
 561 502 564 505 571 509 c 0
 579 514 591 520 606 527 c 0
 639 542 687 559 738 577 c 0
 853 617 992 656 1048 656 c 0
 1063 656 1066 653 1066 653 c 1
 1070 647 1072 639 1072 629 c 0
 1072 595 1049 544 1030 503 c 0
 1021 484 1012 467 1008 454 c 0
 1004 440 1001 426 997 414 c 0
 952 265 931 196 902 26 c 1
 841 13 l 1
 938 542 l 1
 921 534 l 2
 908 528 891 524 872 520 c 0
 828 510 788 499 764 449 c 4
 743 405 741 361 739 320 c 4
 736 260 719 207 666 164 c 0
 599 110 473 80 357 80 c 0
 285 80 218 92 173 113 c 0
 113 142 44 208 44 301 c 0
 44 309 44 317 45 324 c 0
 54 399 134 532 229 634 c 0
 305 716 390 775 452 775 c 0
 474 775 492 769 508 753 c 1
 450 725 344 655 258 569 c 0
 184 495 135 420 135 334 c 0
 135 321 136 307 139 293 c 0
 153 234 178 197 211 177 c 0
 237 161 267 155 297 155 c 0
 361 155 418 168 476 175 c 0
 483 176 491 176 500 176 c 2
 536 176 l 2
EndSplineSet
Validated: 1
EndChar

StartChar: H
Encoding: 72 72 7
Width: 746
Flags: W
HStem: 746 20G<231.5 238.5>
LayerCount: 2
Fore
SplineSet
532 245 m 0
 532 256 531 266 529 276 c 0
 524 296 511 312 494 324 c 0
 460 347 410 356 361 356 c 0
 303 356 247 344 220 318 c 1
 187 262 173 191 161 130 c 0
 152 84 143 44 131 24 c 0
 123 12 97 9 76 9 c 0
 65 9 54 11 47 12 c 1
 56 172 132 407 159 568 c 0
 162 580 165 594 167 609 c 0
 172 663 179 728 210 755 c 0
 220 763 228 766 235 766 c 0
 242 766 249 764 256 758 c 0
 269 747 278 724 279 705 c 2
 279 691 l 2
 279 626 264 554 249 486 c 0
 243 458 238 433 233 406 c 1
 560 387 l 1
 562 395 l 2
 570 424 572 463 576 503 c 0
 582 574 591 651 619 700 c 0
 626 712 644 728 662 739 c 0
 676 748 691 753 696 753 c 1
 699 734 700 706 700 670 c 0
 700 569 688 416 654 277 c 0
 627 166 585 65 527 9 c 0
 525 7 518 5 509 3 c 0
 495 1 479 0 464 -1 c 1
 487 70 532 169 532 245 c 0
EndSplineSet
Validated: 1
EndChar

StartChar: I
Encoding: 73 73 8
Width: 293
VWidth: 860
Flags: W
HStem: 12 21G<35.6667 134> 742 20G<210.259 233> 742 20G<210.259 233>
VStem: 31 98<31.5 77.1>
LayerCount: 2
Fore
SplineSet
263 596 m 0xd0
 263 479 220 336 182 210 c 0
 160 136 139 68 129 12 c 1
 31 33 l 1
 61 222 l 1
 216 762 l 1
 250 719 263 661 263 596 c 0xd0
EndSplineSet
Validated: 1
EndChar

StartChar: J
Encoding: 74 74 9
Width: 645
Flags: W
HStem: 12 21G<318.5 320.5> 78 48<90.9669 265.717> 665 72<126.04 314> 704 46<447.719 558.265>
LayerCount: 2
Fore
SplineSet
37 78 m 1xd0
 51 114 97 126 152 126 c 0
 210 126 262 114 297 105 c 1
 299 116 l 2
 303 146 304 218 305 301 c 0
 306 380 307 469 311 538 c 0
 314 593 320 637 327 651 c 2
 340 678 l 1
 314 665 l 2
 313 665 309 665 304 665 c 0
 280 665 225 670 178 677 c 0
 142 682 111 690 101 695 c 0
 101 696 100 698 100 701 c 0
 100 712 106 735 118 737 c 1xe0
 608 750 l 1
 596 716 562 710 520 704 c 0
 482 698 435 692 424 648 c 0
 420 633 418 589 413 527 c 0
 407 444 397 331 384 232 c 0
 375 163 364 101 350 60 c 0
 344 42 337 28 331 20 c 0
 326 14 322 12 319 12 c 0
 318 12 315 12 313 14 c 0
 279 71 198 81 128 81 c 0
 95 81 66 79 37 78 c 1xd0
EndSplineSet
Validated: 1
EndChar

StartChar: K
Encoding: 75 75 10
Width: 765
Flags: W
HStem: 11 21G<87.5 97.5> 659 20G<676 698> 756 20G<301.5 305.5>
VStem: 262 75<679.524 758.624>
LayerCount: 2
Fore
SplineSet
92 11 m 0
 83 11 74 14 62 26 c 2
 50 38 l 1
 97 237 167 437 225 631 c 0
 232 654 243 694 262 731 c 0
 270 746 278 759 286 767 c 0
 293 773 299 776 304 776 c 1
 307 774 319 772 329 759 c 0
 334 751 337 741 337 726 c 0
 337 698 326 660 316 623 c 0
 306 588 297 554 297 528 c 0
 297 520 297 512 297 504 c 1
 312 515 l 2
 410 581 513 627 625 669 c 0
 636 673 665 679 687 679 c 0
 709 679 716 673 716 668 c 0
 715 667 714 658 707 647 c 0
 678 603 618 585 553 567 c 0
 474 544 387 520 358 431 c 0
 353 415 350 399 350 383 c 0
 350 322 384 266 415 212 c 0
 446 159 475 109 475 59 c 2
 475 53 l 2
 475 42 471 35 468 31 c 0
 464 26 459 23 451 23 c 0
 430 23 397 43 385 60 c 0
 323 149 285 270 251 376 c 1
 218 376 l 1
 218 366 l 2
 214 280 180 100 128 34 c 0
 116 18 103 11 92 11 c 0
EndSplineSet
Validated: 1
EndChar

StartChar: L
Encoding: 76 76 11
Width: 751
VWidth: 865
Flags: W
HStem: 12 21G<44 94.5> 23 57<459.436 708.022> 40 60<157.903 596.192>
LayerCount: 2
Fore
SplineSet
457 100 m 0xa0
 509 100 559 98 610 93 c 0
 626 92 657 89 683 80 c 0
 704 73 714 64 714 57 c 0
 714 55 712 51 709 46 c 0
 699 31 675 23 643 23 c 0x40
 616 23 586 27 562 30 c 0
 551 32 540 33 532 34 c 0
 478 38 424 40 370 40 c 0
 259 40 149 31 40 12 c 1
 48 67 71 117 95 168 c 0
 110 199 124 230 136 263 c 0
 154 315 166 373 178 431 c 0
 201 545 225 659 294 740 c 1
 311 710 318 674 318 633 c 0
 318 513 256 359 207 236 c 0
 186 184 169 144 156 102 c 1
 196 100 237 98 277 98 c 0
 337 98 397 100 457 100 c 0xa0
EndSplineSet
Validated: 1
EndChar

StartChar: M
Encoding: 77 77 12
Width: 1001
VWidth: 866
Flags: W
HStem: 13 21G<727.5 729.5> 661 79<727.635 832.176> 688 20G<225 235.5>
VStem: 889 72<409.265 598.625>
LayerCount: 2
Fore
SplineSet
961 554 m 0xd0
 961 524 958 488 950 450 c 0
 937 383 904 322 870 262 c 0
 834 197 797 132 790 60 c 1
 775 36 748 20 707 13 c 1
 752 176 850 289 885 464 c 0
 888 480 889 496 889 511 c 0
 889 566 868 619 818 650 c 0
 807 657 795 661 783 661 c 0xd0
 761 661 739 650 719 633 c 0
 693 612 669 580 645 544 c 0
 592 463 544 360 516 298 c 0
 505 274 496 255 492 249 c 0
 488 243 485 242 484 242 c 0
 483 242 480 243 476 246 c 0
 471 250 466 256 461 264 c 0
 446 286 434 313 423 335 c 0
 396 390 346 440 301 485 c 0
 280 506 260 526 243 546 c 2
 228 563 l 1
 225 542 l 2
 196 351 141 175 60 17 c 0
 55 12 49 9 43 9 c 0
 42 9 42 9 41 9 c 0
 40 20 40 32 40 44 c 0
 40 190 131 365 162 501 c 0
 167 523 169 549 171 574 c 0
 174 619 177 669 200 693 c 0
 211 704 221 708 229 708 c 0xb0
 242 708 256 698 271 679 c 0
 289 656 306 621 319 588 c 1
 475 428 l 1
 482 434 l 2
 509 457 516 474 525 497 c 0
 534 520 545 552 586 610 c 0
 641 690 734 740 813 740 c 0
 912 740 961 666 961 554 c 0xd0
EndSplineSet
Validated: 1
EndChar

StartChar: N
Encoding: 78 78 13
Width: 1077
VWidth: 860
Flags: W
HStem: 565 165<295.518 371.263> 765 20G<997.5 1007.5>
VStem: 31 49<37.4233 118.595>
LayerCount: 2
Fore
SplineSet
324 565 m 2
 323 565 l 1
 300 560 285 545 274 525 c 0
 260 501 251 471 244 447 c 0
 225 384 198 328 168 268 c 0
 132 195 95 121 80 43 c 1
 69 39 59 37 52 37 c 0
 50 37 38 39 31 42 c 1
 41 223 160 424 228 585 c 0
 243 621 259 663 283 694 c 0
 300 716 319 730 341 730 c 0
 363 730 388 716 412 690 c 0
 442 658 471 609 498 553 c 0
 558 427 603 269 617 198 c 2
 621 180 l 1
 634 193 l 2
 759 319 831 498 909 667 c 0
 920 690 936 725 956 751 c 0
 972 772 990 785 1005 785 c 0
 1010 785 1015 783 1021 780 c 0
 1040 770 1046 755 1046 737 c 0
 1046 691 1007 631 985 595 c 0
 899 449 821 294 740 143 c 0
 722 110 704 71 679 41 c 0
 662 21 644 9 628 9 c 0
 621 9 610 14 599 26 c 0
 585 41 571 66 556 95 c 0
 523 161 490 253 464 329 c 0
 446 381 431 426 419 449 c 0
 416 456 412 465 408 475 c 0
 399 495 389 520 375 539 c 0
 364 554 350 566 331 566 c 0
 328 566 326 565 324 565 c 2
EndSplineSet
Validated: 1
EndChar

StartChar: O
Encoding: 79 79 14
Width: 999
VWidth: 860
Flags: W
HStem: 1 80<217.13 430.341> 698 91<497.63 721.621>
VStem: 40 80<191.668 406.753> 850 110<431.182 561.605>
LayerCount: 2
Fore
SplineSet
960 532 m 0
 960 436 894 336 830 262 c 0
 711 123 527 1 346 1 c 0
 269 1 192 22 121 73 c 1
 67 146 l 1
 48 192 40 239 40 284 c 0
 40 552 352 789 626 789 c 0
 737 789 838 751 912 660 c 0
 946 618 960 575 960 532 c 0
120 331 m 0
 120 262 137 177 173 126 c 0
 191 100 215 82 244 81 c 2
 260 81 l 2
 410 81 621 144 746 255 c 0
 809 311 850 379 850 459 c 0
 850 492 845 525 829 561 c 0
 786 659 709 698 622 698 c 0
 540 698 450 665 369 620 c 0
 267 563 179 486 140 425 c 0
 126 404 120 370 120 331 c 0
EndSplineSet
Validated: 1
EndChar

StartChar: P
Encoding: 80 80 15
Width: 733
VWidth: 864
Flags: W
HStem: 350 55<284.669 437.134> 711 58<370.281 569.691>
VStem: 627 65<542.297 660.183>
LayerCount: 2
Fore
SplineSet
345 350 m 0
 312 350 276 348 255 325 c 0
 223 288 207 236 192 184 c 0
 172 114 151 47 97 17 c 0
 89 12 82 10 77 10 c 0
 69 10 63 13 58 18 c 0
 48 28 41 46 39 62 c 1
 90 92 110 151 128 202 c 0
 131 210 133 219 136 227 c 0
 157 285 171 348 185 412 c 0
 207 510 229 608 275 689 c 0
 303 740 382 769 467 769 c 0
 582 769 692 717 692 614 c 0
 692 613 692 598 691 589 c 0
 671 458 528 382 422 353 c 0
 411 350 397 349 381 349 c 0
 369 349 357 350 345 350 c 0
473 710 m 0
 416 708 379 698 353 679 c 0
 321 655 308 621 293 578 c 0
 289 567 286 555 281 543 c 0
 275 528 269 505 269 480 c 0
 269 446 283 405 330 405 c 0
 331 405 331 405 332 405 c 2
 333 405 l 2
 427 408 549 463 604 540 c 0
 621 563 627 586 627 606 c 0
 627 672 552 711 480 711 c 0
 477 711 475 710 473 710 c 0
EndSplineSet
Validated: 1
EndChar

StartChar: Q
Encoding: 81 81 16
Width: 678
VWidth: 865
Flags: W
HStem: -44 290<451 543.5> 5 81<199.943 323.002> 214 71<262.902 392.252> 631 66<309.776 489.054>
VStem: 41 75<178.25 415.855> 403 77<115.723 152.073> 572 68<350.538 560.924>
LayerCount: 2
Fore
SplineSet
116 290 m 0x9e
 116 211 143 136 207 95 c 1
 208 94 l 1
 234 89 261 86 284 86 c 0
 329 86 367 95 384 119 c 0
 397 138 403 153 403 167 c 0
 403 175 401 183 397 189 c 0
 383 210 352 214 323 214 c 0
 286 214 248 206 229 200 c 1
 229 201 229 201 229 202 c 0
 250 261 278 285 308 285 c 0x7e
 332 285 359 275 387 265 c 0
 413 256 439 246 463 246 c 0
 485 246 505.287109375 254.815429688 520 278 c 0
 553 330 572 393 572 462 c 0
 572 519 562.729912933 573.439273186 500 604 c 0
 461 623 425 631 389 631 c 0
 224 631 116 447 116 290 c 0x9e
41 277 m 0
 41 278 41 278 41 279 c 0
 41 295 38 309 38 326 c 0
 38 391 79 498 120 554 c 0
 172 627 312 697 429 697 c 0
 472 697 509 689 540 668 c 0
 611 621 640 548 640 470 c 0
 640 404 618 334 585 277 c 0
 552 219 480 154 480 76 c 0
 480 63 483 50 487 37 c 0
 499 1 531 -14 558 -28 c 0
 565 -32 572 -35 578 -39 c 1
 564 -43 550 -44 537 -44 c 0x9e
 482 -44 439 -13 433 56 c 2
 432 70 l 1
 419 64 l 1
 419 64 286 5 230 5 c 0
 224 5 220 5 216 7 c 0
 158 27 126 55 107 81 c 1
 87 98 71 114 64 127 c 0
 57 140 54 153 54 169 c 0
 54 206 41 240 41 277 c 0
EndSplineSet
Validated: 1
EndChar

StartChar: R
Encoding: 82 82 17
Width: 736
VWidth: 860
Flags: W
HStem: 11 21G<564 601> 352 54<319.303 382.929> 729 55<460.123 576.907>
VStem: 624 66<534.445 683.28>
LayerCount: 2
Fore
SplineSet
514 729 m 0
 460 729 411 687 373 636 c 0
 325 572 292 490 291 442 c 2
 291 434 l 1
 299 432 l 2
 342 424 387 406 434 406 c 0
 458 406 485 411 510 424 c 0
 566 453 624 538 624 614 c 0
 624 648 612 681 582 704 c 0
 560 721 536 729 514 729 c 0
600 11 m 0
 528 47 467 117 438 193 c 0
 433 206 430 221 426 237 c 0
 415 285 402 344 333 351 c 1
 331 351 330 352 327 352 c 0
 297 352 276 333 260 308 c 0
 240 276 228 232 215 189 c 0
 202 147 190 104 173 77 c 0
 160 55 145 44 126 44 c 0
 119 44 111 45 102 49 c 0
 61 66 46 109 46 163 c 0
 46 228 69 302 82 343 c 0
 145 540 326 754 538 784 c 0
 539 784 l 0
 550 786 560 786 570 786 c 0
 620 786 651 767 669 738 c 0
 684 714 690 683 690 649 c 0
 690 560 644 454 594 418 c 0
 536 375 515 324 515 273 c 0
 515 207 549 143 575 92 c 0
 592 58 606 31 606 16 c 0
 605 15 602 12 600 11 c 0
EndSplineSet
Validated: 1
EndChar

StartChar: S
Encoding: 83 83 18
Width: 713
VWidth: 862
Flags: W
HStem: 11 91<88.875 341.232> 607 21G<574.5 594> 727 41<416.673 542.978>
VStem: 242 106<574.195 667.497> 575 53<642.08 700.734> 579 93<179.293 288.196>
LayerCount: 2
Fore
SplineSet
344 94 m 0xf4
 425 94 506 108 558 179 c 0
 572 198 579 219 579 239 c 0xf4
 579 273 561 304 534 334 c 0
 469 407 346 479 282 551 c 0
 257 579 242 605 242 631 c 2
 242 639 l 1
 251 732 335 768 426 768 c 0
 493 768 563 747 600 718 c 0
 619 703 628 688 628 673 c 0
 628 655 614 631 574 607 c 1
 575 617 575 626 575 634 c 0xf8
 575 691 544 727 490 727 c 0
 447 727 400 704 372 673 c 0
 358 657 348 639 348 619 c 0
 348 586 366 555 392 526 c 0
 424 490 470 455 514 421 c 0
 572 376 627 332 648 293 c 0
 665 260 672 232 672 207 c 0
 672 160 647 123 605 94 c 0
 520 35 369 11 246 11 c 0
 204 11 166 13 135 18 c 0
 126 19 104 27 87 33 c 0
 74 38 63 41 60 43 c 0
 55 45 49 47 44 49 c 1
 62 91 105 102 166 102 c 0
 223 102 285 94 344 94 c 0xf4
EndSplineSet
Validated: 1
EndChar

StartChar: T
Encoding: 84 84 19
Width: 653
VWidth: 860
Flags: W
HStem: 690.394 93.6061<57.7061 246 346 620.254>
LayerCount: 2
Fore
SplineSet
400 784 m 0
 465 784 528 782 584 775 c 0
 604 773 617 766 627 757 c 0
 638 747 646 734 653 715 c 1
 592.40250758 691.221237152 514.153728087 690.389147499 430.890566401 690.389147499 c 0
 424.624799277 690.389147499 418.330635958 690.393859581 412.013461682 690.393859581 c 0
 392.837464978 690.393859581 373.449434583 690.350440263 354 690 c 2
 346 690 l 1
 344 682 l 2
 287.587890625 456.352539062 234 216 158 12 c 1
 79 10 l 1
 132 226 163 441 241 678 c 2
 246 691 l 1
 232 691 l 2
 159 691 83 698 1 731 c 1
 21 777 57 777 114 778 c 0
 207 779 306 784 400 784 c 0
EndSplineSet
Validated: 1
EndChar

StartChar: U
Encoding: 85 85 20
Width: 898
VWidth: 870
Flags: W
HStem: 0 71<254.84 438.93> 634 66G<174 211 829.5 840.5>
VStem: 41 129<153.219 347.826>
LayerCount: 2
Fore
SplineSet
203 654 m 1
 219 648 231 641 238 634 c 0
 249 623 253 611 253 593 c 0
 253 579 250 561 244 540 c 0
 238 528 170 383 170 256 c 0
 170 139 229 71 355 71 c 2
 369 71 l 1
 406 72 440 87 472 101 c 0
 491 109 524 137 558 168 c 1
 629 274 693 426 741 541 c 0
 762 590 780 632 794 661 c 0
 800 674 806 684 810 690 c 0
 814 696 816 697 816 697 c 1
 822 699 827 700 832 700 c 0
 849 700 857 681 857 647 c 0
 857 622 851 592 846 577 c 0
 842 566 839 555 835 543 c 0
 793 416 731 227 645 145 c 1
 572 57 427 0 297 0 c 0
 195 0 106 35 66 114 c 0
 49 150 41 186 41 225 c 0
 41 369 145 530 203 654 c 1
EndSplineSet
Validated: 1
EndChar

StartChar: V
Encoding: 86 86 21
Width: 775
VWidth: 861
Flags: W
HStem: 13 21G<235 284> 718 20G<74 94.5> 758 20G<702.5 714.5>
LayerCount: 2
Fore
SplineSet
344 237 m 0
 357 237 365 247 372 258 c 0
 400 305 429 363 458 425 c 0
 501 514 546 610 596 677 c 0
 613 699 632 726 658 750 c 0
 676 767 695 778 710 778 c 0
 719 778 727 775 735 765 c 0
 741 758 744 750 744 741 c 0
 744 726 736 706 723 685 c 0
 707 659 684 632 664 609 c 0
 649 592 637 577 630 565 c 0
 600 517 570 455 540 390 c 0
 499 300 455 203 400 129 c 0
 358 73 312 31 256 13 c 1
 214 159 195 324 145 464 c 0
 136 488 107 536 80 579 c 0
 60 610 42 639 36 652 c 0
 33 660 31 668 31 675 c 0
 31 707 60 738 88 738 c 0
 101 738 116 731 130 712 c 0
 168 658 204 550 236 452 c 0
 256 391 275 333 293 293 c 0
 301 275 309 261 318 251 c 0
 325 243 334 237 344 237 c 0
EndSplineSet
Validated: 1
EndChar

StartChar: W
Encoding: 87 87 22
Width: 906
VWidth: 861
HStem: 707 20G<470 480.5 856.5 857.5> 752 20G<56.5 59>
LayerCount: 2
Fore
SplineSet
474 727 m 2
 477 727 l 1
 484 725 496 713 507 689 c 0
 521 659 536 613 548 560 c 0
 577 437 597 283 607 175 c 1
 635 175 l 1
 637 183 l 2
 675 355 748 500 802 659 c 0
 811 683 827 733 848 753 c 0
 852 757 856 758 857 758 c 0
 858 758 861 757 868 746 c 0
 872 737 875 727 875 716 c 0
 875 668 847 606 833 563 c 0
 772 373 705 190 620 22 c 1
 577 10 l 1
 453 505 l 1
 445 505 l 1
 433 505 l 1
 427 505 l 1
 210 75 l 1
 158 75 l 1
 156 236 142 381 99 529 c 0
 92 554 87 576 83 598 c 0
 74 644 66 686 33 718 c 1
 38 747 44 762 50 768 c 0
 53 771 56 772 57 772 c 0
 61 772 69 767 78 755 c 0
 89 740 101 718 110 693 c 0
 158 565 192 414 206 269 c 2
 210 227 l 1
 253 339 308 477 369 593 c 0
 392 637 415 675 435 699 c 0
 452 719 466 727 474 727 c 2
EndSplineSet
Validated: 1
EndChar

StartChar: X
Encoding: 88 88 23
Width: 837
VWidth: 860
Flags: W
HStem: 13 21G<625.5 637.5> 735 20G<238.5 244.5> 756 20G<763 773.5>
VStem: 433 96<229.22 326>
LayerCount: 2
Fore
SplineSet
457 493 m 2
 517 507 561 565 607 625 c 0
 653 684 701 746 763 776 c 0
 764 777 765 776 768 776 c 0
 779 776 792 762 792 729 c 0
 792 702 775 676 745 647 c 0
 579 489 529 415 529 327 c 0
 529 249 571 185 606 131 c 0
 632 91 653 54 653 29 c 0
 653 25 646 19 629 13 c 0
 627 13 l 0
 624 13 611 19 595 33 c 0
 547 75 487 163 456 221 c 0
 441 249 433 272 433 279 c 0
 433 295 433 310 433 326 c 1
 424 315 416 302 407 291 c 0
 357 228 224 86 93 21 c 0
 91 20 82 20 73 20 c 2
 59 20 l 2
 54 20 49 19 45 18 c 1
 52 101 117 155 187 214 c 0
 248 265 313 319 336 399 c 0
 339 412 344 424 344 439 c 0
 344 442 343 443 343 445 c 0
 343 446 l 0
 334 501 299 538 268 571 c 0
 238 603 210 633 202 670 c 0
 201 673 201 678 201 684 c 0
 201 707 209 732 222 745 c 0
 228 751 234 755 243 755 c 0
 246 755 256 753 261 751 c 0
 269 748 281 735 295 715 c 0
 312 690 331 657 348 623 c 0
 365 590 383 553 400 529 c 0
 413 510 429 492 450 492 c 0
 453 492 455 493 457 493 c 2
EndSplineSet
Validated: 1
EndChar

StartChar: Y
Encoding: 89 89 24
Width: 604
VWidth: 863
Flags: W
HStem: 726 20G<542.5 548> 747 20G<214.5 222.5>
VStem: 116 100<406.418 648.15>
LayerCount: 2
Fore
SplineSet
38 56 m 0
 38 84 62 111 91 141 c 0
 116 167 144 195 155 232 c 0
 160 246 160 263 160 279 c 0
 160 280 160 280 160 281 c 0
 160 329 149 384 133 416 c 0
 122 439 116 473 116 511 c 0
 116 588 140 679 175 730 c 0
 190 751 207 764 222 767 c 1
 223 761 223 752 223 740 c 0
 223 718 222 688 220 655 c 0
 218 616 216 572 216 532 c 0
 216 490 218 452 225 424 c 0
 231 404 242 380 267 380 c 2
 269 380 l 2
 269 380 276 381 279 382 c 0
 287 384 294 390 299 395 c 0
 306 402 314 414 321 424 c 0
 368 496 424 619 475 683 c 0
 489 699 499 715 516 730 c 0
 528 740 539 746 546 746 c 0
 550 746 556 744 563 736 c 0
 564 735 566 730 566 722 c 0
 566 693 544 632 506 560 c 0
 459 470 389 363 316 267 c 0
 258 191 199 123 147 78 c 0
 105 41 69 22 50 22 c 0
 49 22 49 22 49 22 c 0
 49 22 48 22 47 22 c 0
 40 35 38 46 38 56 c 0
EndSplineSet
Validated: 1
EndChar

StartChar: Z
Encoding: 90 90 25
Width: 851
VWidth: 862
Flags: W
HStem: 33 94<483.01 786.217> 44 83<519.366 786.217> 665 102<469.63 651>
LayerCount: 2
Fore
SplineSet
734 767 m 0xa0
 758 767 776 766 789 764 c 0
 791 764 793 763 795 762 c 1
 796 760 l 2
 797 757 800 756 800 753 c 0
 800 747 795 731 785 711 c 0
 773 686 756 657 732 622 c 0
 679 544 602 448 526 361 c 0
 465 291 407 229 360 186 c 0
 339 167 321 151 307 141 c 0
 296 133 287 130 287 130 c 2
 281 130 l 1
 284 100 l 1
 436 106 587 113 738 127 c 1
 742 127 l 2xa0
 763 127 800 105 800 73 c 0
 800 68 799 67 799 66 c 0
 797 58 790 50 765 44 c 0x60
 736 35 699 34 669 33 c 0
 668 33 668 33 667 33 c 0
 654 33 643 33 635 32 c 0
 445 13 257 17 59 15 c 1
 88 101 131 132 189 174 c 0
 205 185 221 198 237 210 c 0
 384 325 527 492 634 642 c 0
 640 650 645 657 651 665 c 1
 180 675 l 1
 179 680 178 687 178 693 c 0
 178 702 179 708 180 713 c 1
 261 725 577 767 734 767 c 0xa0
EndSplineSet
Validated: 1
EndChar

StartChar: a
Encoding: 97 97 26
Width: 770
VWidth: 719
Flags: W
HStem: 1 61<489.854 601.915> 12 94<155.564 287.467> 500 59<385.759 512.433>
VStem: 33 96<130.081 246.452> 518 79<373.437 493.217>
LayerCount: 2
Fore
SplineSet
464 500 m 2x78
 463 500 l 2
 415 500 358 469 305 427 c 0
 239 375 179 306 152 259 c 0
 141 238 134 208 131 193 c 0
 130 187 130 186 129 184 c 2
 129 182 l 2
 129 133 166 108 218 106 c 0
 221 106 223 106 226 106 c 0
 355 106 439 231 480 336 c 0
 494 370 518 414 518 453 c 0
 518 485 499 500 464 500 c 2x78
727 128 m 0
 731 128 734 128 738 127 c 1
 707 63 606 1 502 1 c 0xb8
 485 1 470 3 453 6 c 0
 433 10 419 16 409 25 c 0
 396 36 388 51 384 74 c 2
 381 89 l 1
 368 80 l 2
 336 56 309 42 270 26 c 0
 247 17 222 12 199 12 c 0x78
 113 12 33 70 33 162 c 0
 33 172 34 182 36 193 c 0
 50 269 128 374 225 452 c 0
 302 514 392 559 468 559 c 0
 491 559 514 555 534 546 c 0
 580 525 597 494 597 457 c 0
 597 406 564 342 534 282 c 0
 504 224 476 168 476 124 c 0
 476 105 482 90 492 77 c 0
 501 66 514 62 528 62 c 0xb8
 556 62 592 79 628 95 c 0
 662 110 700 128 727 128 c 0
EndSplineSet
Validated: 1
EndChar

StartChar: b
Encoding: 98 98 27
Width: 556
VWidth: 864
Flags: W
HStem: 0 81<133.094 240.699> 328 69<289.694 421.965> 740 20G<296.5 335>
VStem: 38 87<82.1428 171.484> 445 73<194.562 306.477>
LayerCount: 2
Fore
SplineSet
445 249 m 0
 445 258 443 267 440 276 c 0
 429 308 409 328 370 328 c 0
 298 328 197 256 171 218 c 0
 160 202 147 178 138 153 c 0
 131 133 125 115 125 101 c 0
 125 100 l 0
 125 91 126 85 133 82 c 0
 135 81 137 81 138 81 c 0
 139 81 139 81 139 81 c 0
 141 81 143 81 145 81 c 0
 148 82 151 82 155 83 c 0
 191 90 277 107 345 140 c 0
 400 166 445 200 445 249 c 0
367 397 m 0
 458 397 518 334 518 260 c 0
 518 226 506 192 480 158 c 0
 451 121 397 86 339 58 c 0
 266 24 184 2 125 0 c 2
 124 -0 l 2
 116 -1 107 -1 100 -1 c 0
 76 -1 62 4 54 15 c 0
 47 24 44 35 40 50 c 0
 39 61 38 72 38 84 c 0
 38 199 94 322 147 436 c 0
 174 494 202 550 220 610 c 0
 241 672 264 736 329 760 c 1
 341 735 346 709 346 684 c 0
 346 615 307 545 269 479 c 0
 248 442 228 406 215 370 c 2
 207 350 l 1
 227 357 l 2
 266 371 309 392 353 396 c 0
 358 396 363 397 367 397 c 0
EndSplineSet
Validated: 1
EndChar

StartChar: c
Encoding: 99 99 28
Width: 594
VWidth: 719
Flags: W
HStem: 1 75<166.915 389.762> 497 44<403.53 512.911>
VStem: 37 91<109.677 240.225>
LayerCount: 2
Fore
SplineSet
536 438 m 0
 532 438 530.150390625 439.083007812 529 441 c 0
 526 446 518 450 516 463 c 0
 514 474 513 486 511 497 c 1
 507 497 504 497 500 497 c 0
 449 497 394.725585938 478.380859375 339 438 c 0
 270 388 206 321 170 273 c 0
 150 246 128 203 128 163 c 0
 128 144 132 126 147 112 c 0
 172 85 207 76 245 76 c 0
 317 76 404 108 474 108 c 0
 489 108 504 106 517 102 c 1
 478 35 385 1 292 1 c 0
 169 1 37 62 37 178 c 0
 37 199 41 221 49 246 c 0
 92 369 241 488 363 529 c 0
 385 536 410 541 435 541 c 0
 492 541 557 518 557 457 c 0
 557 456 l 0
 557 451 557 447 556 441 c 1
 555 441 547 438 539 438 c 0
 538 438 537 438 536 438 c 0
EndSplineSet
Validated: 1
EndChar

StartChar: d
Encoding: 100 100 29
Width: 823
VWidth: 864
Flags: W
HStem: 0 82<125.5 279.15> 25 74<510.598 586.012> 328.374 92.6263<248.349 441.922> 745 20G<754.5 762.5>
VStem: 33 101.805<108.352 215.993> 451.01 54.9904<199.556 217.61>
LayerCount: 2
Fore
SplineSet
443 314 m 1xbc
 442 319 l 1
 437 320 l 1
 416.941176471 327.117647059 390.183391003 328.373702422 366.479544067 328.373702422 c 0
 353.55017301 328.373702422 341.529411765 328 332 328 c 0
 260 328 202 290 153 216 c 0
 142 200 137 185 137 170 c 0
 137 161.6 134.8048 148.496 134.8048 135.605248 c 0
 134.8048 125.4768 136.16 115.48 141 108 c 0
 149 94 178 82 197 82 c 0
 223 82 255.166992188 90.583984375 278 100 c 0
 374.376716098 139.742975711 451.009630717 182.447521643 451.009630717 269.309202485 c 0
 451.009630717 283.580506827 448.241509667 297.227169064 443 314 c 1xbc
481 404 m 0
 485 404 487 405 489 405 c 2
 491 405 l 1
 494 406 l 1
 510 416 544.448242188 404.749023438 565 442 c 0
 597 500 634 576 666 642 c 0
 688 687 706 723 717 737 c 0
 721 743 729 750 738 757 c 0
 744 762 751 765 758 765 c 0
 767 765 775 761 781 751 c 0
 787 743 790 733 790 721 c 0
 790 686 765 641 752 618 c 0
 684 501 623 378 553 262 c 0
 533 230 506 184 506 147 c 0
 506 140 507 132 508 126 c 0
 514 110 528 105 536 103 c 0
 542 101 541 101 544 99 c 2
 547 99 l 2
 585 99 638 134 673 149 c 0
 682 153 687 154 693 154 c 2
 695 154 l 2
 701 154 703 148 703 140 c 0
 703 123 694 100 694 99 c 0x7c
 683 93 672 88 661 82 c 0xbc
 594 48 552 25 468 25 c 2
 447 25 l 1x7c
 438 36 422 41 399 41 c 0
 366 41 322 31 276 21 c 0
 229 11 176 0 137 0 c 0
 114 0 93 3 79 12 c 0
 52 30 33 87 33 124 c 0
 33 158 41.48828125 192.241210938 53 216 c 0
 100 313 197 412 310 421 c 1
 314 421 l 2
 351 421 443 404 481 404 c 0
EndSplineSet
Validated: 1
EndChar

StartChar: e
Encoding: 101 101 30
Width: 732
VWidth: 697
Flags: W
HStem: -1 73<147.26 416> 121 76<630 683.788> 485 60<409.722 512.668>
VStem: 30 82<103.515 226.708> 521 93<375.936 476.196>
LayerCount: 2
Fore
SplineSet
279 -1 m 0
 258 -1 236 0 214 3 c 0
 80 19 30 73 30 141 c 0
 30 203 71 276 130 341 c 0
 204 423 305 495 386 520 c 0
 418 530 471 545 517 545 c 0
 563 545 603 529 612 477 c 0
 613 468 614 461 614 452 c 0
 614 397 587 343 548 298 c 0
 499 241 433 199 372 185 c 0
 347 179 323 175 299 175 c 0
 248 175 203 194 186 250 c 1
 185 250 l 1
 211 255 239 258 263 261 c 0
 337 270 404 277 470 340 c 0
 503 371 521 410 521 440 c 0
 521 451 519 463 513 471 c 0
 506 481 494 486 479 486 c 0
 476 486 473 485 471 485 c 2
 470 485 l 2
 453 483 423 470 387 452 c 0
 342 429 289 395 240 353 c 0
 170 294 112 221 112 149 c 0
 112 92 176 72 256 72 c 0
 370 72 517 111 558 133 c 0
 589 149 622 197 660 197 c 2
 661 197 l 2
 689 196 702 185 702 172 c 0
 701 170 699 159 694 152 c 0
 684 140 664 129 635 121 c 2
 630 120 l 1
 629 115 l 1
 615 76 572 50 529 33 c 0
 472 10 416 4 416 4 c 1
 415 4 l 2
 370 3 325 -1 279 -1 c 0
EndSplineSet
Validated: 1
EndChar

StartChar: f
Encoding: 102 102 31
Width: 570
VWidth: 862
Flags: W
HStem: 0 21G<-18.5 73> 748 20G<476.5 495.5>
LayerCount: 2
Fore
SplineSet
588.5 743 m 1
 562.5 716 525.5 710 499.5 706 c 0
 494.5 705 490.5 705 485.5 704 c 0
 456.5 698 426.5 670 400.5 631 c 0
 366.5 582 342.5 523 322.5 468 c 1
 352.5 476 389.5 485 428.5 485 c 0
 450.5 485 466.5 482 471.5 473 c 0
 472.5 471 474.5 466 474.5 463 c 2
 474.5 462 l 2
 474.5 461 474.5 458 473.5 455 c 0
 460.5 415 408.5 404 354.5 397 c 0
 337.5 395 321.5 392 309.5 389 c 0
 303.5 387 298.5 385 295.5 383 c 0
 293.5 381 290.5 379 288.5 376 c 0
 277.5 358 262.5 328 244.5 293 c 0
 206.5 221 161.5 132 124.5 70 c 0
 111.5 49 97.5 27 88.5 15 c 0
 84.5 10 79.5 5 77.5 3 c 0
 75.5 1 75.5 0 70.5 0 c 2
 -17.5 0 l 2
 -18.5 0 l 0
 -18.5 1 l 2
 -18.5 2 l 2
 -18.5 3 -17.5 5 -16.5 8 c 0
 -12.5 19 -9.5 28 -4.5 39 c 0
 6.5 64 22.5 97 41.5 134 c 0
 82.5 215 125.5 296 161.5 361 c 1
 135.5 350 l 2
 102.5 337 58.5 330 29.5 330 c 0
 21.5 330 15.5 331 9.5 332 c 0
 5.5 333 4.5 333 2.5 335 c 0
 1.5 337 0.5 339 0.5 340 c 0
 0.5 403 65.5 418 121.5 429 c 0
 140.5 433 159.5 438 173.5 443 c 0
 183.5 447 193.5 451 199.5 460 c 0
 213.5 480 225.5 505 238.5 530 c 0
 287.5 628 340.5 746 449.5 765 c 0
 456.5 766 476.5 768 476.5 768 c 0
 514.5 768 553.5 755 588.5 743 c 1
EndSplineSet
Validated: 1
EndChar

StartChar: g
Encoding: 103 103 32
Width: 647
VWidth: 860
Flags: W
HStem: -201 82<116.772 180.76> 334 56<236.91 329.934> 576 58<333.054 432.624>
VStem: 48 64<-109.936 11.4247> 154 63<419.376 476.623> 446 94<505.4 570.05>
LayerCount: 2
Fore
SplineSet
419 634 m 0
 424 634 428 633 433 633 c 0
 464 630 540 606 540 567 c 0
 540 526 508 488 477 453 c 0
 463 437 449 421 438 404 c 2
 414 366 l 1
 451 390 l 2
 496 419 543 439 569 494 c 1
 586 484 599 462 599 442 c 0
 599 430 595 419 585 409 c 0
 523 347 444 332 397 253 c 0
 368 203 352 145 336 85 c 0
 315 4 294 -76 239 -140 c 0
 202 -183 169 -201 141 -201 c 0
 121 -201 105 -192 91 -178 c 0
 63 -150 48 -100 48 -52 c 0
 48 -31 52 -10 58 8 c 0
 83 82 119 164 177 216 c 0
 197 234 220 244 243 254 c 0
 280 270 312 286 326 326 c 2
 332 343 l 1
 315 339 294 334 275 334 c 0
 265 334 254 335 244 337 c 0
 193 346 154 401 154 456 c 0
 154 476 159 498 171 516 c 0
 221 594 342 634 419 634 c 0
112 -74 m 0
 112 -86 113 -96 118 -104 c 0
 123 -112 133 -119 148 -119 c 0
 155 -119 162 -116 170 -109 c 0
 180 -101 188 -87 197 -74 c 0
 218 -43 235 -4 241 10 c 0
 267 71 276 106 288 152 c 0
 293 171 300 195 305 215 c 1
 284 204 l 2
 250 186 216 150 187 108 c 0
 143 46 112 -27 112 -74 c 0
402 576 m 0
 379 576 349 563 318 547 c 0
 280 527 244 499 227 477 c 0
 221 469 219 458 218 453 c 0
 218 451 218 451 217 450 c 2
 217 448 l 2
 217 437 221 427 228 419 c 0
 242 403 265 391 289 390 c 0
 290 390 291 390 292 390 c 0
 360 390 398 443 431 494 c 0
 440 508 446 524 446 539 c 0
 446 551 442 562 433 568 c 0
 425 574 416 576 402 576 c 0
EndSplineSet
Validated: 1
EndChar

StartChar: h
Encoding: 104 104 33
Width: 369
VWidth: 860
Flags: W
HStem: 11 58<262.893 341.925> 239 87<160.715 238.194>
VStem: 223.749 72.0107<79.1399 171.411> 251.084 77.4893<143.007 262.252>
LayerCount: 2
Fore
SplineSet
-32.64453125 47 m 0xd0
 -32.9716796875 49.33984375 -33.2353515625 51.6689453125 -33.4375 53.98828125 c 0
 -33.79296875 58.0537109375 -33.9619140625 62.087890625 -33.9619140625 66.091796875 c 0
 -33.9619140625 115.4609375 -8.203125 160.197265625 11.8115234375 201 c 0
 87.38671875 347 138.86328125 508 207.87890625 658 c 0
 234.485351562 718 270.153320312 799 345.174804688 806 c 1
 261.44921875 561 l 1
 159.702148438 309 l 1
 180.143554688 313 l 2
 203.443359375 318 231.32421875 326 255.32421875 326 c 0
 260.32421875 326 266.46484375 325 269.603515625 324 c 0
 302.443359375 318 322.822265625 301 327.438476562 268 c 0
 327.704101562 266.10546875 327.919921875 264.188476562 328.088867188 262.251953125 c 0
 328.418945312 258.484375 328.573242188 254.639648438 328.573242188 250.733398438 c 0xd0
 328.573242188 204.686523438 307.125976562 149.991210938 298.40234375 111 c 0
 296.661132812 102 294.780273438 94 295.759765625 87 c 0
 296.1796875 84 296.458984375 82 296.87890625 79 c 1
 300.297851562 76 l 2
 304.858398438 72 312.27734375 69 320.27734375 69 c 0
 335.27734375 69 353.159179688 77 369.0390625 85 c 0
 388.640625 95 401.1015625 106 402.961914062 107 c 1
 402.48046875 89 387.41796875 68 365.936523438 50 c 0
 339.013671875 28 305.392578125 11 275.392578125 11 c 0
 250.392578125 11 235.993164062 21 228.1953125 41 c 0
 226.098632812 46.3759765625 224.637695312 50.5126953125 224.086914062 56.8037109375 c 0
 223.857421875 59.427734375 223.749023438 62.1552734375 223.749023438 64.97265625 c 0xe0
 223.749023438 87.60546875 230.737304688 116.013671875 237.92578125 143 c 0
 244.7734375 167.99609375 251.083984375 191.506835938 251.083984375 209.049804688 c 0
 251.083984375 210.927734375 251.01171875 212.737304688 250.859375 214.473632812 c 0
 250.563476562 217.852539062 248.778320312 222.685546875 248.59375 224 c 0
 246.334960938 233 238.194335938 234 238.194335938 234 c 2
 237.194335938 234 237.055664062 235 236.055664062 235 c 0
 225.775390625 237 210.495117188 239 195.495117188 239 c 0
 172.495117188 239 148.055664062 235 128.573242188 217 c 0
 108.091796875 199 84.5263671875 153 60.8212890625 108 c 0
 46.5986328125 81 27.4951171875 46 13.4326171875 25 c 0
 3.53125 10 -11.328125 9 -19.328125 9 c 0
 -21.328125 9 -21.328125 9 -22.46875 10 c 0
 -27.287109375 23 -30.9658203125 35 -32.64453125 47 c 0xd0
EndSplineSet
Validated: 1
EndChar

StartChar: i
Encoding: 105 105 34
Width: 320
VWidth: 861
Flags: W
HStem: 602 20G<204 211.5> 715 102<245.064 305.151>
LayerCount: 2
Fore
SplineSet
207.5 622 m 2
 208.5 622 l 2
 214.5 622 222.5 621 229.5 616 c 0
 238.5 607 247.5 593 247.5 577 c 0
 247.5 575 242.5 527 236.5 489 c 0
 222.5 441 206.5 391 202.5 381 c 0
 195.5 363 188.5 342 181.5 316 c 0
 166.5 259 128.5 121 98.5 70 c 0
 74.5 29 43.5 1 0.5 1 c 2
 -1.5 1 l 2
 -6.5 1 -10.5 1 -15.5 2 c 1
 -13.5 67 34.5 194 55.5 249 c 0
 70.5 288 78.5 328 94.5 367 c 0
 97.5 375 99.5 382 103.5 395 c 0
 117.5 437 136.5 497 158.5 549 c 0
 168.5 571 177.5 592 186.5 605 c 0
 193.5 616 200.5 622 207.5 622 c 2
287.5 817 m 0
 296.5 817 308.5 815 318.5 813 c 0
 326.5 811 335.5 800 335.5 786 c 0
 335.5 777 332.5 766 324.5 757 c 0
 324.5 757 317.5 749 308.5 740 c 0
 301.5 733 295.5 727 289.5 725 c 0
 281.5 721 267.5 718 261.5 717 c 0
 256.5 716 251.5 715 245.5 715 c 0
 233.5 715 219.5 719 219.5 733 c 2
 219.5 734 l 2
 219.5 735 l 0
 219.5 738 219.5 740 221.5 744 c 0
 239.5 794 251.5 817 287.5 817 c 0
EndSplineSet
Validated: 1
EndChar

StartChar: j
Encoding: 106 106 35
Width: 471
VWidth: 861
Flags: W
HStem: -190 66<-2.53585 107.047> 591 20G<472.781 478.781> 720.75 93.5<443.654 513.662>
VStem: 434.868 93.0293<734.334 803.658> 449.73 78.167<734.334 767.157>
LayerCount: 2
Fore
SplineSet
54.8017578125 -124 m 0xe0
 68.8017578125 -124 81.4873046875 -118 94.1201171875 -111 c 0
 109.6484375 -102 123.01953125 -90 131.495117188 -80 c 0
 179.717773438 -27 224.6953125 107 258.716796875 202 c 0
 273.567382812 243 286.576171875 281 299.108398438 309 c 0
 316.012695312 349 382.579101562 529 382.579101562 529 c 0
 388.635742188 547 408.325195312 572 431.434570312 589 c 0
 449.701171875 603 468.28125 611 477.28125 611 c 0
 480.28125 611 480.333984375 610 480.333984375 610 c 2
 480.333984375 610 481.38671875 609 481.543945312 606 c 0
 481.701171875 603 481.805664062 601 480.962890625 598 c 0
 468.369140625 533 415.278320312 363 388.318359375 305 c 0
 368.51953125 263 346.188476562 193 327.913085938 141 c 0
 301.84375 66 273.984375 -13 238.180664062 -74 c 0
 209.749023438 -123 175.6875 -160 134.526367188 -176 c 0
 114.9453125 -184 91.259765625 -190 67.259765625 -190 c 0
 38.259765625 -190 7.8935546875 -183 -14.7880859375 -170 c 0
 -32.3125 -160 -55.779296875 -132 -56.8798828125 -111 c 0
 -57.2470703125 -104 -55.4560546875 -100 -49.8232421875 -93 c 0
 -45.1376953125 -87 -40.2421875 -85 -36.2421875 -85 c 0
 -21.2421875 -85 3.015625 -109 18.3818359375 -116 c 0
 29.6962890625 -122 42.8017578125 -124 54.8017578125 -124 c 0xe0
527.897460938 775.75 m 0xf0
 528.243164062 769.150390625 525.461914062 759.25 519.323242188 750.450195312 c 0
 512.200195312 739.450195312 502.760742188 730.650390625 500.618164062 729.549804688 c 0
 493.263671875 722.950195312 487.879882812 720.75 480.180664062 720.75 c 0
 471.379882812 720.75 460.1484375 725.150390625 449.73046875 735.049804688 c 0xe8
 437.745117188 746.438476562 434.868164062 756.30859375 434.868164062 767.689453125 c 0
 434.868164062 791.260742188 458.348632812 814.25 484.080078125 814.25 c 1
 492.125976562 807.650390625 515.283203125 806.549804688 525.3515625 782.349609375 c 0
 526.567382812 780.150390625 527.83984375 776.849609375 527.897460938 775.75 c 0xf0
EndSplineSet
Validated: 1
EndChar

StartChar: k
Encoding: 107 107 36
Width: 608
VWidth: 865
Flags: W
HStem: 41 52<341.331 518.168> 733 20G<478.5 485.5>
LayerCount: 2
Fore
SplineSet
588 412 m 0
 588 408 586 405 586 403 c 2
 585 395 579 388 569 381 c 0
 557 373 542 366 527 360 c 0
 519 357 511 354 505 351 c 0
 431 313 372 270 360 262 c 1
 351 260 344 255 338 248 c 0
 324 233 314 206 314 180 c 0
 314 163 316 146 327 132 c 0
 340 114 352 99 386 93 c 0
 387 93 l 0
 401 91 415 90 429 90 c 0
 475 90 520 104 561 121 c 1
 559 116 l 2
 547 62 489 41 426 41 c 0
 383 41 337 53 308 69 c 0
 300 74 286 88 276 98 c 0
 266 109 255 120 243 129 c 0
 234 136 224 141 213 141 c 2
 209 141 l 1
 152 134 120 86 97 51 c 0
 92 43 86 34 81 28 c 0
 65 9 39 6 25 6 c 0
 24 6 23 6 22 6 c 0
 21 11 20 17 20 21 c 2
 20 22 l 2
 20 72 43 129 61 171 c 0
 128 325 231 479 330 617 c 0
 350 646 413.715820312 717.029296875 457 743 c 0
 467 749 475 753 482 753 c 0
 489 753 495 751 500 740 c 0
 502 736 504 731 504 726 c 0
 504 714 497 699 486 683 c 0
 473 664 454 644 439 628 c 0
 434 623 428.170898438 617.858398438 424 613 c 0
 339 514 277 424 241 297 c 1
 237 279 l 1
 253 288 l 2
 352 344 376.279296875 384.803710938 509 421 c 0
 520 424 542 431 561 431 c 0
 569 431 575 430 579 428 c 0
 584 426 588 422 588 412 c 0
EndSplineSet
Validated: 1
EndChar

StartChar: l
Encoding: 108 108 37
Width: 442
VWidth: 860
Flags: W
HStem: 11 21G<0.363281 6.86328> 40 65<215.528 380.927> 788 20G<422.334 453.116>
LayerCount: 2
Fore
SplineSet
429.564453125 123 m 1
 398.163085938 59 354.825195312 40 309.825195312 40 c 0
 264.825195312 40 219.163085938 59 180.67578125 76 c 0
 160.9765625 84 141.1015625 94 124.838867188 97 c 1
 120.838867188 97 l 1
 114.013671875 95 110.36328125 91 103.80078125 86 c 0
 81.4638671875 67 54.8251953125 40 32.2255859375 24 c 0
 20.92578125 16 11.36328125 11 2.36328125 11 c 0
 -1.63671875 11 -5.724609375 12 -8.9873046875 15 c 0
 -12.25 18 -15.8623046875 25 -16.2998046875 30 c 2
 -16.38671875 31 l 2
 -16.4534584829 31.762983103 -16.4863783124 32.5467570351 -16.4863783124 33.350512457 c 0
 -16.4863783124 47.2948895459 -6.57787671858 67.2534722407 8.5390625 89 c 0
 27.1767578125 116 53.46484375 147 74.3642578125 171 c 0
 89.876953125 188 105.21484375 207 111.427734375 216 c 0
 154.653320312 282 185.1796875 356 215.6171875 431 c 0
 246.793945312 509 277.056640625 586 320.932617188 656 c 0
 326.232421875 664 330.533203125 672 334.833007812 680 c 0
 363.37109375 731 393.034179688 792 451.634765625 808 c 1
 454.596679688 797 456.646484375 785 457.696289062 773 c 0
 458.228431159 766.917648717 458.486733707 760.729125567 458.486733707 754.447243538 c 0
 458.486733707 702.892052824 441.088949711 645.048741391 414.881835938 588 c 0
 369.805664062 486 311.717773438 407 257.50390625 318 c 0
 239.953125 290 222.052734375 266 207.02734375 232 c 0
 198.937569839 212.388848952 192.506880602 191.983075497 192.506880602 172.907696915 c 0
 192.506880602 170.584110807 192.602298256 168.280264909 192.801757812 166 c 0
 194.202148438 150 201.514648438 135 215.564453125 123 c 0
 232.875976562 108 253.138671875 105 276.138671875 105 c 0
 321.138671875 105 374.4765625 124 417.4765625 124 c 0
 421.4765625 124 425.564453125 123 429.564453125 123 c 1
EndSplineSet
Validated: 1
EndChar

StartChar: m
Encoding: 109 109 38
Width: 929
VWidth: 695
Flags: W
HStem: 452 66<307.45 418.102> 482 108<712.681 786.573> 533 21G<155 163> 592 20G<202.5 218>
VStem: 21 128<115.745 181.008> 795 113<336.993 466.232>
LayerCount: 2
Fore
SplineSet
520 494 m 0xbc
 529 494 539 495 549 496 c 0
 585 500 617 522 649 542 c 0
 685 565 723 590 765 590 c 0
 785 590 808 585 830 571 c 0
 886 537 908 494 908 447 c 0
 908 377 864 237 797 169 c 0
 713 84 602 -20 536 -30 c 1
 563 25 620.836914062 94.71484375 659 145 c 0
 701.5 201 751 289 779 349 c 0
 788 368 795 396 795 420 c 0
 795 435 793 449 787 460 c 0
 779 474 764 482 744 482 c 0x5c
 739 482 736 481 733 481 c 2
 732 481 l 1
 645 469 599 408 552 346 c 0
 506 285 466 163 380 149 c 1
 381 168 392 196 405 225 c 0
 421 262 436 367 436 396 c 0
 436 408 432 418 425 425 c 0
 405 443 386 452 366 452 c 0
 332 452 299 429 266 393 c 0
 221 343 185 215 149 157 c 0
 124 117 102 47 86 35 c 0
 68 22 56 16 46 16 c 0
 28 16 21 35 21 59 c 0
 21 102 45.7216796875 196.73046875 54 220 c 0
 72.5 272 94.5 334 113 378 c 0
 136.3359375 433.501953125 164 482 185 538 c 1
 176 536 169 533 157 533 c 0
 153 533 149 534 145 535 c 0
 144 536 143 538 143 539 c 0
 143 557 159 587 166 597 c 0
 169 601 172 604 174 605 c 0
 186 609 197 612 208 612 c 0
 228 612 246 604 260 591 c 1
 274 506 l 1
 285 509 l 2
 307 515 327 518 347 518 c 0
 408 518 459 494 520 494 c 0xbc
EndSplineSet
Validated: 1
EndChar

StartChar: n
Encoding: 110 110 39
Width: 628
VWidth: 696
Flags: W
HStem: 489 90<373.369 528.112>
VStem: 151 60<503.288 539.758> 530 80<395.224 478.111>
LayerCount: 2
Fore
SplineSet
369 -59 m 0
 369 25 424 232 470 319 c 4
 488 353 505 385 516 411 c 4
 525 432 530 447 530 460 c 4
 530 467 529 470 528 472 c 4
 524 478 519 481 512 484 c 4
 504 487 493 489 479 489 c 4
 433 489 364 470 304 436 c 4
 256 409 214 373 194 330 c 4
 185 312 179 288 172 266 c 4
 156 207 138 44 81 24 c 0
 75 21 67 20 61 20 c 0
 30 20 18 101 18 132 c 4
 18 144 20 155 23 165 c 4
 47 245 102 401 165 457 c 5
 168 460 l 5
 168 473 l 5
 166 475 l 5
 156 491 151 505 151 517 c 4
 151 543 175 564 211 575 c 5
 211 503 l 5
 279 533 383 579 474 579 c 4
 510 579 541 571 566 552 c 4
 597 528 610 493 610 450 c 4
 610 366 561 209 504 123 c 4
 459 54 408 -51 371 -71 c 1
 370 -71 l 1
 370 -67 369 -63 369 -59 c 0
EndSplineSet
Validated: 1
EndChar

StartChar: o
Encoding: 111 111 40
Width: 620
VWidth: 705
Flags: W
HStem: 1 76<169.569 321.33> 424 101<323.273 469.81>
VStem: 16 117<113.889 271.712> 504 100<240.397 396.391>
LayerCount: 2
Fore
SplineSet
604 318 m 0
 604 300 601 282 595 262 c 0
 561 145 391 31 276 6 c 0
 262 3 246 1 231 1 c 0
 119 1 16 86 16 198 c 0
 16 211 18 225 21 239 c 0
 30 282 70 338 120 388 c 0
 182 451 260 507 312 519 c 0
 330 523 349 525 367 525 c 0
 486 525 604 438 604 318 c 0
227 77 m 2
 228 77 l 2
 330 77 441 160 488 249 c 0
 498 269 504 297 504 324 c 0
 504 375 482 424 424 424 c 0
 380 424 323 406 272 379 c 0
 231 357 195 330 174 302 c 0
 146 267 133 222 133 183 c 0
 133 121 167 77 227 77 c 2
EndSplineSet
Validated: 1
EndChar

StartChar: p
Encoding: 112 112 41
Width: 576
VWidth: 862
Flags: W
HStem: -201 21G<42 72> 189 85<235.61 381.956> 526 79<296.261 408.124>
VStem: 21 105<-163.921 -80.5817> 467 87<347.781 469.943>
LayerCount: 2
Fore
SplineSet
554 425 m 2
 554 424 l 1
 548 311 474 244 408 217 c 0
 382 206 290 194 263 190 c 0
 259 189 256 189 255 189 c 0
 237 186 227 182 221 177 c 0
 208 167 209 145 202 125 c 0
 176 41 158 -42 126 -121 c 0
 116 -146 91 -201 53 -201 c 2
 47 -201 l 1
 37 -199 31 -194 27 -188 c 0
 24 -183 21 -175 21 -165 c 0
 21 -131 42 -80 56 -48 c 0
 61 -37 65 -28 66 -25 c 0
 102 109 132 229 158 358 c 0
 161 372 164 389 166 406 c 0
 175 472 186 547 234 583 c 0
 257 600 292 605 322 605 c 0
 341 605 356 603 368 601 c 0
 449 585 555 550 555 435 c 0
 555 432 554 429 554 425 c 2
343 526 m 0
 288 526 278 472 271 434 c 0
 261 382 248 330 235 279 c 1
 248 276 262 274 278 274 c 0
 279 274 311 276 328 280 c 0
 355 286 383 293 406 308 c 0
 443 332 467 370 467 410 c 0
 467 430 461 450 448 469 c 0
 429 496 384 526 343 526 c 0
EndSplineSet
Validated: 1
EndChar

StartChar: q
Encoding: 113 113 42
Width: 551
VWidth: 865
Flags: W
HStem: -13 71<459.653 530.877> 227 75.7334<164.752 187.983 188.157 229.476> 545.039 95.9613<297.033 371.889> 552.754 88.2461<273.563 355.361>
VStem: 64 86.7524<313.942 434.307>
LayerCount: 2
Fore
SplineSet
464 489 m 0xe8
 464 450 445 401 404 348 c 0
 307 222 252 48 156 -79 c 2
 134 -109 l 1
 168 -94 l 2
 219 -73 268 -43 315 -13 c 0
 323 -8 364 13 408 31 c 0
 444 46 481 58 507 58 c 0
 524 58 538 50 538 34 c 0
 538 31 538 26 536 20 c 0
 532 6 522 -4 507 -13 c 0
 490 -23 468 -32 448 -39 c 0
 433 -44 420 -50 412 -54 c 0
 392 -65 372 -77 351 -89 c 0
 269 -138 174 -200 78 -200 c 0
 75 -200 36 -197 14 -191 c 1
 63 -71 124 71 219 211 c 2
 230 227 l 1
 222 227 213 227 205 227 c 0
 169 227 143.40553457 233.692900641 125 244 c 0
 75 272 64 344 64 370 c 0
 64 412 89 465 123 512 c 0
 166 571 224 621 265 632 c 0
 289 638 312 641 331 641 c 0
 392 641 464 546 464 489 c 0xe8
151 391 m 2
 150.852671915 390.882064957 150.752436726 389.234403006 150.752436726 386.53706099 c 0
 150.752436726 374.716411203 152.677437385 342.73682495 161 331 c 1
 166.567552984 317.08111754 180.84310359 302.733393947 186.776409318 302.733393947 c 0
 187.237265347 302.733393947 187.647792176 302.819954514 188 303 c 2
 191.338376325 299.538009047 195.989896172 298.003519119 201.584027832 298.003519119 c 0
 230.947314022 298.003519119 286.280891901 340.280891901 314 368 c 0
 348 402 371.234482759 422.813793103 377 492 c 2
 378 504 l 1
 375.103874966 534.892000368 347.9309985 545.038670006 345.197553561 545.038670006 c 0xe8
 345.099513422 545.038670006 345.032912975 545.025616995 345 545 c 2
 340.686873653 550.358732734 334.500958688 552.753900397 326.967719494 552.753900397 c 0xd8
 273.203795369 552.753900397 150.813580726 430.755447269 150.813580726 393.382031739 c 0
 150.813580726 392.544776092 150.875004611 391.74999115 151 391 c 2
EndSplineSet
Validated: 1
EndChar

StartChar: r
Encoding: 114 114 43
Width: 637
VWidth: 775
Flags: W
HStem: 507 20G<604.5 610> 586 51<206.338 293.178>
VStem: 94 65<445.781 540.247> 301 54<453.951 580.059>
LayerCount: 2
Fore
SplineSet
266 637 m 0
 291 637 311 631 326 619 c 0
 344 604 355 581 355 549 c 0
 355 535 353 519 349 503 c 0
 343 478 337 462 330 445 c 0
 325 433 320 417 315 404 c 1
 332 407 l 2
 348 410 368 417 388 425 c 0
 423 439 463 460 499 479 c 0
 528 494 553 507 577 517 c 0
 591 523 601 527 608 527 c 0
 612 527 616 525 617 521 c 0
 620 514 622 503 622 489 c 0
 622 383 530 126 474 -19 c 1
 413 -9 l 1
 437 117 477 253 527 390 c 2
 538 420 l 1
 511 401 l 2
 465 369 397 346 339 326 c 0
 326 322 312 317 299 312 c 0
 206 281 163 18 45 18 c 0
 44 18 25 19 15 22 c 1
 71.447265625 132 134.568359375 242 219 352 c 1
 204 355 l 2
 179 361 160 372 140 393 c 0
 107 428 94 462 94 492 c 0
 94 575 189 637 266 637 c 0
301 536 m 2
 301 537 l 1
 298 566 283 586 261 586 c 0
 257 586 254 586 250 585 c 0
 229 581 205 566 186 547 c 0
 171 531 159 512 159 490 c 0
 159 462 182 432 244 413 c 2
 250 412 l 1
 255 416 l 2
 288 454 302 495 302 527 c 0
 302 530 301 534 301 536 c 2
EndSplineSet
Validated: 1
EndChar

StartChar: s
Encoding: 115 115 44
Width: 526
VWidth: 774
Flags: W
HStem: 1 62<87.1132 243.99> 568 54<290.603 429.021>
VStem: 13 52<79.0428 105.004> 112 100<397.274 498.512> 371 103<151.452 231.028> 451 62<495.944 545.58>
LayerCount: 2
Fore
SplineSet
143 63 m 0xf8
 186 63 239 80 283 102 c 0
 318 120 348 139 361 157 c 0
 368 167 371 177 371 187 c 0xf8
 371 202 363 214 354 226 c 0
 341 241 322 254 306 265 c 0
 287 277 265 290 242 301 c 0
 178 333 112 367 112 440 c 0
 112 446 113 453 114 459 c 0
 119 491 136 519 162 543 c 0
 214 592 299 622 375 622 c 0
 409 622 442 617 469 603 c 0
 501 587 513 563 513 539 c 0
 513 504 485 465 446 448 c 1
 449 460 451 473 451 485 c 0xf4
 451 517 439 540 421 553 c 0
 407 564 387 568 367 568 c 0
 312 568 245 532 218 472 c 0
 213 462 212 453 212 446 c 0
 212 424 224 405 244 387 c 0
 292 344 381 310 431 270 c 0
 451 254 465 240 470 221 c 0
 473 214 474 205 474 196 c 0
 474 160 451 126 415 97 c 0
 343 39 222 1 139 1 c 0
 122 1 106 2 92 6 c 0
 70 13 47 26 32 43 c 0
 20 56 13 71 13 85 c 0
 13 104 29 121 65 126 c 1
 66 101 76 85 93 75 c 0
 106 68 124 63 143 63 c 0xf8
EndSplineSet
Validated: 1
EndChar

StartChar: t
Encoding: 116 116 45
Width: 563
VWidth: 864
Flags: W
HStem: 4 83<181.007 323.602> 403 93<48.1156 198.672> 487 62<410.001 535.126> 753 20G<403 409.5>
VStem: 79 96<94.1421 187.077>
LayerCount: 2
Fore
SplineSet
423 737 m 0xd8
 423 702 411 651 400 625 c 0
 389 599 375 573 366 545 c 2
 360 528 l 1
 396 536 442 549 486 549 c 0
 515 549 537 541 537 517 c 0
 537 503 524 494 505 487 c 0xb8
 480 477 446 471 414 466 c 0
 386 461 352 456 339 448 c 0
 327 441 313 426 299 405 c 0
 282 379 262 346 245 311 c 0
 224 267 205 220 192 181 c 0
 182 150 175 125 175 110 c 0
 175 102 179 97 184 94 c 0
 190 90 200 87 215 87 c 0
 265 87 354 113 425 153 c 1
 424 148 422 143 421 137 c 0
 412 102 401 53 376 34 c 0
 351 15 307 4 261 4 c 0
 182 4 100 34 81 90 c 0
 80 94 79 97 79 98 c 2
 79 100 l 2
 79 128 98 184 122 244 c 0
 151 316 176 370 199 420 c 1
 178 414 l 2
 154 407 130 403 107 403 c 0
 78 403 52 408 26 420 c 1
 30 460 47 480 71 489 c 0
 91 496 114 495 139 496 c 0
 176 497 217 497 245 521 c 0
 278 550 292 592 307 633 c 0
 320 669 332 704 356 733 c 0
 370 749 381 760 389 766 c 0
 396 771 400 773 406 773 c 0
 413 773 419 767 421 760 c 0
 423 754 423 747 423 737 c 0xd8
EndSplineSet
Validated: 1
EndChar

StartChar: u
Encoding: 117 117 46
Width: 711
VWidth: 699
Flags: W
HStem: 0 75<412.251 536.464> 520 20G<235.5 258.5>
LayerCount: 2
Fore
SplineSet
278 504 m 0
 277 501 274 468 266 444 c 1
 181 350 111 233 99 107 c 2
 98 95 l 1
 110 96 l 2
 245 112 334 203 411 310 c 0
 439 349 463 399 496 436 c 0
 513 456 533 470 552 470 c 0
 572 470 582 459 582 440 c 0
 582 416 567 385 559 370 c 0
 552 357 526 327 510 308 c 0
 482 275 452 239 429 204 c 0
 411 175 398 150 398 128 c 0
 398 119 400 110 406 103 c 0
 422 83 442 75 462 75 c 0
 497 75 537 96 574 116 c 0
 605 132 636 149 660 150 c 2
 664 150 l 2
 675 150 682 149 688 145 c 0
 695 140 698 133 698 125 c 0
 698 104 676 75 640 63 c 1
 588 38 537 0 467 0 c 0
 421 0 365 17 290 62 c 0
 282 67 274 69 269 70 c 0
 267 70 266 70 265 71 c 2
 263 71 l 2
 239 71 212 56 183 40 c 0
 153 23 120 5 88 5 c 0
 76 5 65 7 54 13 c 0
 25 27 13 60 13 103 c 0
 13 215 91 395 153 479 c 0
 168 500 182 515 194 522 c 0
 194 522 223 540 248 540 c 0
 269 540 278 528 278 504 c 0
EndSplineSet
Validated: 1
EndChar

StartChar: v
Encoding: 118 118 47
Width: 698
VWidth: 695
Flags: W
HStem: 541 20G<48.5 70.5 646.5 667>
LayerCount: 2
Fore
SplineSet
681 527 m 2
 675 492 643 461 613 432 c 0
 603 423 594 414 586 405 c 0
 518 331 433 191 367 104 c 0
 349 81 334 58 312 38 c 0
 297 24 281 14 263 11 c 1
 260 11 257 10 255 10 c 0
 243 10 236 15 229 23 c 0
 213 43 213 76 207 104 c 0
 185 202 41 464 35 473 c 0
 35 474 35 475 34 475 c 1
 30 481 16 510 16 532 c 0
 16 548 24 557 37 559 c 0
 42 560 46 561 51 561 c 0
 90 561 124 529 153 484 c 0
 187 429 215 355 239 290 c 0
 253 251 270 206 282 181 c 2
 291 163 l 1
 300 180 l 2
 364 301 471 435 574 520 c 0
 587 531 633 554 660 554 c 0
 674 554 682 549 682 535 c 0
 682 533 681 530 681 527 c 2
EndSplineSet
Validated: 1
EndChar

StartChar: w
Encoding: 119 119 48
Width: 967
VWidth: 864
Flags: W
HStem: 1 89<105.2 179.283> 18 82<478.066 590.101> 515 20G<232.5 247.5 889.5 898>
VStem: 26 76<90.4945 239.168> 846 94<423.37 687.51>
LayerCount: 2
Fore
SplineSet
26 140 m 0xb8
 26 145 27 151 27 156 c 0
 30 222 50 263 83 346 c 0
 109 413 144 472 179 505 c 0
 199 524 222 535 243 535 c 0
 252 535 261 533 270 529 c 1
 269 528 181 399 162 341 c 0
 143 283 102 205 102 135 c 0
 102 108 108 90 125 90 c 0
 126 90 128 90 129 90 c 0xb8
 156 94 182 111 211 136 c 0
 247 168 284.745522814 211.217769757 325 258 c 0
 399 344 435 410 524 449 c 1
 524 403 522.728515625 350.130859375 506 315 c 0
 476 252 465 246 465 177 c 0
 465 152 469 134 478 121 c 0
 488 106 504 100 521 100 c 0
 551 100 587 118 621 139 c 0
 664 166 702 199 715 216 c 0
 773 293 824 341 842 449 c 0
 845 469 846 492 846 516 c 2
 846 562 l 2
 846 607 848 652 866 685 c 0
 876 704 885 712 894 712 c 0
 902 712 909 706 914 696 c 0
 921 683 927 665 931 648 c 0
 937 620 940 591 940 562 c 0
 940 357 801 182 679 81 c 0
 630 40 578 18 529 18 c 0x78
 462 18 403 60 371 156 c 2
 366 173 l 1
 354 160 l 2
 319 120 282 82 243 49 c 0
 206 19 164 1 126 1 c 0
 96 1 67 13 49 41 c 0
 34 64 26 96 26 140 c 0xb8
EndSplineSet
Validated: 1
EndChar

StartChar: x
Encoding: 120 120 49
Width: 556
VWidth: 692
Flags: W
HStem: 578 65G<37 49 531.5 543.5>
LayerCount: 2
Fore
SplineSet
41 598 m 0
 57 598 80 590 104 577 c 0
 135 560 169 537 199 514 c 0
 221 497 270 460 283 446 c 0
 289 440 292.875976562 434.005859375 295 432 c 2
 313 415 l 1
 353 473 460.172851562 593.778320312 505 629 c 0
 519 640 523 643 540 643 c 2
 541 643 l 2
 546 643 548 642 551 640 c 0
 554 637 555 634 555 630 c 0
 555 623 552 614 547 603 c 0
 540 589 532 573 520 557 c 0
 494 520 430 390 407 366 c 0
 405 363 402 359 402 352 c 0
 402 343 405 331 413 317 c 0
 443 259 499 175 499 109 c 0
 499 85 492 58 477 42 c 0
 469 34 459 29 449 29 c 0
 448 29 l 0
 445 29 444 29 441 30 c 1
 439 33 439 31 437 37 c 0
 433 48 428 57 423 70 c 0
 408 108 385 155 361 199 c 0
 350 218 339 235 328 246 c 0
 319 255 312 260 303 260 c 0
 297 260 292 257 287 252 c 0
 271 236 247 207 220 174 c 0
 185 131 144 94 111 58 c 0
 96 42 83 29 73 21 c 0
 64 14 57 10 53 10 c 2
 52 10 l 1
 18 12 1 23 1 43 c 0
 2 45 4 60 11 74 c 0
 19 89 55 132 95 178 c 0
 125 213 164 258 189 290 c 0
 199 303 207 314 212 323 c 0
 215 328 218 332 220 337 c 1
 210 349 166 395 139 422 c 0
 110 451 77 484 51 514 c 0
 40 528 32 541 25 552 c 0
 20 562 17 569 17 575 c 0
 17 584 20 590 25 594 c 0
 28 597 33 598 41 598 c 0
EndSplineSet
Validated: 1
EndChar

StartChar: y
Encoding: 121 121 50
Width: 581
VWidth: 862
Flags: W
HStem: -200 72<78.2763 106> 327 83<292.068 344> 625 20G<272 291 559.5 563>
VStem: -4 61<-110.185 29.9102> 204 75.8485<403 512.209>
LayerCount: 2
Fore
SplineSet
296 328 m 0
 277 330 264 336 248 344 c 0
 215 359 204 388 204 418 c 0
 204 469 260 613 284 645 c 1
 298 641 307 633 307 622 c 0
 307 620 307.181640625 617.7578125 306 615 c 0
 300 601 291 587 287 568 c 0
 284.136672378 554.399985521 279.848547694 526.14413706 279.848547694 497.145448893 c 0
 279.848547694 463.548732869 285.604329976 428.954932122 306 415 c 0
 315.66015625 408.390625 330 410 333 410 c 0
 367 410 414.391601562 439.34765625 437 471 c 0
 472 520 507 624 531 664 c 0
 537 674 542 688 549 696 c 0
 553 701 557 704 562 704 c 0
 564 703 572 701 579 695 c 0
 583 691 585 686 585 678 c 0
 585 630 498.366210938 438.0546875 484 414 c 0
 398 270 336 86 261 -60 c 0
 247 -86 225 -121 201 -148 c 0
 181 -170 162 -187 145 -192 c 0
 133 -196 106 -200 106 -200 c 1
 36 -200 -4 -133 -4 -54 c 0
 -4 -23 2 10 15 41 c 0
 70 173 184.434570312 223.374023438 256 252 c 0
 271 258 305 269 316 276 c 0
 320 278 321.188476562 280.899414062 322 282 c 2
 352 336 l 1
 316 327 l 2
 310.321289062 325.580078125 300.97265625 327.4765625 296 328 c 0
57 -53 m 0
 57 -67 63 -85 72 -100 c 0
 80 -113 88 -121 90 -123 c 0
 93 -126 98 -128 105 -128 c 0
 116 -128 127 -123 139 -114 c 0
 153 -104 167 -88 177 -71 c 0
 210 -8 271 131 300 198 c 1
 276 186 l 2
 206 153 127 126 91 56 c 0
 75 26 57 -23 57 -53 c 0
EndSplineSet
Validated: 1
EndChar

StartChar: z
Encoding: 122 122 51
Width: 639
VWidth: 863
Flags: W
HStem: 0 66<83.0266 172.51> 79 132<271.73 355.093> 197 52<127.081 265.892> 335 74<290.451 399.539> 534 21G<199.5 209.5> 594 85<312.447 478.246>
VStem: 23 54<67.6901 147.551>
LayerCount: 2
Fore
SplineSet
77 88 m 0xbe
 77 83 77 79 80 75 c 0
 83 70 86 69 88 68 c 0
 94 67 101 66 108 66 c 0
 162 66 229 109 257 147 c 0
 264 155 267 161 267 168 c 0
 267 190 246 197 219 197 c 0
 184 197 133 183 114 167 c 0
 105 160 96 144 88 128 c 0
 82 115 77 101 77 88 c 0xbe
546 390 m 2
 546 388 l 2
 546 378 546 364 543 355 c 0
 529 290 478 236 429 185 c 0
 415 170 401 155 388 140 c 1
 616 -77 l 1
 616 -89 l 1
 604 -92 591 -93 579 -93 c 0
 512 -93 452 -55 405 -7 c 0
 386 12 370 44 350 63 c 0
 340 72 330 78 318 79 c 0
 315 79 312 79 309 79 c 0xde
 277 79 244 60 209 41 c 0
 173 21 137 0 100 0 c 0
 83 0 66 5 50 16 c 0
 31 29 23 50 23 74 c 0
 23 108 38 149 59 180 c 0
 75 205 95 224 115 230 c 0
 145 237 177 249 210 249 c 0xbe
 221 249 231 249 239 246 c 0
 267 239 303 211 335 211 c 0
 336 211 338 211 339 211 c 0xde
 342 211 344 212 347 213 c 0
 372 220 394 238 411 261 c 0
 441 299 455 340 472 384 c 1
 461 378 449 371 439 364 c 0
 412 346 372 335 341 335 c 0
 309 335 285 345 285 367 c 0
 285 396 307 402 337 409 c 0
 368 417 405 425 434 458 c 0
 456 482 473 522 478 583 c 2
 479 594 l 1
 467 594 456 594 444 594 c 0
 375 594 302 583 243 550 c 0
 231 544 216 534 203 534 c 0
 196 534 189 537 184 544 c 0
 181 549 179 555 179 560 c 0
 179 571 186 582 194 592 c 0
 205 604 220 614 229 620 c 0
 277 651 363 679 431 679 c 2
 433 679 l 2
 445 679 457 677 468 675 c 0
 506 667 527 651 539 630 c 0
 549 613 552 593 552 571 c 0
 552 546 548 519 544 492 c 0
 543 484 542 476 542 467 c 0
 542 441 546 415 546 390 c 2
EndSplineSet
Validated: 1
EndChar

StartChar: zero
Encoding: 48 48 53
Width: 803
VWidth: 862
Flags: W
HStem: 0.064421 68.1121<168.023 325.802> 687.448 93.0029<451.105 619.814>
VStem: 30.0916 83.1913<138.815 339.839> 683.997 88.9109<414.502 617.994>
LayerCount: 2
Fore
SplineSet
574.669921875 780.451171875 m 2
 664.857421875 780.185546875 742.030273438 739.865234375 765.657226562 617.78515625 c 0
 770.578706842 592.306413106 772.907937868 567.214571296 772.907937868 542.590011513 c 0
 772.907937868 327.57982044 595.328079207 148.195067665 415.256835938 57.9443359375 c 0
 359.797884466 30.0966649358 289.048098993 0.0644210198587 222.644001235 0.0644210198587 c 0
 184.256079766 0.0644210198587 147.320463688 10.1010349167 115.630859375 36.3984375 c 0
 42.0935999823 97.4336918475 30.0915677932 172.842319062 30.0915677932 215.568828443 c 0
 30.0915677932 236.274334751 32.91015625 249.3046875 32.91015625 249.3046875 c 2
 34.724609375 466.584960938 198.669921875 670.211914062 401.603515625 744.717773438 c 0
 457.23046875 765.198242188 517.497070312 780.344726562 572.963867188 780.451171875 c 2
 574.669921875 780.451171875 l 2
320.857421875 74.478515625 m 0
 417.603515625 116.611328125 469.017578125 149.251953125 537.55078125 221.998046875 c 0
 579.096679688 266.104492188 624.483398438 318.211914062 650.77734375 373.358398438 c 0
 672.135935733 418.162423511 683.997056893 469.900702035 683.997056893 518.293022417 c 0
 683.997056893 608.711124714 642.589116997 687.448271071 544.355520782 687.448271071 c 0
 529.879976897 687.448271071 514.170492696 685.738533857 497.177734375 682.104492188 c 0
 338.7987006 648.250179118 113.282913842 429.680144217 113.282913842 235.413837965 c 0
 113.282913842 189.136534573 126.08020564 144.238389207 155.630859375 103.544921875 c 0
 176.057565075 75.4354606258 202.178789085 68.1764809433 235.595767631 68.1764809433 c 0
 259.93853114 68.1764809433 288.152762116 72.0284339575 320.857421875 74.478515625 c 0
EndSplineSet
Validated: 1
EndChar

StartChar: one
Encoding: 49 49 54
Width: 386
VWidth: 864
Flags: W
HStem: -0.341797 21G<26.7217 112.988> 744.391 20G<302.301 330.39>
LayerCount: 2
Fore
SplineSet
24.375 -0.341796875 m 1
 29.068359375 102.165039062 82.615234375 188.405273438 107.681640625 286.271484375 c 0
 125.122070312 354.377929688 138.721679688 425.044921875 163.361328125 490.96484375 c 0
 178.935546875 532.618164062 198.935546875 572.618164062 215.521484375 613.791992188 c 0
 223.73737425 634.309344969 280.111931897 764.39139957 324.490596971 764.39139957 c 0
 336.290320264 764.39139957 347.24198128 755.195111535 356.21484375 732.297851562 c 0
 359.977232096 722.688260496 361.625631273 712.264127147 361.625631273 701.30876357 c 0
 361.625631273 640.51812908 310.870243367 563.370536494 288.908203125 518.271484375 c 0
 224.6953125 386.431640625 201.6015625 5.525390625 24.375 -0.341796875 c 1
EndSplineSet
Validated: 1
EndChar

StartChar: two
Encoding: 50 50 55
Width: 693
VWidth: 861
Flags: W
HStem: 12.3379 21G<71.8653 94.8212> 15.8907 78.3671<214.885 362.521> 694.738 94.6678<344.49 522.524>
VStem: 41.1561 76.8195<427.025 566.457> 523.716 84.3631<616.008 693.128>
LayerCount: 2
Fore
SplineSet
119.311523438 367.217773438 m 1xb8
 64.0679660444 393.840655985 41.1560808352 435.827626943 41.1560808352 482.251818354 c 0
 41.1560808352 520.087151903 56.374420124 560.869738624 81.7119140625 598.684570312 c 0
 152.751953125 704.711914062 306.938476562 780.444335938 433.391601562 788.924804688 c 0
 438.187787141 789.246709925 442.966087379 789.406061473 447.71493555 789.406061473 c 0
 532.602478887 789.406061473 608.079209317 738.488493964 608.079209317 654.9430988 c 0
 608.079209317 641.713093803 606.186481957 627.664881899 602.138671875 612.87109375 c 0
 590.084960938 568.924804688 563.098632812 529.083984375 540.538085938 490.044921875 c 0
 508.912109375 435.325195312 479.205078125 372.924804688 436.111328125 326.2578125 c 0
 363.365234375 247.484375 283.098632812 177.51171875 214.884765625 94.2578125 c 1
 651.844726562 107.912109375 l 1
 648.989028425 20.8681706094 545.335419678 0.641356650764 423.255496498 0.641356650764 c 0
 317.255435572 0.641356650764 197.363456587 15.8907025318 117.501198529 15.8907025318 c 0x78
 96.9401697879 15.8907025318 79.0324576325 14.879920008 64.6982421875 12.337890625 c 1
 124.944067855 104.236313583 523.716134991 579.2760878 523.716134991 678.381455076 c 0
 523.716134991 686.486493151 521.049027632 692.077168998 515.311523438 694.73828125 c 0
 404.377929688 694.73828125 185.177734375 659.431640625 125.924804688 546.41796875 c 0
 119.997382534 535.103200958 117.975618337 522.29440392 117.975618337 508.534086498 c 0
 117.975618337 478.999388029 127.289670791 445.081136427 127.289670791 412.143706356 c 0
 127.289670791 396.773078729 125.261322824 381.616047424 119.311523438 367.217773438 c 1xb8
EndSplineSet
Validated: 1
EndChar

StartChar: three
Encoding: 51 51 56
Width: 729
VWidth: 865
Flags: W
HStem: 0 21G<167.3 208.5> 346 85<461.7 547.125> 573 21G<149.3 230.1>
VStem: 590.5 89.5996<211.248 310.528>
LayerCount: 2
Fore
SplineSet
680.099609375 262 m 0
 680.099609375 227 663.299804688 187 616.099609375 145 c 0
 574.5 108 532.099609375 116 480.099609375 100 c 0
 379.299804688 68 263.299804688 7 153.700195312 0 c 1
 180.900390625 82 267.299804688 101 363.299804688 121 c 0
 440.900390625 137 520.900390625 151 567.299804688 209 c 0
 583.299804688 229 590.5 249 590.5 267 c 0
 590.5 288 579.299804688 304 564.099609375 315 c 0
 532.900390625 338 481.700195312 346 440.900390625 346 c 0
 414.5 346 389.700195312 342 374.5 335 c 0
 352.900390625 324 332.099609375 309 312.099609375 295 c 0
 270.5 266 230.5 240 186.5 240 c 0
 181.700195312 240 168.900390625 241 156.099609375 244 c 1
 221.700195312 352 322.5 438 412.900390625 513 c 0
 456.900390625 550 494.5 583 532.900390625 619 c 1
 517.700195312 617 l 2
 409.700195312 603 285.700195312 573 174.5 573 c 0
 124.099609375 573 76.099609375 579 28.900390625 595 c 1
 103.299804688 679 268.900390625 690 406.5 699 c 0
 456.900390625 702 504.099609375 706 540.900390625 712 c 0
 546.5 713 554.5 715 562.5 717 c 2
 588.900390625 725 622.5 735 651.299804688 735 c 0
 681.700195312 735 700.099609375 725 700.099609375 693 c 0
 700.099609375 669 680.099609375 655 656.900390625 642 c 0
 597.700195312 606 556.900390625 555 516.900390625 502 c 0
 498.5 478 480.900390625 454 461.700195312 431 c 1
 468.099609375 431 474.5 431 480.900390625 431 c 0
 564.099609375 426 680.099609375 350 680.099609375 262 c 0
EndSplineSet
Validated: 1
EndChar

StartChar: four
Encoding: 52 52 57
Width: 739
VWidth: 864
Flags: W
HStem: 0.25 21G<295.87 364.046> 272.983 62.8676<148.068 253.88> 743.587 20G<534.112 555.586>
LayerCount: 2
Fore
SplineSet
495.712890625 614.428710938 m 1
 415.712890625 584.961914062 183.80078125 412.294921875 148.068359375 335.850585938 c 1
 230.467773438 335.939453125 397.712890625 407.362304688 429.178710938 445.983398438 c 0
 460.689453125 484.561523438 476.37890625 541.405273438 495.712890625 614.428710938 c 1
29.134765625 273.228515625 m 1
 36.556640625 369.672851562 140.467773438 434.650390625 206.868164062 494.916992188 c 0
 277.579101562 559.049804688 372.689453125 611.939453125 436.868164062 682.694335938 c 0
 461.134765625 709.405273438 489.80078125 757.983398438 529.178710938 763.18359375 c 0
 531.226137742 763.455682258 533.180059621 763.587093628 535.044809345 763.587093628 c 0
 576.128009172 763.587093628 573.928275932 699.801829134 574.779296875 671.317382812 c 0
 574.920001272 666.616229932 574.989175252 661.933049454 574.989175252 657.267024152 c 0
 574.989175252 570.575898292 551.111179623 489.806525483 518.467773438 409.717773438 c 1
 545.356445312 409.939453125 571.400390625 411.049804688 598.112304688 414.47265625 c 0
 600.368801787 414.770653681 603.504699027 414.922030109 607.296586205 414.922030109 c 0
 637.614033501 414.922030109 709.865995966 405.245209225 709.865995966 383.461036889 c 0
 709.865995966 376.683425608 702.872073179 368.733833965 685.4453125 359.5390625 c 0
 619.3125 324.517578125 524.333984375 366.828125 466.333984375 312.916992188 c 0
 373.000976562 226.162109375 437.223632812 39.4052734375 290.868164062 0.25 c 1
 370.512695312 318.739257812 l 1
 260.916812558 286.730477091 155.377769718 272.982943422 52.9033617224 272.982943422 c 0
 44.9622463263 272.982943422 37.0395348746 273.065501005 29.134765625 273.228515625 c 1
EndSplineSet
Validated: 1
EndChar

StartChar: five
Encoding: 53 53 58
Width: 796
VWidth: 864
Flags: W
HStem: 0.354286 75.7986<92.2078 233.337> 418.873 77.2859<306.966 504.047>
VStem: 533.446 120.007<293.165 390.971>
LayerCount: 2
Fore
SplineSet
248.403320312 725.0703125 m 1
 277.779335311 718.002544074 307.856861249 715.131114657 338.290475637 715.131114657 c 0
 431.1825964 715.131114657 527.392199161 741.882657511 617.096679688 757.709960938 c 0
 635.737704428 760.98788386 664.710458441 767.14569716 691.819431288 767.14569716 c 0
 716.754366424 767.14569716 740.11247009 761.935947227 752.403320312 744.483398438 c 0
 758.100749344 736.365762882 760.592737175 729.245972676 760.592737175 722.984145615 c 0
 760.592737175 684.814464241 667.999163038 678.523700213 644.403320312 672.4296875 c 0
 509.896484375 636.91015625 421.950195312 647.896484375 292.296875 597.229492188 c 2
 221.096679688 452.110351562 l 1
 287.749279867 469.747175718 376.431032819 496.159057958 458.379484273 496.159057958 c 0
 516.690913437 496.159057958 571.593131215 482.786169533 612.723632812 443.36328125 c 0
 641.065481292 416.191983339 653.453077497 385.725982434 653.453077497 353.82597124 c 0
 653.453077497 194.8889331 345.945656883 0.354286032889 172.058254781 0.354286032889 c 0
 110.525925145 0.354286032889 65.7253701027 24.7137338279 57.203125 83.6298828125 c 1
 78.7962553123 78.5056256538 100.284075192 76.1529180631 121.581084222 76.1529180631 c 0
 243.25610159 76.1529180631 358.702831196 152.948026407 451.9765625 228.4296875 c 0
 480.260788298 251.359121787 533.445947196 304.703529408 533.445947196 349.694577051 c 0
 533.445947196 363.410980004 528.502627262 376.350975933 516.403320312 387.416015625 c 0
 491.606738226 410.054456368 458.155993638 418.873171881 420.375925712 418.873171881 c 0
 287.134164558 418.873171881 100.043696043 309.184799356 48.8200361818 309.184799356 c 0
 40.1812055312 309.184799356 35.4067749876 312.304617674 35.4067749876 319.596564208 c 0
 35.4067749876 324.970329383 37.999712182 332.609928426 43.5498046875 342.936523438 c 2
 248.403320312 725.0703125 l 1
EndSplineSet
Validated: 1
EndChar

StartChar: six
Encoding: 54 54 59
Width: 760
VWidth: 860
Flags: W
HStem: 0.32603 76.4817<202.5 476.389> 330.207 72.5338<371.162 592.291> 736.188 58.5146<520.605 574.559>
VStem: 32.2107 102.787<117.911 198.935> 620.241 107.548<189.555 306.168>
LayerCount: 2
Fore
SplineSet
368.55078125 387.903320312 m 0
 398.212212615 397.455494582 436.794709192 402.741085067 477.638438558 402.741085067 c 0
 593.600270961 402.741085067 727.789499543 360.134878259 727.789499543 251.601523175 c 0
 727.789499543 226.62237614 720.681516092 198.15107788 704.607421875 165.903320312 c 0
 649.195564586 54.6711679449 465.619612256 0.326030212744 311.297902597 0.326030212744 c 0
 249.029187141 0.326030212744 191.523406316 9.17405753856 149.122070312 26.703125 c 0
 65.2098339813 61.4693380927 32.2107056633 125.897112944 32.2107056633 197.095882474 c 0
 32.2107056633 244.443058862 46.8037418865 294.784537697 70.7216796875 341.388671875 c 0
 158.037109375 511.731445312 350.264648438 792.188476562 558.779296875 794.703125 c 0
 569.713128015 785.914310418 576.01808888 776.535406455 576.01808888 766.363804192 c 0
 576.01808888 757.025722994 570.704120723 747.019537169 558.779296875 736.188476562 c 0
 527.350585938 735.6171875 216.37890625 499.502929688 178.37890625 312.131835938 c 1
 239.693359375 343.274414062 302.665039062 366.645507812 368.55078125 387.903320312 c 0
525.63671875 330.188476562 m 0
 524.270034191 330.20094548 522.883232563 330.207318 521.476983501 330.207318 c 0
 477.727030739 330.207318 415.153897353 324.039352838 353.921875 303.388671875 c 0
 319.579101562 291.673828125 285.178710938 279.673828125 251.521484375 265.959960938 c 0
 202.944847293 246.215320855 134.997344158 196.063406444 134.997344158 153.54644412 c 0
 134.997344158 132.695430708 151.339275485 113.680685839 194.322265625 100.989257812 c 0
 251.647703041 84.0517139843 303.671542678 76.8077576277 350.094071038 76.8077576277 c 0
 524.861605116 76.8077576277 620.241361556 179.47685921 620.241361556 254.108740195 c 0
 620.241361556 296.3588576 589.673625527 329.623479652 525.63671875 330.188476562 c 0
EndSplineSet
Validated: 1
EndChar

StartChar: seven
Encoding: 55 55 60
Width: 764
VWidth: 861
Flags: W
HStem: 0.637695 21G<203.624 227.643> 346.138 108.969<484.927 628.909> 607.987 70.3504<51.3116 240.032> 629.352 66.5227<87.453 468.755> 766.736 20G<663.673 681.697>
VStem: 161.991 65.622<27.9317 68.0343>
LayerCount: 2
Fore
SplineSet
470.908203125 614.836914062 m 2xdc
 470.908203125 614.887695312 l 2
 426.801358912 625.364708251 374.617969597 629.351880678 320.312943226 629.351880678 c 0xdc
 231.304014694 629.351880678 136.595305017 618.640335948 62.408203125 608.237304688 c 0
 61.2213630946 608.068271546 60.0967258897 607.98652642 59.0326061311 607.98652642 c 0
 48.1182137694 607.98652642 43.5702915153 616.5861606 43.5702915153 627.804571896 c 0
 43.5702915153 646.87270765 56.7094268397 673.506598707 74.0576171875 678.336914062 c 0xec
 130.180533093 694.079390936 186.612127454 697.174603005 242.659801083 697.174603005 c 0
 278.982765507 697.174603005 315.144483929 695.874619629 350.956438246 695.874619629 c 0
 441.890993739 695.874619629 530.570390633 704.256465132 613.908203125 763.586914062 c 0
 630.363083826 775.262235007 653.230317295 786.735930257 674.11644776 786.735930257 c 0
 689.277607945 786.735930257 703.394875201 780.69015206 713.2578125 764.287109375 c 0
 718.277307428 755.881829125 720.429410928 747.33762369 720.429410928 738.938996797 c 0
 720.429410928 715.463460203 703.615155788 693.125319999 685.607421875 678.137695312 c 0
 596.857421875 604.086914062 530.807617188 544.9375 483.708007812 435.6875 c 1
 508.965975631 435.6875 582.149081341 455.106990682 636.405130138 455.106990682 c 0
 672.279273662 455.106990682 699.878763155 446.617051249 699.878763155 418.410062689 c 0
 699.878763155 415.806593115 699.643641507 413.035152859 699.158203125 410.086914062 c 0
 688.158203125 342.537109375 485.607421875 373.137695312 432.5078125 346.137695312 c 0
 394.857421875 327.037109375 390.2578125 291.237304688 374.908203125 256.537109375 c 0
 343.121549749 185.203966246 227.612528921 77.213589977 227.612528921 3.16624490319 c 0
 227.612528921 2.31891513731 227.627654146 1.47603001117 227.658203125 0.6376953125 c 1
 179.589844147 4.48305357958 161.990558958 25.3778388886 161.990558958 55.1690716635 c 0
 161.990558958 130.738406201 275.233013661 263.551858234 291.658203125 320.537109375 c 1
 99.658203125 333.336914062 l 1
 130.0078125 424.836914062 259.0078125 372.487304688 328.908203125 410.487304688 c 0
 396.5078125 447.1875 436.458007812 549.586914062 470.908203125 614.836914062 c 2xdc
EndSplineSet
Validated: 1
EndChar

StartChar: eight
Encoding: 56 56 61
Width: 576
VWidth: 863
Flags: W
HStem: 0.602995 80.2145<127.56 337.666> 536.938 20G<488.336 538.592> 556.938 21G<462.298 487.124> 709.387 65.7841<270.588 449.719>
VStem: 23.9912 77.5206<105.51 244.5> 56.0222 91.5883<511.375 618.333> 399.181 78.2433<132.954 273.916> 492.139 59.8698<595.713 674.328>
LayerCount: 2
Fore
SplineSet
182.612304688 396.830078125 m 1xdb
 100.405114176 431.814191203 56.0222458743 494.612904297 56.0222458743 560.133515769 c 0
 56.0222458743 607.38550449 79.1056399187 656.053144232 127.732421875 696.724609375 c 0
 192.239960769 750.438869551 280.856900962 775.170657738 366.414186073 775.170657738 c 0
 391.206527591 775.170657738 415.741951677 773.093944078 439.359375 769.043945312 c 0
 511.042810373 756.844290411 552.008865667 703.397327786 552.008865667 652.887042375 c 0
 552.008865667 609.108363289 521.234450447 567.535767344 453.012695312 556.9375 c 1xb7
 453.012695312 556.9375 492.139077218 610.04097497 492.139077218 641.214667657 c 0
 492.139077218 644.703095375 491.64912622 647.916912505 490.559570312 650.750976562 c 0
 479.632253328 679.090753905 416.342792087 709.386547202 373.247257932 709.386547202 c 0
 371.331465379 709.386547202 369.455580205 709.326676444 367.625976562 709.204101562 c 0
 316.90625 705.791015625 225.225585938 684.990234375 172.958984375 623.7109375 c 0
 155.296745421 603.055135698 147.610540344 582.607280563 147.610540344 563.48787821 c 0
 147.610540344 514.135881449 198.822665702 473.635182531 261.865234375 461.256835938 c 0
 271.708867676 459.323550484 281.346525057 458.434946989 290.827212009 458.434946989 c 0
 372.883266543 458.434946989 443.180616118 525.000518619 533.4921875 556.9375 c 0
 543.6919746 553.077181161 548.90627415 542.896720495 548.90627415 529.420066581 c 0
 548.90627415 484.618988437 491.281563658 403.390739248 367.625976562 396.830078125 c 1
 391.888110035 395.792837191 477.424220616 296.241454233 477.424220616 192.677082198 c 0
 477.424220616 141.889658298 456.853897415 90.1371626668 398.399414062 48.564453125 c 0
 350.484618032 14.4960139684 290.930569968 0.602995314498 234.680032934 0.602995314498 c 0
 159.633939409 0.602995314498 90.4678630702 25.3315909595 62.666015625 59.8701171875 c 0
 35.2080854317 93.9654136965 23.9911661 132.839124779 23.9911661 171.771024835 c 0
 23.9911661 283.625373988 116.582032347 395.960048206 182.612304688 396.830078125 c 1xdb
115.146484375 114.697265625 m 0
 125.155501466 94.7002882804 174.229471152 80.817481353 228.845309047 80.817481353 c 0
 308.168122889 80.817481353 399.180955686 110.101879682 399.180955686 192.471025814 c 0
 399.180955686 195.420396522 399.064266065 198.437828391 398.826171875 201.524414062 c 0
 391.495891226 295.758141051 319.893928674 353.508107039 274.103723276 353.508107039 c 0
 271.250042467 353.508107039 268.496611379 353.283813203 265.865234375 352.830078125 c 0
 264.326675798 353.080740456 262.67851313 353.204080834 260.930906685 353.204080834 c 0
 215.227498786 353.204080834 101.511783589 268.848237768 101.511783589 171.351245456 c 0x9b
 101.511783589 152.779340167 105.637990204 133.730604593 115.146484375 114.697265625 c 0
EndSplineSet
Validated: 1
EndChar

StartChar: nine
Encoding: 57 57 62
Width: 726
VWidth: 863
Flags: W
HStem: 0.187194 21G<76.5277 124.307> 299.564 89.2676<271.648 436.292> 683.238 91.0343<322.249 530.699>
VStem: 92.7313 114.245<444.995 560.803> 572.796 109.011<502.045 643.208>
LayerCount: 2
Fore
SplineSet
491.5 337.446289062 m 1
 431.667097478 319.07393136 368.258908826 299.564147939 305.572991822 299.564147939 c 0
 260.528649704 299.564147939 215.857249415 309.637939912 173.153320312 337.446289062 c 0
 116.038013135 374.513845972 92.7312701388 422.77716444 92.7312701388 473.574876078 c 0
 92.7312701388 602.647353625 243.204964349 748.082456484 371.873046875 767.79296875 c 0
 397.69580987 771.737129764 429.01170989 774.2727509 460.392123322 774.2727509 c 0
 515.146568002 774.2727509 570.097426233 766.552955353 596.40625 745.125976562 c 0
 656.979990572 695.97637902 681.80756587 633.070587361 681.80756587 565.576004922 c 0
 681.80756587 402.731047369 537.281856881 213.17392671 401.580078125 125.659179688 c 0
 276.589115179 49.6276761448 165.068870432 0.187194052759 83.5447413355 0.187194052759 c 0
 69.5105873499 0.187194052759 56.3653584415 1.65234657005 44.193359375 4.69921875 c 1
 78.5927734375 96.69921875 185.366210938 100.112304688 262.646484375 145.979492188 c 0
 363.712890625 205.872070312 414.486328125 250.352539062 491.5 337.446289062 c 1
348.0859375 673.446289062 m 0
 276.820972963 648.069499186 206.976373097 572.872287271 206.976373097 504.277566568 c 0
 206.976373097 478.877962345 216.552840802 454.383632746 239.1796875 433.659179688 c 0
 273.5659426 402.167759028 314.659623187 388.831712947 356.061923759 388.831712947 c 0
 463.392000895 388.831712947 572.796122096 478.455031863 572.796122096 573.740702548 c 0
 572.796122096 598.131918789 565.62733959 622.894164638 549.419921875 646.619140625 c 0
 532.98615486 670.667654189 473.841160031 683.238424265 419.855898532 683.238424265 c 0
 392.546526798 683.238424265 366.557539073 680.021544103 348.0859375 673.446289062 c 0
EndSplineSet
Validated: 1
EndChar

StartChar: exclam
Encoding: 33 33 63
Width: 214
VWidth: 863
Flags: W
HStem: 683.982 20G<134.145 174.647>
VStem: 39.286 106.073<-28.3938 56.0464> 83.6308 79.7068<251.953 655.431>
LayerCount: 2
Fore
SplineSet
174.713867188 703.982421875 m 1xa0
 174.581054688 638.9609375 171.203125 575.271484375 165.248046875 510.6484375 c 0
 163.267162767 489.010332068 162.755976284 467.168164257 162.755976284 445.302783196 c 0
 162.755976284 421.980597899 163.337548624 398.632003095 163.337548624 375.476457583 c 0
 163.337548624 355.858009723 151.537076138 194.908336189 108.976690258 194.908336189 c 0
 101.638696518 194.908336189 93.3903914872 199.734099764 84.13671875 210.9609375 c 0
 76.3923920755 220.330204756 73.8311064371 234.488404021 73.8311064371 250.395283728 c 0
 73.8311064371 283.574566691 83.6307832338 319.481339222 83.6307832338 344.700466866 c 0
 83.6307832338 381.445425636 78.8563020527 438.2703344 78.8563020527 495.967571676 c 0
 78.8563020527 597.278113532 93.576899131 701.278203439 174.713867188 703.982421875 c 1xa0
67.55859375 -63.1728515625 m 0
 66.0970879389 -63.839010366 64.6456335344 -64.1572790874 63.216787807 -64.1572790874 c 0
 50.332171675 -64.1572790874 39.2859869758 -38.2771614032 39.2859869758 -8.2371068597 c 0xc0
 39.2859869758 24.8470652328 52.6843397764 62.9769887035 91.78125 77.1376953125 c 0
 96.6302304382 78.8937634423 101.172989156 79.6973651207 105.400037046 79.6973651207 c 0
 131.311060169 79.6973651207 145.359363736 49.5023242011 145.359363736 23.3996081494 c 0
 145.359363736 18.5164595393 144.867717897 13.7765292534 143.870117188 9.404296875 c 0
 135.025390625 -29.306640625 102.713867188 -50.90625 67.55859375 -63.1728515625 c 0
EndSplineSet
Validated: 1
EndChar

StartChar: quotedbl
Encoding: 34 34 64
Width: 500
VWidth: 855
Flags: W
VStem: 110.95 110.7<610.137 833.038> 306.25 109.8<569.991 889.821>
LayerCount: 2
Fore
SplineSet
110.950195312 647.400390625 m 0
 110.950195312 655.5 110.950195312 662.700195312 111.849609375 667.200195312 c 0
 118.150390625 741.900390625 126.25 828.299804688 148.75 890.400390625 c 0
 166.75 937.200195312 190.150390625 963.299804688 216.25 971.400390625 c 0
 217.150390625 969.599609375 217.150390625 967.799804688 218.049804688 965.099609375 c 0
 219.849609375 955.200195312 221.650390625 940.799804688 221.650390625 921 c 0
 221.650390625 903 220.75 877.799804688 219.849609375 854.400390625 c 0
 217.150390625 792.299804688 218.049804688 702.299804688 209.049804688 654.599609375 c 0
 203.650390625 630.299804688 198.25 589.799804688 182.049804688 552.900390625 c 0
 174.849609375 536.700195312 165.849609375 521.400390625 159.549804688 515.099609375 c 0
 156.849609375 512.400390625 155.049804688 511.5 154.150390625 511.5 c 0
 152.349609375 512.400390625 146.950195312 514.200195312 137.950195312 523.200195312 c 0
 136.150390625 525 133.450195312 529.5 129.849609375 535.799804688 c 0
 116.349609375 561.900390625 110.950195312 614.099609375 110.950195312 647.400390625 c 0
416.049804688 682.5 m 0
 416.049804688 660 415.150390625 641.099609375 412.450195312 628.5 c 0
 410.650390625 617.700195312 399.849609375 576.299804688 382.75 543.900390625 c 0
 374.650390625 530.400390625 366.549804688 517.799804688 360.25 512.400390625 c 0
 355.75 508.799804688 353.049804688 508.799804688 352.150390625 508.799804688 c 0
 351.25 508.799804688 343.150390625 510.599609375 330.549804688 523.200195312 c 0
 328.75 525 326.049804688 527.700195312 323.349609375 534 c 0
 310.75 559.200195312 306.25 606.900390625 306.25 642 c 0
 306.25 653.700195312 307.150390625 664.5 307.150390625 670.799804688 c 0
 313.450195312 750 311.650390625 848.099609375 333.25 907.5 c 0
 344.950195312 939.900390625 362.049804688 960.599609375 388.150390625 973.200195312 c 1
 390.849609375 969.599609375 395.349609375 965.099609375 398.950195312 957 c 0
 407.049804688 939 412.450195312 907.5 412.450195312 870.599609375 c 0
 412.450195312 858 411.549804688 847.200195312 411.549804688 833.700195312 c 0
 411.549804688 787.799804688 416.049804688 728.400390625 416.049804688 682.5 c 0
EndSplineSet
Validated: 524289
EndChar

StartChar: numbersign
Encoding: 35 35 65
Width: 898
VWidth: 862
HStem: 83.7305 84.665<193.206 274.438> 97.7422 70.7344<364.172 495.24> 120.095 86.8613<616.933 825.376> 365.701 63.4521<74.0405 121.733> 411.346 90.7041<428.476 557.408> 445.179 57.6162<783.208 838.39> 684.752 20G<645.123 657.232>
VStem: 258.934 60.3467<-57.1048 54.9511> 288.544 75.4941<168.396 338.958> 482.564 64.4219<-116.72 -0.607235> 560.334 56.3359<202.378 354.967> 575.996 100.638<503.841 645.705>
LayerCount: 2
Fore
SplineSet
346.986328125 471.578125 m 1x9340
 346.986328125 471.578125 391.336914062 741.34375 452.866210938 741.34375 c 0
 455.09375 741.34375 457.344726562 740.990234375 459.6171875 740.256835938 c 0
 474.51171875 735.424804688 480.15234375 719.009765625 480.15234375 696.701171875 c 0
 480.15234375 634.758789062 436.666992188 527.37890625 427.0703125 496.357421875 c 1
 457.099609375 499.809570312 483.993164062 502.049804688 509.854492188 502.049804688 c 0
 532.219726562 502.049804688 553.813476562 500.374023438 575.99609375 496.357421875 c 1
 579.23828125 541.515625 588.543945312 702.694335938 644.165039062 704.732421875 c 0
 644.551757812 704.745117188 644.93359375 704.751953125 645.311523438 704.751953125 c 0
 669.15234375 704.751953125 676.633789062 678.240234375 676.633789062 644.111328125 c 0x0b50
 676.633789062 592.838867188 659.748046875 524.375976562 656.080078125 502.794921875 c 1
 663.380859375 503.440429688 731.282226562 505.364257812 781.836914062 505.364257812 c 0
 811.169921875 505.364257812 834.6640625 504.716796875 837.090820312 502.794921875 c 0
 837.587890625 502.421875 838.65234375 481.418945312 838.65234375 464.852539062 c 0
 838.65234375 454.7421875 838.255859375 446.284179688 837.090820312 445.178710938 c 0
 827.954101562 436.33203125 709.385742188 453.098632812 667.322265625 408.403320312 c 0
 626.143554688 364.541992188 617.849609375 261.536132812 616.669921875 202.159179688 c 1
 660.06640625 202.159179688 701.2734375 206.956054688 742.7109375 206.956054688 c 0
 763.4296875 206.956054688 784.20703125 205.756835938 805.34375 202.159179688 c 0
 822.461914062 199.208984375 842.686523438 184.8203125 842.686523438 167.759765625 c 0
 842.686523438 160.984375 839.498046875 153.7890625 831.659179688 146.719726562 c 0
 805.622070312 123.350585938 769.529296875 120.094726562 731.313476562 120.094726562 c 0x2660
 716.548828125 120.094726562 701.466796875 120.581054688 686.525390625 120.581054688 c 0
 652.834960938 120.581054688 619.858398438 118.110351562 592.837890625 102.024414062 c 0
 572.038085938 89.6123046875 549.1328125 -78.05078125 546.986328125 -104.21875 c 0
 546.120117188 -114.6640625 534.169921875 -118.544921875 520.793945312 -118.544921875 c 0
 502.970703125 -118.544921875 482.61328125 -111.654296875 482.564453125 -104.21875 c 2
 495.744140625 90.8623046875 l 1
 471.494140625 91.435546875 437.85546875 97.7421875 406.745117188 97.7421875 c 0
 385.02734375 97.7421875 364.541992188 94.66796875 349.34375 84.4248046875 c 0
 343.99609375 80.8115234375 319.575195312 -55.6337890625 319.280273438 -55.912109375 c 0
 315.361328125 -60.0849609375 309.067382812 -61.8837890625 301.9921875 -61.8837890625 c 0
 283.21484375 -61.8837890625 258.93359375 -49.212890625 258.93359375 -34.6142578125 c 0x4360
 258.93359375 -18.9638671875 274.431640625 83.5458984375 274.438476562 83.73046875 c 2
 62.1435546875 102.024414062 l 2
 57.439453125 108.069335938 55.3134765625 117.764648438 55.3134765625 128.071289062 c 0
 55.3134765625 139.166992188 57.77734375 150.970703125 62.1435546875 159.6875 c 2
 288.543945312 168.395507812 l 2x82c0
 291.028320312 236.7578125 312.75390625 368.43359375 319.280273438 388.811523438 c 1
 298.977539062 384.00390625 215.65625 364.526367188 122.330078125 364.526367188 c 0
 109.594726562 364.526367188 96.673828125 364.888671875 83.701171875 365.701171875 c 0
 75.662109375 375.18359375 71.7939453125 383.956054688 71.7939453125 393.765625 c 0
 71.7939453125 403.837890625 75.873046875 415.00390625 83.701171875 429.153320312 c 0
 171.44921875 463.936523438 254.438476562 459.490234375 346.986328125 471.578125 c 1x9340
546.986328125 408.403320312 m 0
 531.71484375 410.375 517.7265625 411.345703125 504.9140625 411.345703125 c 0
 381.083984375 411.345703125 366.9765625 320.751953125 364.038085938 168.348632812 c 1
 368.094726562 168.4375 372.12109375 168.4765625 376.112304688 168.4765625 c 0
 404.947265625 168.4765625 431.962890625 166.438476562 455.647460938 166.438476562 c 0
 490.200195312 166.438476562 517.663085938 170.776367188 533.34375 192.108398438 c 0
 548.212890625 212.309570312 560.333984375 293.533203125 560.333984375 350.487304688 c 0x4ae0
 560.333984375 382.721679688 556.451171875 407.181640625 546.986328125 408.403320312 c 0
EndSplineSet
Validated: 524289
EndChar

StartChar: dollar
Encoding: 36 36 66
Width: 515
VWidth: 861
Flags: W
HStem: 165.6 73.5<130.143 234.245> 553.05 21G<387.7 440.2> 632.85 59.8506<337.637 375.954>
VStem: 67.4502 61.9502<222.825 274.45> 138.85 77.7002<498.011 557.692> 237.55 61.9502<270.469 393.199> 240.7 72.4502<45.2002 177.988> 268 69.2998<692.7 825.386> 378.25 68.25<296.906 377.712> 390.85 56.7002<553.304 628.261>
LayerCount: 2
Fore
SplineSet
306.849609375 164.549804688 m 0xf880
 306.849609375 143.549804688 313.150390625 120.450195312 313.150390625 98.400390625 c 0
 313.150390625 94.2001953125 312.099609375 91.0498046875 312.099609375 86.849609375 c 0
 301.599609375 -1.349609375 245.950195312 -17.099609375 243.849609375 -18.150390625 c 2
 230.200195312 -21.2998046875 l 1
 240.700195312 178.200195312 l 1xfa80
 216.549804688 171.900390625 186.099609375 165.599609375 157.75 165.599609375 c 0
 137.799804688 165.599609375 116.799804688 168.75 100 179.25 c 0
 77.9501953125 191.849609375 67.4501953125 212.849609375 67.4501953125 232.799804688 c 0
 67.4501953125 258 86.349609375 282.150390625 118.900390625 284.25 c 2
 131.5 285.299804688 l 1
 130.450195312 279 129.400390625 272.700195312 129.400390625 265.349609375 c 0
 129.400390625 246.450195312 145.150390625 239.099609375 175.599609375 239.099609375 c 0
 195.549804688 239.099609375 216.549804688 242.25 234.400390625 245.400390625 c 1
 235.450195312 256.950195312 237.549804688 280.049804688 237.549804688 307.349609375 c 0xfc
 237.549804688 343.049804688 234.400390625 385.049804688 222.849609375 410.25 c 0
 215.5 427.049804688 200.799804688 436.5 185.049804688 448.049804688 c 0
 164.049804688 462.75 138.849609375 480.599609375 138.849609375 519.450195312 c 0
 138.849609375 524.700195312 138.849609375 529.950195312 139.900390625 536.25 c 0
 147.25 580.349609375 179.799804688 604.5 209.200195312 626.549804688 c 0
 223.900390625 638.099609375 238.599609375 648.599609375 249.099609375 661.200195312 c 0
 253.299804688 665.400390625 257.5 678 260.650390625 694.799804688 c 0
 263.799804688 714.75 266.950195312 738.900390625 268 760.950195312 c 0
 269.049804688 778.799804688 270.099609375 792.450195312 272.200195312 802.950195312 c 1
 280.599609375 817.650390625 291.099609375 831.299804688 305.799804688 831.299804688 c 0
 321.549804688 831.299804688 331 816.599609375 337.299804688 801.900390625 c 1
 337.299804688 692.700195312 l 1
 364.599609375 691.650390625 387.700195312 688.5 406.599609375 680.099609375 c 0
 432.849609375 667.5 447.549804688 643.349609375 447.549804688 609.75 c 0
 447.549804688 595.049804688 445.450195312 579.299804688 440.200195312 560.400390625 c 2
 438.099609375 553.049804688 l 1
 387.700195312 553.049804688 l 1
 388.75 561.450195312 390.849609375 569.849609375 390.849609375 579.299804688 c 0xf940
 390.849609375 598.200195312 384.549804688 617.099609375 376.150390625 626.549804688 c 0
 371.950195312 630.75 367.75 632.849609375 363.549804688 632.849609375 c 0
 357.25 632.849609375 346.75 628.650390625 334.150390625 608.700195312 c 0
 323.650390625 592.950195312 310 541.5 310 504.75 c 0
 310 487.950195312 313.150390625 475.349609375 317.349609375 470.099609375 c 0
 329.950195312 454.349609375 349.900390625 445.950195312 370.900390625 436.5 c 0
 405.549804688 421.799804688 446.5 402.900390625 446.5 345.150390625 c 0
 446.5 282.150390625 404.5 259.049804688 367.75 238.049804688 c 0
 341.5 223.349609375 319.450195312 209.700195312 311.049804688 187.650390625 c 0
 307.900390625 181.349609375 306.849609375 172.950195312 306.849609375 164.549804688 c 0xf880
378.25 340.950195312 m 0
 378.25 346.200195312 377.200195312 352.5 374.049804688 357.75 c 0
 370.900390625 364.049804688 359.349609375 376.650390625 345.700195312 386.099609375 c 0
 335.200195312 393.450195312 323.650390625 397.650390625 316.299804688 397.650390625 c 0
 312.099609375 397.650390625 310 396.599609375 306.849609375 393.450195312 c 0
 302.650390625 388.200195312 299.5 376.650390625 299.5 361.950195312 c 0xfc80
 299.5 349.349609375 301.599609375 335.700195312 301.599609375 324.150390625 c 0
 301.599609375 306.299804688 304.75 287.400390625 307.900390625 269.549804688 c 1
 321.549804688 272.700195312 329.950195312 273.75 340.450195312 282.150390625 c 0
 359.349609375 296.849609375 378.25 319.950195312 378.25 340.950195312 c 0
216.549804688 523.650390625 m 0
 216.549804688 516.299804688 219.700195312 505.799804688 235.450195312 497.400390625 c 1
 245.950195312 564.599609375 l 1
 228.099609375 550.950195312 216.549804688 535.200195312 216.549804688 523.650390625 c 0
EndSplineSet
Validated: 524289
EndChar

StartChar: percent
Encoding: 37 37 67
Width: 669
VWidth: 863
Flags: W
HStem: 527 83<170.143 225.146> 693 20G<558.5 567>
VStem: 317.5 64<50.7179 120.562>
LayerCount: 2
Fore
SplineSet
221.5 527 m 0
 160.5 527 150.5 477 137.5 411 c 0
 136.5 407 135.5 402 134.5 398 c 1
 187.5 417 221.5 460 225.5 527 c 1
 224.5 527 222.5 527 221.5 527 c 0
316.5 569 m 1
 316.5 541 l 1
 313.5 538 l 2
 296.5 521 296.5 507 294.5 486 c 0
 293.5 474 292.5 460 286.5 444 c 0
 276.5 415 250.5 384 218.5 362 c 0
 193.5 344 163.5 332 135.5 332 c 0
 109.5 332 83.5 344 66.5 371 c 2
 65.5 373 l 1
 65.5 382 65.5 391 65.5 399 c 0
 65.5 401 65.5 402.996347699 65.5 404.988648254 c 0
 65.5 476.711468225 66.4459459459 543.189189189 136.5 586 c 0
 164.5 603 190.5 610 213.5 610 c 2
 214.5 610 l 1
 215.5 610 l 2
 257.5 609 288.5 586 316.5 569 c 1
381.5 64 m 0
 381.5 59 382.5 54 383.5 50 c 1
 427.5 63 462.5 83 487.5 110 c 0
 511.5 136 527.5 171 535.5 215 c 1
 505.5 212 461.5 186 428.5 152 c 0
 400.5 123 381.5 89 381.5 64 c 0
550.5 292 m 0
 592.5 292 603.5 252 603.5 219 c 0
 603.5 197 599.5 175 593.5 159 c 0
 562.5 74 490.5 2 397.5 -13 c 0
 391.5 -14 386.5 -15 381.5 -15 c 0
 335.5 -15 317.5 22 317.5 58 c 0
 317.5 77 321.5 96 329.5 113 c 0
 364.5 190 449.5 273 536.5 291 c 0
 541.5 292 545.5 292 550.5 292 c 0
562.5 713 m 0
 571.5 713 579.5 709 583.5 702 c 0
 586.5 697 587.5 690 587.5 684 c 0
 587.5 654 565.5 608 553.5 593 c 0
 432.5 437 337.5 264 232.5 95 c 0
 226.5 86 218.5 71 210.5 54 c 0
 196.5 25 179.5 -9 159.5 -36 c 0
 143.5 -57 125.5 -74 103.5 -78 c 0
 101.5 -78 98.5 -79 96.5 -79 c 0
 88.5 -79 80.5 -76 75.5 -69 c 0
 71.5 -64 70.5 -57 70.5 -51 c 0
 70.5 -30 83.5 -1 98.5 28 c 0
 119.5 69 140.5 102 153.5 123 c 0
 239.5 264 324.5 403 413.5 542 c 0
 420.5 553 427.5 566 435.5 581 c 0
 449.5 607 465.5 636 484.5 660 c 0
 499.5 679 516.5 697 535.5 706 c 0
 545.5 711 554.5 713 562.5 713 c 0
EndSplineSet
Validated: 1
EndChar

StartChar: ampersand
Encoding: 38 38 68
Width: 568
VWidth: 860
Flags: W
HStem: 89.625 68.25<184.505 307.374> 732.225 67.2002<361.26 427.826>
VStem: 74.5254 69.2998<200.135 337.662> 229.925 75.6006<570.525 668.082> 428.375 65.0996<659.223 732.003>
LayerCount: 2
Fore
SplineSet
428.375 710.174804688 m 0
 428.375 723.825195312 418.924804688 732.224609375 406.325195312 732.224609375 c 0
 390.575195312 732.224609375 365.375 718.575195312 345.424804688 694.424804688 c 0
 323.375 669.224609375 305.525390625 630.375 305.525390625 595.724609375 c 0
 305.525390625 587.325195312 306.575195312 577.875 308.674804688 570.525390625 c 1
 316.025390625 573.674804688 325.474609375 579.974609375 334.924804688 586.275390625 c 0
 352.775390625 598.875 370.625 615.674804688 387.424804688 634.575195312 c 0
 411.575195312 661.875 428.375 691.275390625 428.375 710.174804688 c 0
143.825195312 264.974609375 m 0
 143.825195312 237.674804688 153.275390625 210.375 179.525390625 184.125 c 0
 195.275390625 168.375 223.625 157.875 249.875 157.875 c 0
 281.375 157.875 308.674804688 171.525390625 320.224609375 198.825195312 c 0
 328.625 217.724609375 330.724609375 232.424804688 330.724609375 247.125 c 0
 330.724609375 266.025390625 325.474609375 290.174804688 320.224609375 311.174804688 c 0
 309.724609375 357.375 280.325195312 411.974609375 265.625 458.174804688 c 1
 236.224609375 431.924804688 204.724609375 397.275390625 180.575195312 362.625 c 0
 158.525390625 330.075195312 143.825195312 297.525390625 143.825195312 264.974609375 c 0
319.174804688 107.474609375 m 1
 288.724609375 99.0751953125 258.275390625 89.625 224.674804688 89.625 c 0
 211.025390625 89.625 195.275390625 90.6748046875 180.575195312 94.875 c 0
 106.025390625 114.825195312 74.525390625 186.224609375 74.525390625 253.424804688 c 0
 74.525390625 260.775390625 74.525390625 267.075195312 75.5751953125 274.424804688 c 0
 85.025390625 374.174804688 142.775390625 495.974609375 234.125 541.125 c 1
 230.974609375 554.775390625 229.924804688 568.424804688 229.924804688 583.125 c 0
 229.924804688 650.325195312 258.275390625 719.625 310.775390625 764.775390625 c 0
 332.825195312 783.674804688 372.724609375 799.424804688 410.525390625 799.424804688 c 0
 443.075195312 799.424804688 476.674804688 785.775390625 488.224609375 747.974609375 c 0
 492.424804688 734.325195312 493.474609375 721.724609375 493.474609375 709.125 c 0
 493.474609375 637.724609375 434.674804688 587.325195312 389.525390625 546.375 c 0
 368.525390625 527.474609375 350.674804688 510.674804688 340.174804688 495.974609375 c 1
 340.174804688 484.424804688 348.575195312 440.325195312 361.174804688 393.075195312 c 0
 373.775390625 346.875 388.474609375 295.424804688 401.075195312 258.674804688 c 1
 413.674804688 291.224609375 434.674804688 322.724609375 477.724609375 323.775390625 c 2
 488.224609375 324.825195312 l 1
 488.224609375 320.625 488.224609375 315.375 488.224609375 310.125 c 0
 488.224609375 262.875 463.025390625 225.075195312 442.025390625 190.424804688 c 0
 430.474609375 172.575195312 419.974609375 155.775390625 413.674804688 140.025390625 c 0
 392.674804688 89.625 375.875 58.125 338.075195312 11.9248046875 c 0
 332.825195312 5.625 313.924804688 -13.275390625 292.924804688 -31.125 c 0
 283.474609375 -38.474609375 272.974609375 -45.8251953125 263.525390625 -51.0751953125 c 0
 256.174804688 -55.275390625 248.825195312 -58.4248046875 240.424804688 -58.4248046875 c 0
 227.825195312 -58.4248046875 218.375 -47.9248046875 218.375 -33.224609375 c 0
 218.375 -22.724609375 223.625 -14.3251953125 229.924804688 -6.974609375 c 0
 240.424804688 5.625 253.025390625 12.974609375 263.525390625 22.4248046875 c 0
 290.825195312 46.5751953125 307.625 73.875 319.174804688 107.474609375 c 1
EndSplineSet
Validated: 524289
EndChar

StartChar: quotesingle
Encoding: 39 39 69
Width: 292
VWidth: 844
Flags: W
VStem: 98.2002 111.6<672.754 862.739>
LayerCount: 2
Fore
SplineSet
98.2001953125 679.849609375 m 0
 98.2001953125 749.150390625 104.5 814.849609375 122.5 870.650390625 c 0
 127 885.950195312 134.200195312 895.849609375 139.599609375 900.349609375 c 0
 145 903.950195312 146.799804688 904.849609375 149.5 905.75 c 0
 154 903.950195312 157.599609375 903.049804688 161.200195312 902.150390625 c 0
 178.299804688 895.849609375 196.299804688 889.549804688 207.099609375 878.75 c 1
 208 867.049804688 209.799804688 846.349609375 209.799804688 820.25 c 0
 208.900390625 811.25 207.099609375 804.950195312 206.200195312 795.049804688 c 0
 201.700195312 753.650390625 193.599609375 686.150390625 173.799804688 610.549804688 c 0
 159.400390625 554.75 138.700195312 497.150390625 109.900390625 451.25 c 1
 105.400390625 525.950195312 98.2001953125 604.25 98.2001953125 679.849609375 c 0
EndSplineSet
Validated: 524289
EndChar

StartChar: parenleft
Encoding: 40 40 70
Width: 653
VWidth: 861
Flags: W
HStem: -208.393 87.8906<378.144 454.45> 711.369 90.5127<456.943 547.258>
VStem: 72.2676 79.6982<32.6997 229.799>
LayerCount: 2
Fore
SplineSet
524.46875 -120.501953125 m 0
 507.004882812 -184.120117188 463.228515625 -208.392578125 409.952148438 -208.392578125 c 0
 301.200195312 -208.392578125 152.860351562 -107.252929688 107.935546875 -33.177734375 c 0
 81.9306640625 9.7587890625 72.267578125 53.8818359375 72.267578125 98.63671875 c 0
 72.267578125 160.739257812 90.8740234375 224.057617188 110.247070312 287.107421875 c 0
 168.217773438 475.637695312 293.541992188 801.881835938 482.721679688 801.881835938 c 0
 496.30859375 801.881835938 510.224609375 800.19921875 524.46875 796.661132812 c 0
 556.125 780.377929688 580.732421875 762.357421875 580.732421875 738.313476562 c 0
 580.732421875 729.512695312 577.435546875 719.905273438 569.98046875 709.280273438 c 0
 560.45703125 710.6875 551.0625 711.369140625 541.801757812 711.369140625 c 0
 369.840820312 711.369140625 243.842773438 476.3671875 190.958007812 287.107421875 c 0
 176.701171875 235.99609375 151.965820312 174.643554688 151.965820312 116.848632812 c 0
 151.965820312 100.409179688 153.967773438 84.2578125 158.780273438 68.7119140625 c 0
 209.001953125 -93.30859375 409.091796875 -108.896484375 524.46875 -120.501953125 c 0
EndSplineSet
Validated: 524289
EndChar

StartChar: parenright
Encoding: 41 41 71
Width: 598
VWidth: 861
Flags: W
HStem: 749.904 54.9463<181.401 246.407>
VStem: 149.675 28.0059<712.898 773.861> 421.812 96.2354<259.237 494.119>
LayerCount: 2
Fore
SplineSet
195.810546875 668.650390625 m 0
 167.639648438 696.153320312 149.674804688 732.955078125 149.674804688 761.370117188 c 0
 149.674804688 786.3515625 163.560546875 804.850585938 196.604492188 804.850585938 c 0
 203.516601562 804.850585938 211.267578125 804.041015625 219.905273438 802.311523438 c 0
 291.010742188 787.975585938 373.034179688 733.40234375 422.494140625 667.265625 c 0
 488.930664062 578.3125 518.047851562 472.7890625 518.047851562 366.372070312 c 0
 518.047851562 92.736328125 325.529296875 -186.799804688 79.9521484375 -205.665039062 c 1
 157.758789062 -37.84375 421.8125 130.751953125 421.8125 373.393554688 c 0
 421.8125 417.801757812 412.967773438 464.689453125 392.517578125 514.5078125 c 0
 361.435546875 590.048828125 263.8125 749.904296875 200.288085938 749.904296875 c 0
 194.467773438 749.904296875 188.93359375 748.5625 183.763671875 745.690429688 c 0
 179.365234375 743.255859375 177.680664062 737.752929688 177.680664062 730.749023438 c 0
 177.680664062 707.776367188 195.810546875 668.650390625 195.810546875 668.650390625 c 0
EndSplineSet
Validated: 524289
EndChar

StartChar: asterisk
Encoding: 42 42 72
Width: 815
VWidth: 861
Flags: W
HStem: 279 96<542.464 753.546> 304 80<128.443 290.577> 649 20G<226.5 231.5 700.5 704>
LayerCount: 2
Fore
SplineSet
624.5 375 m 0xa0
 679.5 375 744.5 373 764.5 342 c 0
 768.5 335 772.5 326 772.5 311 c 0
 772.5 304 771.5 296 769.5 287 c 0
 766.5 286 761.5 284 755.5 283 c 0
 743.5 281 727.5 279 708.5 279 c 0xa0
 655.5 279 584.5 289 532.5 303 c 2
 474.5 318 l 1
 497.5 262 l 2
 511.5 227 535.5 191 560.5 153 c 0
 584.5 116 609.5 77 625.5 42 c 0
 638.5 14 646.5 -12 646.5 -31 c 0
 646.5 -34 646.5 -36 646.5 -38 c 0
 645.5 -50 641.5 -54 637.5 -56 c 0
 634.5 -58 629.5 -60 621.5 -60 c 0
 608.5 -60 591.5 -54 581.5 -46 c 0
 560.5 -30 541.5 -4 524.5 27 c 0
 503.5 65 484.5 110 468.5 151 c 0
 457.5 180 447.5 206 435.5 234 c 1
 403.5 201 l 1
 403.5 201 240.5 29 181.5 -18 c 0
 178.5 -20 169.5 -25 158.5 -28 c 0
 144.5 -32 128.5 -35 115.5 -35 c 0
 111.5 -35 107.5 -35 104.5 -35 c 1
 113.5 -16 136.5 20 167.5 61 c 0
 211.5 118 273.5 188 335.5 253 c 2
 384.5 304 l 1
 313.5 304 l 2
 261.5 304 175.5 312 113.5 330 c 0
 85.5 338 64.5 348 52.5 357 c 0
 43.5 364 42.5 369 42.5 370 c 2
 42.5 370 42.5 371 42.5 372 c 0
 45.5 374 54.5 378 66.5 380 c 0
 81.5 383 101.5 384 124.5 384 c 0x60
 184.5 384 260.5 373 303.5 358 c 2
 359.5 338 l 1
 342.5 395 l 2
 335.5 418 322.5 440 307.5 461 c 0
 289.5 488 268.5 513 248.5 537 c 0
 234.5 553 221.5 569 212.5 582 c 1
 208.5 598 204.5 617 204.5 633 c 0
 204.5 644 206.5 653 209.5 658 c 0
 211.5 661 212.5 663 215.5 665 c 0
 217.5 666 223.5 669 229.5 669 c 0
 233.5 669 243.5 666 256.5 656 c 0
 313.5 610 376.5 481 401.5 429 c 0
 406.5 420 408.5 413 411.5 408 c 0
 414.5 403 417.5 398 424.5 394 c 0
 427.5 392 431.5 389 439.5 389 c 0
 446.5 389 455.5 392 460.5 397 c 0
 466.5 402 462.5 400 465.5 404 c 0
 486.5 435 538.5 512 601.5 582 c 0
 627.5 611 654.5 638 676.5 654 c 0
 687.5 662 696.5 666 704.5 669 c 1
 703.5 661 700.5 652 699.5 648 c 1
 540.5 375 l 1
 592.5 375 l 2
 603.5 375 613.5 375 624.5 375 c 0xa0
EndSplineSet
Validated: 1
EndChar

StartChar: plus
Encoding: 43 43 73
Width: 608
VWidth: 866
Flags: W
HStem: 686.091 20G<308.506 336.856>
VStem: 245.455 129.979<441.661 660.863>
LayerCount: 2
Fore
SplineSet
285.305664062 702.09765625 m 1
 295.404025928 704.81478876 304.456409231 706.09143103 312.555588747 706.09143103 c 0
 361.157059569 706.09143103 375.434163642 660.120214676 375.434163642 603.582914457 c 0
 375.434163642 538.643917202 356.598490322 459.765166974 349.305664062 420.59765625 c 1
 375.043520806 426.971729859 400.053256206 430.194845819 424.320494972 430.194845819 c 0
 470.296451125 430.194845819 513.607296275 418.625821227 554.155273438 394.997070312 c 1
 494.10546875 299.09765625 355.555664062 381.397460938 331.755859375 305.447265625 c 0
 299.455078125 202.447265625 318.405273438 49.5478515625 236.005859375 -32.1025390625 c 0
 226.724350086 -41.2921294047 217.875968039 -45.116433226 209.907667213 -45.116433226 c 0
 188.47435349 -45.116433226 173.408554414 -17.4470431448 173.408554414 7.90228288305 c 0
 173.408554414 102.843855448 216.411532005 211.830964825 234.10546875 305.447265625 c 1
 213.845208355 302.141198029 193.584947959 300.531053889 173.324687564 300.531053889 c 0
 54.85546875 318.247070312 l 0
 54.1728984602 322.884841848 53.8440904059 327.275713104 53.8440904059 331.434546924 c 0
 53.8440904059 413.183249957 180.890107799 405.276509041 245.455078125 420.59765625 c 0
 247.60546875 501.247070312 258.755859375 693.547851562 285.305664062 702.09765625 c 1
EndSplineSet
Validated: 1
EndChar

StartChar: comma
Encoding: 44 44 74
Width: 374
VWidth: 863
Flags: W
VStem: 242.859 109.061<68.8926 154.05>
LayerCount: 2
Fore
SplineSet
351.919921875 141.700195312 m 0
 351.919921875 109.220703125 334.630859375 73.3798828125 316.674804688 45.3798828125 c 0
 264.805664062 -35.259765625 139.78515625 -147.259765625 22.080078125 -188.700195312 c 1
 64.640625 -160.139648438 115.844726562 -118.700195312 157.740234375 -71.66015625 c 0
 205.620117188 -18.4599609375 242.859375 43.1396484375 242.859375 101.939453125 c 0
 242.859375 112.020507812 242.194335938 122.099609375 239.53515625 132.1796875 c 0
 236.875 142.8203125 229.559570312 150.099609375 220.25 154.580078125 c 0
 208.280273438 160.740234375 194.315429688 162.979492188 182.344726562 164.099609375 c 1
 190.325195312 170.8203125 202.294921875 178.66015625 214.930664062 186.5 c 0
 237.540039062 199.939453125 264.140625 211.700195312 287.415039062 211.700195312 c 0
 303.375 211.700195312 318.669921875 207.220703125 331.969726562 193.220703125 c 0
 346.599609375 178.099609375 351.919921875 160.740234375 351.919921875 141.700195312 c 0
EndSplineSet
Validated: 524289
EndChar

StartChar: hyphen
Encoding: 45 45 75
Width: 718
VWidth: 878
Flags: W
HStem: 289.022 131.071<77.5372 246.656> 377.208 105.286<508.718 645.12>
LayerCount: 2
Fore
SplineSet
231.181640625 410.694335938 m 5x80
 236.369004035 410.296932315 241.611734096 410.107883251 246.904526364 410.107883251 c 0
 298.644268148 410.107883251 355.167983854 428.173523048 411.520507812 446.270507812 c 4
 469.815005268 464.395280004 528.248117111 482.494142964 580.758071264 482.494142964 c 0
 592.723568931 482.494142964 604.381505397 481.554355719 615.66015625 479.4609375 c 4
 639.759765625 474.987304688 662.033203125 464.76171875 682.146484375 446.811523438 c 5
 662.509765625 410.85546875 641.366210938 390.409179688 616.543945312 382.831054688 c 4
 604.985801596 378.603250395 593.133506347 377.207689881 580.900978747 377.207689881 c 0x40
 569.746516479 377.207689881 558.275889108 378.368105436 546.423828125 379.599609375 c 4
 534.043516086 381.345951956 521.305522136 382.859311713 508.099121117 382.859311713 c 0
 496.986460615 382.859311713 485.54214204 381.78776943 473.700195312 378.881835938 c 4
 430.538085938 367.599609375 387.256835938 354.30859375 345.860351562 340.668945312 c 4
 262.985702689 313.605829307 186.659803861 289.022212913 130.242366046 289.022212913 c 0
 120.524729974 289.022212913 111.397746655 289.751570179 102.9296875 291.323242188 c 4
 72.75 296.924804688 50.9609375 315.185546875 41.4765625 337.25390625 c 4
 38.4404296875 344.92578125 36.66015625 352.364257812 35.853515625 356.575195312 c 5
 36.4365234375 357.482421875 37.396484375 359.3359375 38.189453125 360.204101562 c 4
 44.82421875 370.141601562 56.564453125 382.178710938 69.607421875 392.958984375 c 4
 97.3321438237 413.963152239 130.35807115 420.093504404 159.539085958 420.093504404 c 0
 175.68250948 420.093504404 190.649202632 418.217318265 202.890625 415.9453125 c 6
 231.181640625 410.694335938 l 5x80
EndSplineSet
Validated: 1
EndChar

StartChar: period
Encoding: 46 46 76
Width: 351
VWidth: 763
Flags: W
HStem: -38.7998 112<108.75 219.588>
VStem: 57.9004 235.199
LayerCount: 2
Fore
SplineSet
236.400390625 73.2001953125 m 0
 255.299804688 73.2001953125 274.900390625 72.5 293.099609375 71.099609375 c 1
 287.5 40.2998046875 248.76171875 12.5634765625 232.200195312 -4.5 c 0
 209.099609375 -28.2998046875 206.299804688 -26.2001953125 188.799804688 -36.7001953125 c 0
 187.458007812 -37.505859375 186.864257812 -38.8642578125 185.299804688 -38.7998046875 c 0
 99.900390625 -35.2998046875 93.599609375 -32.5 67.7001953125 -3.1005859375 c 0
 63.3349609375 1.85546875 62.7998046875 13.7001953125 57.900390625 17.2001953125 c 1
 61.400390625 21.3994140625 65.599609375 24.8994140625 69.7998046875 28.3994140625 c 0
 84.5 41 107.599609375 52.8994140625 139.099609375 62 c 0
 173.192382812 71.8486328125 193 73.2001953125 236.400390625 73.2001953125 c 0
EndSplineSet
Validated: 524289
EndChar

StartChar: slash
Encoding: 47 47 77
Width: 572
VWidth: 860
Flags: W
LayerCount: 2
Fore
SplineSet
71.578125 -119.598632812 m 0
 62.5908203125 -120.116210938 53.3408203125 -115.142578125 47.7724609375 -103.346679688 c 0
 43.953125 -97.1103515625 42.8046875 -89.95703125 42.8046875 -81.37890625 c 0
 42.8046875 -60.521484375 51.4150390625 -39.1162109375 62.6640625 -16.5703125 c 0
 77.2294921875 14.009765625 96.8916015625 42.681640625 114.557617188 71.23828125 c 0
 121.970703125 83.78125 135.009765625 104.360351562 139.583984375 113.436523438 c 0
 225.133789062 293.5078125 302.223632812 483.005859375 392.029296875 657.815429688 c 0
 410.379882812 693.020507812 424.630859375 730.19140625 449.129882812 762.446289062 c 0
 464.166015625 783.139648438 482.458984375 798.513671875 502.431640625 799.666015625 c 0
 512.41796875 800.241210938 521.615234375 796.365234375 529.760742188 793.530273438 c 1
 526.974609375 788.963867188 524.222700146 784.344803511 524 779 c 0
 523 755 511.915039062 738.186523438 507.022460938 714.7734375 c 0
 502.918945312 695.811523438 497.81640625 676.791015625 488.719726562 657.541015625 c 0
 393.759765625 464.810546875 304.106445312 265.776367188 210.249023438 70.90625 c 0
 182.959960938 13.15625 153.515625 -41.4140625 119.919921875 -92.9189453125 c 0
 112.40234375 -103.265625 88.554791683 -118.620947999 71.578125 -119.598632812 c 0
EndSplineSet
Validated: 524289
EndChar

StartChar: colon
Encoding: 58 58 78
Width: 303
VWidth: 862
Flags: W
HStem: -45.1698 134.943<60.5623 134.559> 450.002 132.8<159.39 235.761>
VStem: 140.421 110.512<468.125 563.917>
LayerCount: 2
Fore
SplineSet
33.947265625 -26.9287109375 m 0
 33.0886622527 -20.5461590288 32.6820336411 -14.3202264815 32.6820336411 -8.27902803489 c 0
 32.6820336411 49.0715367601 69.3280801071 89.7735572972 103.824418324 89.7735572972 c 0
 128.197725533 89.7735572972 151.497877741 69.4547178021 160.041015625 20.3330078125 c 0
 146.748046875 -14.62109375 129.271484375 -34.806640625 108.1015625 -42.0673828125 c 0
 102.01216002 -44.1502161537 95.6240545151 -45.1698338294 88.9473850512 -45.1698338294 c 0
 72.3461018944 -45.1698338294 53.9607743807 -38.866055734 33.947265625 -26.9287109375 c 0
270.317382812 452.978515625 m 1
 255.692912516 450.941258303 242.532219991 450.001663178 230.725355135 450.001663178 c 0
 163.86739761 450.001663178 140.420502123 480.130181925 140.420502123 511.68622491 c 0
 140.420502123 546.381324015 168.764201586 582.802080917 198.917280386 582.802080917 c 0
 217.688345879 582.802080917 237.160614993 568.687646122 250.932617188 531.255859375 c 0
 255.486328125 518.947265625 258.748046875 505.716796875 261.701171875 492.424804688 c 0
 264.59375 479.071289062 267.178710938 465.655273438 270.317382812 452.978515625 c 1
EndSplineSet
Validated: 1
EndChar

StartChar: semicolon
Encoding: 59 59 79
Width: 392
VWidth: 860
Flags: W
HStem: 458.346 151.904<270.552 342.671>
VStem: 251.369 103.983<470.837 591.289> 260.664 94.7173<113.692 244.527>
LayerCount: 2
Fore
SplineSet
244.19140625 235.432617188 m 1xa0
 261.215599936 257.119794583 281.742769826 267.327456682 300.501461506 267.327456682 c 0
 330.150078004 267.327456682 355.380920579 241.828050922 355.380920579 195.850845562 c 0
 355.380920579 187.076474476 354.461998664 177.556290054 352.479492188 167.325195312 c 0
 325.513671875 28.5517578125 146.015625 -165.954101562 36.6181640625 -187.661132812 c 1
 36.6181640625 -187.661132812 260.663573779 74.9927574651 260.663573779 193.399526772 c 0
 260.663573779 211.076984317 255.669872116 225.539347704 244.19140625 235.432617188 c 1xa0
253.06640625 510.845703125 m 0
 251.90858755 517.753105904 251.368591958 524.416469856 251.368591958 530.796973658 c 0
 251.368591958 578.394203457 281.418533093 610.250692035 309.210176726 610.250692035 c 0
 333.116631811 610.250692035 355.352061484 586.67850904 355.352061484 529.27636492 c 0xc0
 355.352061484 517.309537936 354.385682847 503.872419971 352.266601562 488.872070312 c 0
 349.364817045 468.292309063 331.175890633 458.346314474 311.163845092 458.346314474 c 0
 307.63093965 458.346314474 304.041214878 458.656291339 300.46875 459.272460938 c 0
 276.618164062 463.325195312 253.53515625 480.92578125 253.06640625 510.845703125 c 0
EndSplineSet
Validated: 1
EndChar

StartChar: less
Encoding: 60 60 80
Width: 887
VWidth: 868
Flags: W
HStem: 658 20G<816 826.5>
LayerCount: 2
Fore
SplineSet
859.5 645 m 0
 859.5 634 856.5 621 851.5 611 c 0
 847.5 603 842.5 597 839.5 595 c 0
 795.5 564 660.5 494 527.5 427 c 0
 360.5 343 192.5 262 191.5 262 c 2
 70.5 205 l 1
 204.5 205 l 2
 298.5 205 383.5 189 477.5 169 c 0
 539.5 156 601.5 142 662.5 127 c 0
 699.5 118 740.5 108 777.5 93 c 0
 804.5 82 827.5 68 840.5 53 c 0
 848.5 45 850.5 37 850.5 31 c 0
 850.5 19 841.5 6 817.5 6 c 0
 816.5 6 l 0
 705.5 6 580.5 44 452.5 83 c 0
 358.5 112 263.5 140 171.5 153 c 0
 163.5 154 154.5 155 144.5 156 c 0
 113.5 159 74.5 164 50.5 174 c 0
 42.5 177 36.5 181 33.5 184 c 0
 29.5 188 27.5 191 27.5 196 c 0
 27.5 199 28.5 203 30.5 208 c 0
 38.5 232 53.5 256 76.5 281 c 0
 104.5 312 143.5 342 188.5 371 c 0
 289.5 436 419.5 494 524.5 540 c 0
 571.5 561 613.5 579 646.5 596 c 0
 662.5 604 677.5 614 694.5 624 c 0
 719.5 639 745.5 654 770.5 665 c 0
 790.5 674 808.5 678 823.5 678 c 0
 829.5 678 836.5 678 841.5 676 c 0
 849.5 673 852.5 670 855.5 664 c 0
 857.5 659 859.5 653 859.5 645 c 0
EndSplineSet
Validated: 1
EndChar

StartChar: equal
Encoding: 61 61 81
Width: 953
VWidth: 863
Flags: W
HStem: 231.415 63.9902<653.621 903.04> 502.675 80.1895<420.288 804.978>
LayerCount: 2
Fore
SplineSet
910.254882812 267.864257812 m 0
 910.254882812 265.435546875 910.254882812 261.385742188 908.635742188 257.334960938 c 0
 906.205078125 247.614257812 895.674804688 238.705078125 873.805664062 231.415039062 c 0
 839.78515625 220.885742188 798.474609375 221.694335938 761.21484375 219.264648438 c 0
 592.735351562 207.924804688 154.525390625 167.424804688 73.525390625 160.135742188 c 1
 67.85546875 168.235351562 65.4248046875 175.525390625 65.4248046875 181.194335938 c 1
 66.2353515625 183.625 67.85546875 194.96484375 77.5751953125 207.114257812 c 1
 238.764648438 277.584960938 446.125 283.254882812 635.665039062 287.3046875 c 0
 676.974609375 288.114257812 715.044921875 288.114257812 753.924804688 291.35546875 c 0
 774.174804688 292.974609375 800.094726562 295.405273438 825.205078125 295.405273438 c 0
 854.364257812 295.405273438 888.385742188 292.165039062 903.775390625 280.825195312 c 0
 908.635742188 276.775390625 910.254882812 274.344726562 910.254882812 267.864257812 c 0
634.044921875 502.674804688 m 0
 626.754882812 502.674804688 619.46484375 502.674804688 612.985351562 501.864257812 c 0
 446.935546875 485.665039062 258.205078125 465.415039062 96.205078125 465.415039062 c 0
 81.625 465.415039062 67.044921875 466.224609375 52.46484375 466.224609375 c 1
 45.1748046875 476.754882812 42.7451171875 486.474609375 42.7451171875 496.194335938 c 0
 42.7451171875 497.004882812 43.5546875 506.724609375 45.1748046875 512.39453125 c 1
 240.385742188 558.564453125 461.514648438 582.864257812 661.584960938 582.864257812 c 0
 664.825195312 582.864257812 668.064453125 582.864257812 671.305664062 582.864257812 c 0
 690.745117188 582.864257812 741.775390625 580.435546875 779.844726562 569.905273438 c 0
 791.185546875 566.665039062 800.905273438 563.424804688 808.1953125 559.375 c 0
 813.864257812 556.135742188 817.915039062 552.084960938 820.344726562 549.655273438 c 0
 822.775390625 546.415039062 823.584960938 544.794921875 823.584960938 542.364257812 c 0
 823.584960938 539.125 821.96484375 532.64453125 815.485351562 522.924804688 c 0
 811.435546875 517.254882812 804.14453125 511.584960938 789.564453125 507.53515625 c 0
 771.745117188 502.674804688 746.635742188 500.245117188 720.71484375 500.245117188 c 0
 692.364257812 500.245117188 661.584960938 502.674804688 634.044921875 502.674804688 c 0
EndSplineSet
Validated: 1
EndChar

StartChar: greater
Encoding: 62 62 82
Width: 908
VWidth: 868
Flags: W
HStem: 0 21G<51.5 70.5> 649 20G<156.5 228.5>
LayerCount: 2
Fore
SplineSet
171.5 669 m 0
 285.5 669 473.5 623 615.5 578 c 0
 638.5 571 714.5 539 775.5 504 c 0
 802.5 489 827.5 473 842.5 459 c 0
 853.5 449 858.5 441 858.5 440 c 0
 858.5 439 859.5 439 859.5 438 c 0
 859.5 433 855.5 425 834.5 413 c 0
 809.5 399 770.5 389 737.5 380 c 0
 718.5 375 700.5 371 686.5 365 c 0
 593.5 326 502.5 262 410.5 197 c 0
 334.5 144 258.5 91 183.5 52 c 0
 137.5 28 92.5 10 48.5 0 c 1
 54.5 23 65.5 45 81.5 68 c 0
 112.5 113 159.5 159 214.5 200 c 0
 338.770507812 292.637695312 472 374 569 406 c 2
 649 432 l 1
 86.5 651 l 1
 89.5 654 94.5 657 102.5 660 c 0
 118.5 666 141.5 669 171.5 669 c 0
EndSplineSet
Validated: 1
EndChar

StartChar: question
Encoding: 63 63 83
Width: 517
VWidth: 864
Flags: W
HStem: 96.9824 0.819998<233.541 238.02> 560.309 21G<59.2782 113.388> 678.835 83.8174<259.378 386.725>
VStem: 138.67 82.2535<14.854 73.7929>
LayerCount: 2
Fore
SplineSet
53.05078125 560.30859375 m 1
 65.5055878196 653.446700726 221.046809006 762.652410462 341.704344961 762.652410462 c 0
 387.467774359 762.652410462 428.212973566 746.942505215 454.229492188 708.6875 c 0
 461.09859071 698.592288333 463.949415907 688.242365858 463.949415907 677.92452131 c 0
 463.949415907 646.499871977 437.505028673 615.372778989 417.598632812 592.645507812 c 0
 348.966796875 514.4140625 252.671875 457.65625 197.008789062 368.224609375 c 0
 165.681640625 317.909179688 197.850585938 260.4765625 139.282226562 226.288085938 c 1
 132.772452475 260.594994536 110.937460441 296.033791842 110.937460441 331.48019635 c 0
 110.937460441 335.925568162 111.280879855 340.371059619 112.041015625 344.814453125 c 0
 137.471679688 493.319335938 314.987304688 559.803710938 387.240234375 678.834960938 c 1
 248.966796875 678.834960938 173.724609375 615.9296875 53.05078125 560.30859375 c 1
150.103515625 0.0146484375 m 1
 142.138555292 12.4931609333 138.670289447 24.0001090151 138.670289447 34.4021093477 c 0
 138.670289447 74.182252586 189.394037606 97.8024202486 233.321040769 97.8024202486 c 0
 238.020026172 97.8024202486 242.641235501 97.5321314691 247.114257812 96.982421875 c 1
 247.114257812 96.982421875 237.092773438 43.2978515625 220.923828125 27.1298828125 c 0
 204.755859375 10.9609375 150.103515625 0.0146484375 150.103515625 0.0146484375 c 1
EndSplineSet
Validated: 1
EndChar

StartChar: at
Encoding: 64 64 84
Width: 904
VWidth: 863
HStem: -0.0251303 81.4843<287.448 576.529> 155.643 104.328<391.105 542.639> 488.605 106.456<312.116 381.164> 680.994 94.1183<375.196 634.091>
VStem: 35.6322 70.3546<245.448 448.687> 186.381 71.7016<333.703 430.968> 390.323 83.1645<394.787 478.114> 755.58 64.7211<445.738 599.637>
LayerCount: 2
Fore
SplineSet
868.368164062 199.947265625 m 1
 868.368164062 199.908203125 l 2
 846.844726562 108.78515625 738.997070312 94.15625 676.368164062 60.4423828125 c 0
 605.957306728 22.5408118976 512.65606547 -0.0251302609068 419.103934038 -0.0251302609068 c 0
 227.892103329 -0.0251302609068 35.6321651905 94.2453276093 35.6321651905 344.522506895 c 0
 35.6321651905 357.638901815 36.1602154538 371.183775964 37.244140625 385.166015625 c 0
 58.3941399305 656.511000039 326.745439722 775.112124313 518.450089252 775.112124313 c 0
 525.641144527 775.112124313 532.724351542 774.945242593 539.682617188 774.61328125 c 0
 635.33984375 770.041992188 783.796875 703.83203125 811.94921875 574.841796875 c 0
 817.641402771 548.765560687 820.301460638 523.860802353 820.301460638 500.140253852 c 0
 820.301460638 274.145391527 578.845037803 155.642578125 417.701171875 155.642578125 c 0
 359.073242188 155.642578125 214.958984375 197.623046875 188.368164062 334.689453125 c 0
 187.023290528 341.614057655 186.381339738 348.912299834 186.381339738 356.492937691 c 0
 186.381339738 452.927192863 290.266352866 595.060712187 372.518136586 595.060712187 c 0
 389.659424245 595.060712187 405.861166889 588.887762374 419.987304688 574.841796875 c 0
 456.743782756 538.287562407 473.487851074 499.982235202 473.487851074 463.696449782 c 0
 473.487851074 431.649880158 460.427615 401.178536577 436.55859375 374.879882812 c 0
 423.113569226 360.2059296 385.36355863 326.986166906 385.36355863 298.114871984 c 0
 385.36355863 293.857282067 386.184500127 289.69425736 388.025390625 285.69921875 c 0
 397.902395562 264.394263261 427.67867439 259.970582102 453.3916102 259.970582102 c 0
 465.563997646 259.970582102 476.825776614 260.961943538 484.634765625 261.623046875 c 0
 560.482421875 267.947265625 638.42578125 296.9375 700.368164062 385.166015625 c 0
 742.197034849 444.70651321 755.580377957 492.174208435 755.580377957 528.596603493 c 0
 755.580377957 579.913098508 729.013435055 609.303841752 718.005859375 619.642578125 c 0
 683.474079334 652.032534239 593.912206996 680.993815585 493.295474375 680.993815585 c 0
 395.222819337 680.993815585 286.647277048 653.478581126 208.291992188 574.803710938 c 0
 139.148428092 505.342663724 105.98676474 421.785851532 105.98676474 343.662236126 c 0
 105.98676474 224.736235571 182.833472668 118.400776152 326.578125 93.546875 c 0
 372.363305826 85.6295761156 413.121416499 81.4591665579 451.605047088 81.4591665579 c 0
 528.29726956 81.4591665579 595.956477461 98.0217957843 676.368164062 134.499023438 c 0
 736.939453125 162.00390625 805.815429688 184.708984375 868.368164062 199.947265625 c 1
326.578125 486.727539062 m 0
 299.124261153 477.50104617 258.082914807 405.095010279 258.082914807 362.847681514 c 0
 258.082914807 344.967313303 265.434415566 332.489101164 284.278877369 332.489101164 c 0
 288.748485481 332.489101164 293.864645432 333.191079615 299.682617188 334.689453125 c 0
 340.482421875 345.204101562 373.053710938 379.490234375 388.025390625 426.194335938 c 0
 389.601340945 431.134227287 390.323339468 435.907449285 390.323339468 440.464781965 c 0
 390.323339468 468.669005656 362.670282759 488.604514996 338.641553679 488.604514996 c 0
 334.455271318 488.604514996 330.378996606 487.999421103 326.578125 486.727539062 c 0
EndSplineSet
Validated: 1
EndChar

StartChar: bracketleft
Encoding: 91 91 85
Width: 525
VWidth: 862
Flags: W
HStem: 699.991 97.0508<188.25 241.08>
LayerCount: 2
Fore
SplineSet
71.18359375 -199.149414062 m 1
 58.685546875 -144.994140625 53.892578125 -83.34765625 53.892578125 -18.0546875 c 0
 53.892578125 162.231445312 90.42578125 370.301757812 102.1171875 525.140625 c 0
 102.53515625 530.649414062 102.6953125 537.651367188 102.6953125 545.756835938 c 0
 102.6953125 571.952148438 101.025390625 609.680664062 101.025390625 645.866210938 c 0
 101.025390625 692.193359375 103.763671875 735.9921875 116.25 749.81640625 c 0
 148.9609375 786.051757812 209.314453125 797.041992188 273.078125 797.041992188 c 0
 347.140625 797.041992188 425.8046875 782.21484375 471.107421875 774.8984375 c 1
 471.107421875 737.469726562 l 1
 188.25 699.991210938 l 1
 150.078125 225.459960938 l 1
 129.697265625 -99.255859375 l 1
 451.564453125 -111.748046875 l 1
 410.306640625 -223.110351562 165.31640625 -174.309570312 71.18359375 -199.149414062 c 1
EndSplineSet
Validated: 524289
EndChar

StartChar: backslash
Encoding: 92 92 86
Width: 629
VWidth: 861
Flags: W
LayerCount: 2
Fore
SplineSet
63.9381957267 799.83927557 m 0
 64.2966276586 799.83927557 64.6539670102 799.829089572 65.009765625 799.80859375 c 0
 83.9833984375 798.713867188 105.063476562 778.7734375 114.579101562 768.311523438 c 0
 160.419921875 721.609375 198.314659753 661.000535242 235.024414062 606.055664062 c 0
 360 419 554 145 588.204101562 -93.9365234375 c 1
 579.477177157 -101.608823672 569.165721566 -106.345748361 556.556914044 -106.345748361 c 0
 555.575412971 -106.345748361 554.579991198 -106.317045182 553.5703125 -106.258789062 c 0
 546.580078125 -105.856445312 539.694335938 -103.256835938 531.809570312 -100.598632812 c 1
 422 147 288.405273438 362.116210938 158 577 c 0
 154.899414062 582.108398438 147.58984375 589.716796875 139.073242188 600.120117188 c 0
 101.77694447 644.541657674 40.7890588779 730.225309166 40.7890588779 773.774645753 c 0
 40.7890588779 789.924053323 52.5170757367 799.83927557 63.9381957267 799.83927557 c 0
EndSplineSet
Validated: 524289
EndChar

StartChar: bracketright
Encoding: 93 93 87
Width: 475
VWidth: 863
Flags: W
HStem: -189.37 84.04<62.6507 318.043> 710.709 60.9531<240.274 352.393> 739.821 51.1016<94.1855 191.166>
VStem: 329.372 81.3057<-71.9637 109.725> 342.048 68.2158<53.9599 340.144> 366.737 67.1807<326.238 696.074>
LayerCount: 2
Fore
SplineSet
85.9150390625 727.979492188 m 1xa4
 85.04296875 732.764648438 84.6240234375 737.211914062 84.6240234375 741.34375 c 0
 84.6240234375 779.931640625 121.196289062 790.922851562 166.953125 790.922851562 c 0xa4
 227.524414062 790.922851562 304.189453125 771.662109375 333.415039062 771.662109375 c 0
 345.319335938 771.662109375 361.8359375 774.075195312 377.993164062 774.075195312 c 0
 394.998046875 774.075195312 411.60546875 771.40234375 422.014648438 760.432617188 c 0
 431.288085938 750.66796875 433.91796875 728.354492188 433.91796875 703.170898438 c 0xc4
 433.91796875 670.172851562 429.403320312 632.244140625 429.403320312 611.146484375 c 0
 429.403320312 592.8671875 430.15625 574.623046875 430.15625 556.3984375 c 0
 430.15625 406.754882812 410.263671875 259.525390625 410.263671875 110.287109375 c 0xc8
 410.263671875 98.4296875 410.677734375 77.6513671875 410.677734375 52.7978515625 c 0
 410.677734375 7.107421875 409.280273438 -52.357421875 401.34765625 -95.48828125 c 1
 393.181640625 -189.897460938 l 1
 363.015625 -189.592773438 333.66796875 -189.370117188 304.653320312 -189.370117188 c 0
 240.404296875 -189.370117188 177.787109375 -190.461914062 111.514648438 -194.168945312 c 0
 110.666015625 -194.213867188 109.690429688 -194.239257812 108.60546875 -194.239257812 c 0
 90.3525390625 -194.239257812 41.08203125 -187.401367188 41.08203125 -161.39453125 c 0
 41.08203125 -155.743164062 43.4072265625 -149.189453125 48.880859375 -141.604492188 c 0
 72.2646484375 -109.26171875 110.692382812 -103.309570312 152.81640625 -103.309570312 c 0
 177.353515625 -103.309570312 203.145507812 -105.330078125 227.948242188 -105.330078125 c 0
 267.94140625 -105.330078125 305.36328125 -100.079101562 330.814453125 -72.6455078125 c 1
 329.80078125 -58.12109375 329.372070312 -42.208984375 329.372070312 -25.5927734375 c 0xd0
 329.372070312 61.0068359375 341.012695312 166.654296875 342.047851562 193.845703125 c 0xc8
 346.681640625 314.131835938 356.814453125 432.624023438 360.314453125 553.123046875 c 0
 360.956054688 575.194335938 366.737304688 606.884765625 366.737304688 635.428710938 c 0
 366.737304688 655.813476562 363.7890625 674.592773438 353.915039062 687.1171875 c 0
 338.012695312 707.211914062 311.44140625 710.708984375 283.671875 710.708984375 c 0xc4
 268.84765625 710.708984375 253.680664062 709.712890625 239.614257812 709.712890625 c 0
 227.0078125 709.712890625 215.284179688 710.513671875 205.481445312 713.547851562 c 0
 171.784179688 724.046875 151.96875 739.821289062 126.385742188 739.821289062 c 0
 114.716796875 739.821289062 101.84765625 736.540039062 85.9150390625 727.979492188 c 1xa4
EndSplineSet
Validated: 524289
EndChar

StartChar: asciicircum
Encoding: 94 94 88
Width: 675
VWidth: 862
Flags: W
HStem: 752.863 20G<395.398 423.222>
VStem: 520.001 111.925<81.0566 141.015>
LayerCount: 2
Fore
SplineSet
43.505859375 45.7275390625 m 1
 43.2148860709 49.2478481503 43.0743648631 52.7330110201 43.0743648631 56.1850771081 c 0
 43.0743648631 125.503416116 99.7348079565 181.476592828 132.6484375 240.698242188 c 0
 202.209960938 366.0703125 255.125 502.0703125 319.009765625 630.6796875 c 0
 333.304806217 659.429517409 371.936414252 772.862964297 418.859114559 772.862964297 c 0
 427.584133372 772.862964297 436.595819711 768.940961678 445.791015625 759.823242188 c 0
 477.333984375 728.545898438 476.626953125 630.559570312 487.435546875 588 c 0
 519.435546875 462 576.026367188 310.403320312 603.543945312 172.470703125 c 0
 607.759938709 151.337995531 631.925963109 83.7520266869 631.925963109 38.5679523451 c 0
 631.925963109 15.9839307192 625.888743242 -1.00359061781 608.305664062 -3.796875 c 0
 607.488304449 -3.92582858363 606.66656356 -3.98897999378 605.840961087 -3.98897999378 c 0
 571.303733515 -3.98897999378 530.008812442 106.52469633 520.000976562 133.499023438 c 0
 460.49609375 293.537109375 453.525390625 473.499023438 394.629882812 630.6796875 c 1
 331.734375 479.670898438 252.724609375 326.793945312 175.88671875 182.22265625 c 0
 146.629882812 127.250976562 109.143554688 56.0888671875 43.505859375 45.7275390625 c 1
EndSplineSet
Validated: 1
EndChar

StartChar: underscore
Encoding: 95 95 89
Width: 978
VWidth: 874
Flags: W
HStem: -175.603 107.674<291.081 528.016> -155.018 110.408<105.108 437.543> -106.672 103.771<760.494 925.877> -99.4118 96.5116<699.974 893.577>
LayerCount: 2
Fore
SplineSet
206.423828125 -151.135742188 m 4x80
 205.931640625 -151.048828125 l 4
 186.035859126 -152.997474212 164.498252865 -155.018185126 142.930600061 -155.018185126 c 0
 128.375869048 -155.018185126 113.807454538 -154.09793309 99.720703125 -151.614257812 c 4
 64.513671875 -145.40625 32.056640625 -156.482421875 15.890625 -127.231445312 c 4
 14.513671875 -124.958007812 13.384765625 -122.727539062 12.25390625 -120.497070312 c 5
 12.5 -120.541015625 12.919921875 -119.599609375 13.166015625 -119.642578125 c 4
 50.00390625 -83.490234375 108.421875 -60.2822265625 167.783203125 -50.4404296875 c 4
 194.33621217 -46.2533486086 221.305426241 -44.609869386 247.431734815 -44.609869386 c 0x40
 305.06056622 -44.609869386 358.588278275 -52.60614473 394.501953125 -58.9384765625 c 6
 438.326171875 -66.666015625 l 5
 447.315544945 -67.5289651342 456.448086057 -67.9290574325 465.704700912 -67.9290574325 c 0x80
 583.716506217 -67.9290574325 721.894620013 -2.90011198768 840.672920253 -2.90011198768 c 0
 856.684350698 -2.90011198768 872.343261266 -4.08177261521 887.552734375 -6.763671875 c 4
 915.865234375 -11.755859375 941.90625 -22.4404296875 965.74609375 -39.84375 c 5
 942.55078125 -76.37109375 917.875 -95.375 891.345703125 -101.8671875 c 4
 879.176759184 -105.431832267 866.470350314 -106.671608792 853.453023084 -106.671608792 c 0x20
 838.693224077 -106.671608792 823.533697951 -105.077710332 808.3046875 -103.471679688 c 4
 792.688710232 -101.316244658 776.500388652 -99.4117605947 759.70741395 -99.4117605947 c 0x10
 747.984144618 -99.4117605947 735.966196741 -100.339913569 723.642578125 -102.758789062 c 4
 613.263671875 -126.959960938 572.064453125 -135.096679688 514.703125 -159.506835938 c 4
 487.865663305 -170.581192069 468.197676457 -175.602565736 442.499226245 -175.602565736 c 0
 407.115892146 -175.602565736 360.300239334 -166.083240163 267.59765625 -149.737304688 c 4
 262.326745051 -148.807749604 256.20277305 -148.453581838 249.662253826 -148.453581838 c 0
 235.733253795 -148.453581838 219.915046225 -150.059873697 206.423828125 -151.135742188 c 4x80
EndSplineSet
Validated: 1
EndChar

StartChar: grave
Encoding: 96 96 90
Width: 488
VWidth: 880
Flags: W
HStem: 504.2 310.8 608.1 20G<251 251>
LayerCount: 2
Fore
SplineSet
71.099609375 805.200195312 m 0x40
 71.099609375 812.200195312 72.5 814.299804688 73.2001953125 815 c 2
 74.599609375 817.099609375 l 1
 74.599609375 817.099609375 76 817.799804688 80.900390625 817.799804688 c 0
 86.5 817.799804688 98.400390625 815.700195312 115.200195312 808.700195312 c 0
 135.5 799.599609375 162.799804688 782.099609375 195 754.099609375 c 0
 265 693.200195312 309.099609375 652.599609375 351.099609375 599.400390625 c 0
 372.799804688 572.799804688 393.099609375 542 416.900390625 504.200195312 c 1x80
 377.700195312 528.700195312 335 558.099609375 294.400390625 588.200195312 c 0
 276.200195312 601.5 259.400390625 614.799804688 242.599609375 628.099609375 c 1
 251 626 l 1
 103.299804688 748.5 l 2
 81.599609375 766.700195312 71.099609375 790.5 71.099609375 805.200195312 c 0x40
EndSplineSet
Validated: 1
EndChar

StartChar: braceleft
Encoding: 123 123 91
Width: 543
VWidth: 860
Flags: W
HStem: -195.38 99.4358<225.26 416.096> 708.403 85.6102<328.234 474.095>
VStem: 111.395 99.8351<-83.1806 30.6964> 151.666 99.3415<62.7286 171.358> 216.196 87.8225<393.239 683.025>
LayerCount: 2
Fore
SplineSet
424.40625 -132.873046875 m 0xe0
 426.637353625 -139.551297847 427.690291565 -145.618869512 427.690291565 -151.110695326 c 0
 427.690291565 -182.877506841 392.459977197 -195.380402998 346.235919915 -195.380402998 c 0
 271.421852423 -195.380402998 167.808879236 -162.628161091 138.155273438 -125.7890625 c 0
 118.377233151 -101.21868085 111.395338458 -77.633874757 111.395338458 -54.5387323008 c 0xe0
 111.395338458 0.927691581412 151.666331202 53.5697759931 151.666331202 110.257147199 c 0xd0
 151.666331202 118.808495338 150.749923194 127.451898155 148.640625 136.2109375 c 0
 134.895536504 193.316117246 54.2352779576 216.457245845 54.2352779576 273.489200751 c 0
 54.2352779576 313.932713821 158.627769431 339.45516005 181.955078125 370.92578125 c 0
 211.653766259 411.064123365 216.19630345 470.416362859 216.19630345 532.014976368 c 0
 216.19630345 559.163442053 215.313940634 586.748253512 215.313940634 613.316825876 c 0
 215.313940634 681.427148492 221.112720677 742.858872612 262.44140625 773.139648438 c 0
 284.439359932 789.256712104 312.774801562 794.01367538 341.745922413 794.01367538 c 0
 372.414973255 794.01367538 403.796398146 788.682783503 429.125976562 785.854492188 c 0
 442.44256618 784.366377313 488.764834812 776.28776481 488.764834812 751.080190836 c 0
 488.764834812 747.305739078 487.726265519 743.147247119 485.3828125 738.569335938 c 0
 471.624735092 711.693189913 447.371436307 706.80322932 421.565998686 706.80322932 c 0
 406.803959198 706.80322932 391.533993254 708.403434337 377.430244205 708.403434337 c 0
 353.476895171 708.403434337 332.887442987 703.787719502 323.86328125 678.877929688 c 0
 305.864882598 629.196694892 304.018782205 578.113224516 304.018782205 528.621270124 c 0xc8
 304.018782205 515.848188518 304.141746063 503.181113577 304.141746063 490.671508764 c 0
 304.141746063 403.314695477 298.145438985 323.636880371 202.40625 269.163085938 c 1
 202.40625 250.876953125 l 1
 239.132833995 227.956616553 251.007817862 198.066904319 251.007817862 164.895850206 c 0xd0
 251.007817862 104.185766074 211.230439884 32.4842416494 211.230439884 -27.5987743903 c 0
 211.230439884 -38.7321346338 212.596233962 -49.4665623494 215.833984375 -59.658203125 c 0
 226.114702247 -92.0198721071 259.25322166 -96.7551089675 296.381717511 -96.7551089675 c 0
 311.742402711 -96.7551089675 327.786018865 -95.9446180089 343.176488807 -95.9446180089 c 0
 380.312325777 -95.9446180089 413.645453825 -100.663410128 424.40625 -132.873046875 c 0xe0
EndSplineSet
Validated: 1
EndChar

StartChar: bar
Encoding: 124 124 92
Width: 194
VWidth: 860
Flags: W
VStem: 52.9687 71.792<-182.03 169.051> 67.3506 74.1826<380.788 718.896>
LayerCount: 2
Fore
SplineSet
106.623046875 799.387695312 m 0x40
 109.076820775 799.855872729 111.396469963 800.082205299 113.588572319 800.082205299 c 0
 141.764862889 800.082205299 148.868673532 762.688970996 148.868673532 720.844090951 c 0
 148.868673532 679.343807565 141.881382275 633.464896011 141.533203125 615.341796875 c 0x40
 137.71484375 416.796875 122.805664062 221.615234375 122.805664062 22.115234375 c 0
 122.805664062 7.72727924547 124.760662167 -24.3531964087 124.760662167 -59.3857371594 c 0
 124.760662167 -120.862738754 118.740219512 -191.430664062 85.5693359375 -191.430664062 c 0
 55.5855626602 -191.430664062 52.9686985209 -108.613431269 52.9686985209 -44.4179701614 c 0x80
 52.9686985209 -30.8429806949 53.0857162142 -18.1006965782 53.0857162142 -7.15032077975 c 0
 53.0857162142 5.47876671043 52.9300704058 15.7244281492 52.259765625 22.115234375 c 0
 47.1215332074 71.1072616656 45.1305172433 121.027066871 45.1305172433 171.412015903 c 0
 45.1305172433 319.280357384 62.278913034 471.154930156 67.3505859375 615.341796875 c 0
 68.623046875 652.024414062 67.896484375 792.069335938 106.623046875 799.387695312 c 0x40
EndSplineSet
Validated: 1
EndChar

StartChar: braceright
Encoding: 125 125 93
Width: 559
VWidth: 862
Flags: W
HStem: -199.344 103.824<94.1781 221.713> 253.032 108.768<414.565 479.625> 676.98 21G<110.5 122> 705.407 93.9365<138.461 275.208>
VStem: 206 83<424.006 553.739> 234 80<-26.0328 134.8> 241 82<-76.8288 64.7724> 277 93<625.68 704.842>
LayerCount: 2
Fore
SplineSet
241 -13.943359375 m 0xf2
 241 14.4833984375 234 42.912109375 234 72.576171875 c 0xf4
 234 83.7001953125 234 94.82421875 237 105.947265625 c 0
 252 175.1640625 291 239.436523438 327 292.583984375 c 1
 268 327.192382812 206 391.463867188 206 479.219726562 c 0xf8
 206 498.99609375 209 520.0078125 216 541.01953125 c 0
 220 554.616210938 229 569.447265625 238 586.751953125 c 0
 248 606.52734375 259 627.540039062 267 647.31640625 c 0
 273 663.383789062 277 678.215820312 277 686.8671875 c 0xf1
 277 691.8125 276 695.51953125 274 697.9921875 c 0
 274 699.227539062 272 700.463867188 268 701.700195312 c 0
 263 704.172851562 254 705.407226562 244 705.407226562 c 0
 195 705.407226562 122 679.452148438 122 679.452148438 c 1
 118 676.98046875 l 1
 103 680.6875 84 689.33984375 84 712.82421875 c 0
 84 721.4765625 86 727.65625 89 732.599609375 c 0
 98 751.139648438 118 767.208007812 132 774.624023438 c 0
 156 788.219726562 210 799.34375 261 799.34375 c 0
 283 799.34375 305 796.872070312 323 790.692382812 c 0xf2
 337 785.748046875 350 777.096679688 358 761.02734375 c 0
 366 743.723632812 370 725.18359375 370 707.879882812 c 0xf1
 370 662.147460938 348 623.83203125 328 586.751953125 c 0
 307 548.436523438 289 512.592773438 289 480.456054688 c 0xf8
 289 466.860351562 292 453.263671875 301 437.196289062 c 0
 322 398.879882812 373 361.799804688 411 356.856445312 c 0
 412 356.856445312 413 356.856445312 414 356.856445312 c 0
 426 356.856445312 442 361.799804688 456 361.799804688 c 0
 464 361.799804688 472 360.563476562 480 355.620117188 c 0
 492 348.204101562 502 333.372070312 502 311.124023438 c 0
 502 296.291992188 496 283.932617188 488 275.280273438 c 0
 474 261.68359375 454 256.740234375 434 253.032226562 c 0
 422 250.559570312 413 246.852539062 410 245.616210938 c 0
 404 241.907226562 394 230.784179688 384 215.952148438 c 0
 371 197.412109375 358 172.692382812 347 154.15234375 c 0
 339 140.556640625 333 129.432617188 328 122.016601562 c 0
 317 107.18359375 314 88.6435546875 314 66.396484375 c 0xf4
 314 31.7880859375 323 -5.2919921875 323 -41.1357421875 c 0
 323 -52.259765625 322 -64.6201171875 320 -75.744140625 c 0
 304 -158.556640625 218 -199.34375 145 -199.34375 c 0
 115 -199.34375 88 -191.927734375 66 -177.096679688 c 2
 57 -172.15234375 l 1
 58 -159.791992188 l 2
 61 -123.947265625 80 -97.9921875 110 -80.6875 c 2
 117 -76.98046875 l 1
 124 -80.6875 l 2
 138 -90.576171875 155 -95.51953125 172 -95.51953125 c 0
 210 -95.51953125 241 -69.5634765625 241 -13.943359375 c 0xf2
EndSplineSet
Validated: 1
EndChar

StartChar: asciitilde
Encoding: 126 126 94
Width: 695
VWidth: 875
Flags: W
HStem: 329 99<432.25 540.637> 468 129<209.965 310.07> 648 20G<663 681>
LayerCount: 2
Fore
SplineSet
272 597 m 4
 280 597 288 595 295 590 c 4
 335 563 371 512 405 470 c 4
 427 443 452 428 478 428 c 6
 484 428 l 6
 488 428 492 429 496 429 c 4
 510 430 519 432 526 436 c 4
 532 439 539 445 547 458 c 4
 578 506 604 571 634 616 c 4
 643 630 653 642 663 650 c 6
 686 668 l 5
 679 640 l 6
 661 568 627 480 603 428 c 4
 596 414 589 400 584 391 c 4
 579 383 578 380 577 379 c 4
 546 343 518 329 492 329 c 4
 451 329 413 364 374 398 c 4
 335 432 292 468 242 468 c 6
 235 468 l 5
 206 466 180 438 157 400 c 4
 139 370 123 336 109 304 c 4
 95 273 83 245 71 225 c 4
 58 203 44 188 28 184 c 6
 15 181 l 5
 16 195 l 6
 18 214 22 234 25 246 c 4
 43 310 71 382 104 441 c 4
 130 488 158 529 186 555 c 4
 201 569 216 582 231 586 c 4
 243 590 255 597 272 597 c 4
EndSplineSet
Validated: 1
EndChar

StartChar: endash
Encoding: 8211 8211 95
Width: 1008
VWidth: 878
Flags: W
HStem: 297.1 123.646<382.224 710.74> 321.146 100.854<89.8923 187.507 279.993 603.484 824.381 918.952> 326.41 104.63<95.8068 538.86>
LayerCount: 2
Fore
SplineSet
668.899414062 422.208007812 m 1x80
 710.740234375 425.5859375 l 2
 740.711939943 428.005786028 781.023468928 437.78320781 823.29259468 437.78320781 c 0
 846.510188972 437.78320781 870.318407337 434.833274109 893.328125 426.09375 c 0
 913.193359375 417.7421875 931.625 407.926757812 942.775390625 399.291992188 c 0
 944.033203125 398.575195312 945.744140625 396.916015625 946.732421875 396.123046875 c 1
 946.647460938 391.836914062 946.0234375 384.202148438 943.78515625 376.120117188 c 0
 936.350585938 352.739257812 911.662109375 330.971679688 872.8515625 320.215820312 c 0
 822.614478555 306.291414773 753.554350369 297.100478296 671.728223734 297.100478296 c 0x80
 632.840281153 297.100478296 591.068966194 299.176374864 547.064453125 303.806640625 c 0
 488.831054688 310.05078125 428.173828125 315.624023438 368.14453125 319.240234375 c 0
 336.724735906 320.780152621 306.478623909 326.409682071 278.68842788 326.409682071 c 0x20
 274.685696242 326.409682071 270.733914491 326.292893103 266.836914062 326.030273438 c 0
 236.253747941 323.968930858 212.187184294 320.305628575 187.804860849 320.305628575 c 0
 181.449592993 320.305628575 175.072872811 320.554508748 168.553710938 321.145507812 c 0
 134.170748575 324.26219093 61.2670987663 342.129243597 61.2670987663 377.093881863 c 0
 61.2670987663 377.493942139 61.2766430217 377.896240763 61.2958984375 378.30078125 c 1
 68.59375 408.540039062 118.635742188 417 142.03515625 422 c 0x40
 174.115172804 428.854860395 212.572186177 431.039655844 255.093648661 431.039655844 c 0x20
 305.849050378 431.039655844 362.395402465 427.926800531 420.799804688 425.927734375 c 0
 484.788778981 423.737333275 546.808120234 420.746784894 605.058656838 420.746784894 c 0
 626.900407108 420.746784894 648.212276021 421.167246018 668.899414062 422.208007812 c 1x80
EndSplineSet
Validated: 1
EndChar

StartChar: emdash
Encoding: 8212 8212 96
Width: 1326
VWidth: 878
Flags: W
HStem: 297.1 140.683<173.505 525.757> 297.1 123.646<385.049 724.471> 326.41 104.63<778.537 1211.79>
LayerCount: 2
Fore
SplineSet
441.302734375 422.208007812 m 1x80
 469.115415554 421.167246018 497.768019139 420.746784894 527.133016205 420.746784894 c 0x40
 605.447565874 420.746784894 688.829045758 423.737333275 774.858398438 425.927734375 c 0
 853.379400196 427.926800531 929.402472429 431.039655844 997.640218841 431.039655844 c 0
 1054.80790299 431.039655844 1106.5113613 428.854860395 1149.64160156 422 c 0
 1181.1015625 417 1248.37890625 408.540039062 1258.19140625 378.30078125 c 1
 1258.21728614 377.896301707 1258.23011393 377.494063351 1258.23011393 377.09406267 c 0
 1258.23011393 342.129305193 1160.2153095 324.262196302 1113.98925781 321.145507812 c 0
 1105.22482447 320.554508748 1096.65176061 320.305628575 1088.10746387 320.305628575 c 0
 1055.32681456 320.305628575 1022.96959233 323.968930858 981.853515625 326.030273438 c 0
 976.61415494 326.292893103 971.301159119 326.409682071 965.919675067 326.409682071 c 0x20
 928.55706617 326.409682071 887.893147966 320.780152621 845.650390625 319.240234375 c 0
 764.944335938 315.624023438 683.39453125 310.05078125 605.102539062 303.806640625 c 0
 545.94065377 299.176374864 489.781398859 297.100478296 437.498725556 297.100478296 c 0
 327.48805483 297.100478296 234.640770697 306.291414773 167.098632812 320.215820312 c 0
 114.921875 330.971679688 81.7294921875 352.739257812 71.7333984375 376.120117188 c 0
 68.7236328125 384.202148438 67.884765625 391.836914062 67.76953125 396.123046875 c 1
 69.099609375 396.916015625 71.400390625 398.575195312 73.091796875 399.291992188 c 0
 88.0810546875 407.926757812 112.861328125 417.7421875 139.5703125 426.09375 c 0
 170.505568804 434.833274109 202.514412678 437.78320781 233.729170017 437.78320781 c 0
 290.55764616 437.78320781 344.754158412 428.005786028 385.048828125 425.5859375 c 2
 441.302734375 422.208007812 l 1x80
EndSplineSet
Validated: 1
EndChar

StartChar: quoteright
Encoding: 8217 8217 97
Width: 493
VWidth: 955
Flags: W
HStem: 736.268 200.07<168.526 255.445>
VStem: 111.41 270.18<803.206 884.395>
LayerCount: 2
Fore
SplineSet
381.58984375 786.712890625 m 0
 381.58984375 693.517578125 340.549804688 571.252929688 275.569335938 474.637695312 c 0
 241.370117188 423.337890625 200.330078125 379.732421875 157.580078125 350.662109375 c 1
 239.66015625 486.607421875 285.830078125 617.421875 294.379882812 743.962890625 c 2
 298.655273438 802.95703125 l 1
 257.615234375 760.20703125 l 2
 242.224609375 743.962890625 225.98046875 736.267578125 206.315429688 736.267578125 c 0
 203.75 737.122070312 182.375 738.83203125 167.83984375 744.817382812 c 1
 125.08984375 782.4375 111.41015625 813.217773438 111.41015625 837.157226562 c 0
 111.41015625 865.372070312 131.075195312 893.587890625 166.130859375 920.947265625 c 1
 201.184570312 931.20703125 231.109375 936.337890625 255.905273438 936.337890625 c 0
 308.059570312 936.337890625 339.694335938 917.52734375 358.504882812 886.747070312 c 0
 373.89453125 861.953125 381.58984375 827.752929688 381.58984375 786.712890625 c 0
EndSplineSet
Validated: 524289
EndChar

StartChar: quoteleft
Encoding: 8216 8216 98
Width: 493
VWidth: 949
Flags: W
VStem: 73.79 61.5596<417.57 616.248>
LayerCount: 2
Fore
SplineSet
73.7900390625 538.962890625 m 0
 73.7900390625 646.692382812 118.25 761.262695312 196.91015625 829.662109375 c 0
 235.384765625 863.862304688 282.41015625 885.237304688 338.83984375 890.368164062 c 1
 342.259765625 890.368164062 l 2
 349.099609375 890.368164062 369.619140625 889.512695312 385.865234375 884.381835938 c 0
 399.544921875 879.252929688 408.950195312 873.267578125 413.224609375 865.572265625 c 0
 416.64453125 859.587890625 419.209960938 853.602539062 419.209960938 839.921875 c 0
 419.209960938 838.212890625 419.209960938 836.502929688 419.209960938 833.08203125 c 0
 414.934570312 785.203125 380.734375 768.102539062 314.044921875 740.743164062 c 0
 268.73046875 722.787109375 217.430664062 703.122070312 181.51953125 656.09765625 c 0
 146.46484375 612.493164062 135.349609375 559.482421875 135.349609375 509.037109375 c 0
 135.349609375 445.767578125 150.740234375 384.20703125 165.275390625 328.631835938 c 1
 105.424804688 367.107421875 73.7900390625 444.912109375 73.7900390625 538.962890625 c 0
EndSplineSet
Validated: 524289
EndChar

StartChar: quotedblleft
Encoding: 8220 8220 99
Width: 717
VWidth: 942
Flags: W
HStem: 317.03 157.209<286.376 381.592> 411.833 121.889<503.343 591.647> 792.812 18.7002<322.569 328.71>
VStem: 105.335 82.3359<539.273 680.001> 380.814 75.4121<576.042 691.248>
LayerCount: 2
Fore
SplineSet
187.670898438 607.208007812 m 0xb8
 187.670898438 569.810546875 206.138671875 532.412109375 245.3828125 499.170898438 c 0
 271.545898438 477.008789062 288.475585938 475.624023438 315.407226562 474.239257812 c 0
 343.879882812 472.853515625 366.194335938 470.775390625 382.354492188 456.232421875 c 0
 395.435546875 444.458984375 402.361328125 416.065429688 402.361328125 391.133789062 c 0
 402.361328125 367.586914062 396.205078125 341.26953125 383.124023438 330.881835938 c 0
 370.04296875 320.493164062 356.9609375 317.030273438 344.6484375 317.030273438 c 0
 329.258789062 317.030273438 313.099609375 323.262695312 296.940429688 332.265625 c 0
 276.1640625 344.040039062 256.92578125 360.661132812 241.536132812 375.204101562 c 0
 173.05078125 440.99609375 105.334960938 533.10546875 105.334960938 622.444335938 c 0
 105.334960938 645.298828125 109.951171875 667.459960938 119.185546875 689.623046875 c 0
 131.497070312 718.015625 163.047851562 753.336914062 201.522460938 778.267578125 c 0
 232.301757812 798.353515625 266.16015625 811.51171875 294.630859375 811.51171875 c 0
 313.868164062 811.51171875 331.567382812 806.663085938 346.95703125 792.811523438 c 1
 300.787109375 778.9609375 270.77734375 751.951171875 238.458007812 718.015625 c 0
 208.447265625 686.159179688 187.670898438 648.069335938 187.670898438 607.208007812 c 0xb8
456.2265625 634.141601562 m 0
 456.2265625 627.21484375 456.99609375 620.290039062 458.53515625 612.672851562 c 0
 466.999023438 566.962890625 513.169921875 548.265625 548.56640625 533.721679688 c 0
 587.810546875 517.100585938 611.665039062 505.326171875 611.665039062 479.701171875 c 0
 611.665039062 472.77734375 610.126953125 463.081054688 605.509765625 452 c 0
 597.814453125 434.686523438 587.810546875 424.991210938 576.268554688 418.7578125 c 0
 567.03515625 413.91015625 556.26171875 411.833007812 543.94921875 411.833007812 c 0x78
 508.552734375 411.833007812 466.23046875 432.608398438 440.8359375 458.232421875 c 0
 399.283203125 501.170898438 380.814453125 550.342773438 380.814453125 599.513671875 c 0
 380.814453125 698.548828125 455.45703125 796.198242188 567.03515625 826.669921875 c 1
 556.26171875 807.971679688 540.87109375 788.579101562 524.711914062 769.188476562 c 0
 492.392578125 730.405273438 456.2265625 688.16015625 456.2265625 634.141601562 c 0
EndSplineSet
Validated: 524289
EndChar

StartChar: quotedblright
Encoding: 8221 8221 100
Width: 717
VWidth: 953
Flags: W
HStem: 702.473 21G<205.455 213.15> 787.973 174.42<431.951 495.728>
VStem: 276.848 76.0957<488.461 679.365> 505.132 84.6455<601.53 784.827>
LayerCount: 2
Fore
SplineSet
352.943359375 643.477539062 m 0
 352.943359375 510.09765625 308.482421875 368.16796875 193.057617188 306.607421875 c 1
 243.502929688 404.932617188 276.84765625 482.737304688 276.84765625 564.818359375 c 0
 276.84765625 605.857421875 268.296875 647.752929688 250.342773438 691.357421875 c 2
 242.647460938 710.16796875 l 1
 223.837890625 703.328125 l 2
 222.982421875 703.328125 217.852539062 702.47265625 208.447265625 702.47265625 c 0
 202.462890625 702.47265625 193.912109375 702.47265625 183.65234375 704.181640625 c 0
 162.27734375 707.602539062 148.59765625 713.587890625 140.046875 719.572265625 c 0
 129.787109375 726.412109375 127.22265625 733.252929688 127.22265625 740.947265625 c 0
 127.22265625 753.772460938 136.627929688 772.58203125 155.4375 789.681640625 c 0
 179.377929688 811.056640625 214.432617188 827.302734375 248.631835938 827.302734375 c 0
 262.3125 827.302734375 275.993164062 824.737304688 288.818359375 819.607421875 c 0
 352.943359375 792.247070312 352.943359375 722.137695312 352.943359375 643.477539062 c 0
505.131835938 693.921875 m 0
 505.131835938 717.862304688 503.421875 743.512695312 498.29296875 770.872070312 c 2
 495.727539062 784.552734375 l 1
 482.046875 787.97265625 l 2
 395.692382812 809.34765625 377.737304688 840.982421875 377.737304688 863.212890625 c 0
 377.737304688 881.16796875 389.70703125 903.397460938 409.372070312 923.0625 c 0
 423.052734375 935.887695312 439.296875 947.002929688 454.6875 953.842773438 c 0
 466.657226562 959.828125 478.627929688 962.392578125 486.322265625 962.392578125 c 0
 491.453125 962.392578125 494.872070312 961.537109375 495.727539062 960.681640625 c 0
 559.852539062 916.22265625 589.77734375 835.852539062 589.77734375 742.657226562 c 0
 589.77734375 616.118164062 533.34765625 471.622070312 444.427734375 383.557617188 c 0
 411.08203125 350.212890625 372.607421875 324.5625 331.568359375 310.881835938 c 1
 352.087890625 352.77734375 376.881835938 389.54296875 401.677734375 426.307617188 c 0
 452.977539062 501.546875 505.131835938 578.497070312 505.131835938 693.921875 c 0
EndSplineSet
Validated: 524289
EndChar

StartChar: minute
Encoding: 8242 8242 101
Width: 416
Flags: W
VStem: 93.2031 235.42
LayerCount: 2
Fore
SplineSet
93.203125 483.5 m 1
 92.21875 483.326171875 l 0
 93.203125 483.5 l 1
328.623046875 887.518554688 m 0
 329.317382812 883.579101562 329.114257812 878.973632812 327.751953125 875.1796875 c 0
 323.348632812 871.357421875 321.813476562 868.547851562 318.482421875 864.40625 c 0
 313.615234375 857.456054688 307.299804688 847.203125 299.448242188 834.141601562 c 0
 249.357421875 749.66015625 134.456054688 537.483398438 95.7236328125 486.483398438 c 1
 101.786132812 550.000976562 147.780273438 755.611328125 214.90625 864.420898438 c 0
 237.735351562 901.955078125 264.354492188 912.233398438 276.171875 914.317382812 c 0
 282.081054688 915.359375 289.1484375 915.58984375 296.5625 913.8515625 c 0
 312.376953125 910.546875 326.452148438 899.828125 328.623046875 887.518554688 c 0
EndSplineSet
Validated: 1
EndChar

StartChar: second
Encoding: 8243 8243 102
Width: 444
Flags: W
LayerCount: 2
Fore
SplineSet
24.587890625 483.5 m 1
 23.603515625 483.326171875 l 0
 24.587890625 483.5 l 1
260.0078125 887.518554688 m 0
 260.702148438 883.579101562 260.499023438 878.973632812 259.13671875 875.1796875 c 0
 254.733398438 871.357421875 253.198242188 868.547851562 249.8671875 864.40625 c 0
 245 857.456054688 238.684570312 847.203125 230.833007812 834.141601562 c 0
 180.7421875 749.66015625 65.8408203125 537.483398438 27.1083984375 486.483398438 c 1
 33.1708984375 550.000976562 79.1650390625 755.611328125 146.291015625 864.420898438 c 0
 169.120117188 901.955078125 195.739257812 912.233398438 207.556640625 914.317382812 c 0
 213.465820312 915.359375 220.533203125 915.58984375 227.947265625 913.8515625 c 0
 243.76171875 910.546875 257.836914062 899.828125 260.0078125 887.518554688 c 0
184.587890625 483.5 m 1
 183.603515625 483.326171875 l 0
 184.587890625 483.5 l 1
420.0078125 887.518554688 m 0
 420.702148438 883.579101562 420.499023438 878.973632812 419.13671875 875.1796875 c 0
 414.733398438 871.357421875 413.198242188 868.547851562 409.8671875 864.40625 c 0
 405 857.456054688 398.684570312 847.203125 390.833007812 834.141601562 c 0
 340.7421875 749.66015625 225.840820312 537.483398438 187.108398438 486.483398438 c 1
 193.170898438 550.000976562 239.165039062 755.611328125 306.291015625 864.420898438 c 0
 329.120117188 901.955078125 355.739257812 912.233398438 367.556640625 914.317382812 c 0
 373.465820312 915.359375 380.533203125 915.58984375 387.947265625 913.8515625 c 0
 403.76171875 910.546875 417.836914062 899.828125 420.0078125 887.518554688 c 0
EndSplineSet
Validated: 524289
EndChar

StartChar: uni20B9
Encoding: 8377 8377 103
Width: 609
VWidth: 860
Flags: W
HStem: 487.313 100.575<129.538 299.916> 540.715 67.1776<515.974 551.923> 635.149 117.286<66.3465 133.628> 698.315 21G<394.794 557.978> 710.412 89.9439<227.366 337.862> 755.623 20G<490.611 515.889>
VStem: 352.27 47.7193<592.837 695.526>
LayerCount: 2
Fore
SplineSet
50.4248046875 698.315429688 m 0x12
 67.4931640625 766.35546875 121.876953125 744.35546875 152.793945312 752.434570312 c 0x22
 204.924804688 765.955078125 263.724609375 800.35546875 315.690429688 800.35546875 c 0x0a
 359.421875 800.35546875 401.41015625 769.955078125 445.99609375 769.955078125 c 0
 457.977385326 769.955078125 479.930829135 775.6229324 501.29117084 775.6229324 c 0
 530.487650869 775.6229324 558.576043379 765.033729384 558.576043379 714.907522924 c 0
 558.576043379 709.797870629 558.2841798 704.277393424 557.671875 698.315429688 c 2
 394.793945312 708.5546875 l 1
 397.980038973 689.95349675 399.989747584 671.352305999 399.989747584 652.751021606 c 0
 399.989747584 630.712452973 397.168676711 608.673752892 390.140625 586.634765625 c 1
 396.314221124 585.123823182 402.490240959 584.477635529 408.668088477 584.477635529 c 0
 444.359874592 584.477635529 480.112665347 606.046180586 515.811523438 607.03515625 c 0
 519.252227727 607.1257011 524.013420467 607.892491771 529.031740558 607.892491771 c 0
 539.547178893 607.892491771 551.191597411 604.525710796 554.181640625 584.515625 c 0
 554.59848155 581.721635185 554.797055946 579.113419044 554.797055946 576.678487428 c 0
 554.797055946 532.610455299 489.754585643 545.301269489 476.405273438 540.71484375 c 0x56
 447.959960938 530.995117188 427.546875 528.115234375 400.100585938 508.115234375 c 0
 348.553710938 470.475585938 280.973632812 327.875 250.509765625 232.794921875 c 1
 320.76171875 206.594726562 369.038085938 141.39453125 436.689453125 95.71484375 c 0
 465.5 76.275390625 500.434570312 66.5546875 515.79296875 3.1943359375 c 1
 416.2421875 26.9951171875 l 1
 239.404296875 146.034179688 l 1
 164.5546875 212.234375 l 1
 206.88671875 307.875 l 1
 315.690429688 515.915039062 l 1
 275.359443885 496.698214352 220.43597745 487.313312412 168.010567379 487.313312412 c 0
 134.007973354 487.313312412 101.056234005 491.261248989 73.818359375 499.03515625 c 0
 65.0399175773 501.545887872 63.0411238421 512.453060009 63.0411238421 524.608772596 c 0
 63.0411238421 534.77296523 64.4386273548 545.810104198 64.4386273548 553.541348331 c 0
 64.4386273548 554.387333635 64.4218941252 555.193735284 64.384765625 555.955078125 c 1
 194.69140625 576.39453125 l 2
 213.332025385 585.817915727 234.668507588 587.888525916 256.001579876 587.888525916 c 0
 272.7267236 587.888525916 289.449771394 586.615810649 304.869966271 586.615810649 c 0
 305.932331861 586.615810649 306.988513534 586.621851519 308.038085938 586.634765625 c 0
 323.578125 586.875 332.557617188 586.275390625 345.444335938 619.155273438 c 0
 350.263769192 631.434368369 352.270451004 642.115743266 352.270451004 651.40145356 c 0
 352.270451004 688.063558171 320.989277355 702.96933523 308.038085938 708.5546875 c 0
 305.072740995 709.826940536 301.236635333 710.4115663 296.669106902 710.4115663 c 0x8a
 245.696843959 710.4115663 104.198367652 635.148536546 64.1949199357 635.148536546 c 0x22
 53.6046215525 635.148536546 50.4248046875 698.315429688 50.4248046875 698.315429688 c 0x12
EndSplineSet
Validated: 524289
EndChar

StartChar: divide
Encoding: 247 247 104
Width: 921
VWidth: 864
Flags: W
HStem: 29.9502 161.1<438.948 549.138> 302 113<83.0286 323.775> 397 73<766.874 873.478> 607 159<434.631 518.342> 616 159<450.564 530.698>
VStem: 397 179<662.5 726.55> 404.65 191.699<67.7516 152.645>
LayerCount: 2
Fore
SplineSet
404.650390625 88.4501953125 m 0x82
 404.650390625 128.049804688 438.849609375 191.049804688 477.549804688 191.049804688 c 0
 479.349609375 191.049804688 480.25 191.049804688 482.049804688 191.049804688 c 0
 512.650390625 181.150390625 546.849609375 175.75 569.349609375 157.75 c 0
 588.25 142.450195312 596.349609375 127.150390625 596.349609375 111.849609375 c 0
 596.349609375 69.5498046875 536.950195312 29.9501953125 482.049804688 29.9501953125 c 0
 453.25 29.9501953125 425.349609375 40.75 409.150390625 67.75 c 0
 406.450195312 73.150390625 404.650390625 80.349609375 404.650390625 88.4501953125 c 0x82
146 302 m 0xc0
 133 302 121 303 111 305 c 0
 87 309 83 321 78 333 c 0
 73 346 67 359 42 359 c 2
 42 359 39 359 37 359 c 1
 52 409 141 413 213 415 c 0xc0
 238 416 261 416 277 419 c 0
 454 449 509 445 697 455 c 0
 708 456 723 457 740 460 c 0
 765 465 794 470 819 470 c 0
 843 470 863 466 874 454 c 0
 881 446 884 438 884 431 c 0
 884 415 871 401 849 397 c 0xa0
 749 367 765 377 660 356 c 0
 575 344 477 330 391 329 c 0
 362 329 322 323 281 317 c 0
 234 310 185 302 146 302 c 0xc0
397 664 m 0x94
 397 702 422 748 469 766 c 0x94
 489 772 505 775 519 775 c 0
 557 775 576 751 576 721 c 0
 576 684 548 637 492 616 c 0x8c
 476 610 462 607 450 607 c 0
 414 607 397 631 397 664 c 0x94
EndSplineSet
Validated: 524289
EndChar

StartChar: ellipsis
Encoding: 8230 8230 105
Width: 975
VWidth: 763
Flags: W
HStem: -38.7998 112<105.75 216.588 421.75 532.588 735.75 846.588> -38.7998 100.8<84.0977 216.385 400.098 532.385 714.098 846.385>
LayerCount: 2
Fore
SplineSet
233.400390625 73.2001953125 m 0x80
 252.299804688 73.2001953125 271.900390625 72.5 290.099609375 71.099609375 c 1
 284.5 40.2998046875 245.76171875 12.5634765625 229.200195312 -4.5 c 0
 206.099609375 -28.2998046875 203.299804688 -26.2001953125 185.799804688 -36.7001953125 c 0
 184.458007812 -37.505859375 183.864257812 -38.8642578125 182.299804688 -38.7998046875 c 0x80
 96.900390625 -35.2998046875 90.599609375 -32.5 64.7001953125 -3.1005859375 c 0
 60.3349609375 1.85546875 59.7998046875 13.7001953125 54.900390625 17.2001953125 c 1
 58.400390625 21.3994140625 62.599609375 24.8994140625 66.7998046875 28.3994140625 c 0
 81.5 41 104.599609375 52.8994140625 136.099609375 62 c 0x40
 170.192382812 71.8486328125 190 73.2001953125 233.400390625 73.2001953125 c 0x80
863.400390625 73.2001953125 m 0
 882.299804688 73.2001953125 901.900390625 72.5 920.099609375 71.099609375 c 1
 914.5 40.2998046875 875.76171875 12.5634765625 859.200195312 -4.5 c 0
 836.099609375 -28.2998046875 833.299804688 -26.2001953125 815.799804688 -36.7001953125 c 0
 814.458007812 -37.505859375 813.864257812 -38.8642578125 812.299804688 -38.7998046875 c 0x80
 726.900390625 -35.2998046875 720.599609375 -32.5 694.700195312 -3.1005859375 c 0
 690.334960938 1.85546875 689.799804688 13.7001953125 684.900390625 17.2001953125 c 1
 688.400390625 21.3994140625 692.599609375 24.8994140625 696.799804688 28.3994140625 c 0
 711.5 41 734.599609375 52.8994140625 766.099609375 62 c 0x40
 800.192382812 71.8486328125 820 73.2001953125 863.400390625 73.2001953125 c 0
549.400390625 73.2001953125 m 0
 568.299804688 73.2001953125 587.900390625 72.5 606.099609375 71.099609375 c 1
 600.5 40.2998046875 561.76171875 12.5634765625 545.200195312 -4.5 c 0
 522.099609375 -28.2998046875 519.299804688 -26.2001953125 501.799804688 -36.7001953125 c 0
 500.458007812 -37.505859375 499.864257812 -38.8642578125 498.299804688 -38.7998046875 c 0x80
 412.900390625 -35.2998046875 406.599609375 -32.5 380.700195312 -3.1005859375 c 0
 376.334960938 1.85546875 375.799804688 13.7001953125 370.900390625 17.2001953125 c 1
 374.400390625 21.3994140625 378.599609375 24.8994140625 382.799804688 28.3994140625 c 0
 397.5 41 420.599609375 52.8994140625 452.099609375 62 c 0x40
 486.192382812 71.8486328125 506 73.2001953125 549.400390625 73.2001953125 c 0
EndSplineSet
Validated: 524289
EndChar
